<svg xmlns="http://www.w3.org/2000/svg" xmlns:xlink="http://www.w3.org/1999/xlink" width="500" zoomAndPan="magnify" viewBox="0 0 375 374.999991" height="500" preserveAspectRatio="xMidYMid meet" version="1.0"><defs><g/><clipPath id="24c256bd16"><path d="M 110 159 L 155 159 L 155 215.980469 L 110 215.980469 Z M 110 159 " clip-rule="nonzero"/></clipPath><clipPath id="4cb6739b99"><rect x="0" width="327" y="0" height="32"/></clipPath></defs><g clip-path="url(#24c256bd16)"><path fill="#ff0303" d="M 144.921875 187.316406 C 145.296875 190.597656 144.210938 193.394531 142.148438 195.824219 C 141.699219 196.359375 141.550781 196.753906 141.6875 197.429688 C 142.195312 199.914062 142.253906 202.417969 141.925781 204.929688 C 141.050781 211.648438 135.511719 216.007812 128.808594 215.128906 C 122.96875 214.363281 117.839844 212.074219 113.980469 207.480469 C 111.414062 204.425781 109.945312 200.921875 110.367188 196.828125 C 110.621094 194.363281 111.652344 192.222656 113.273438 190.359375 C 114.90625 188.492188 116.777344 186.917969 119 185.796875 C 119.617188 185.488281 119.964844 185.117188 120.195312 184.375 C 120.902344 182.117188 122.171875 180.121094 123.804688 178.40625 C 124.398438 177.785156 124.585938 177.25 124.4375 176.371094 C 123.878906 173.074219 124.003906 169.804688 125.246094 166.644531 C 127.5625 160.777344 131.632812 158.980469 136.359375 159.390625 C 139.65625 159.675781 142.636719 160.789062 145.402344 162.609375 C 147.367188 163.902344 149.28125 165.238281 150.964844 166.886719 C 154.917969 170.761719 155.59375 175.492188 152.878906 180.316406 C 151.035156 183.589844 148.457031 186.039062 144.921875 187.3125 Z M 134.953125 183.066406 C 134.988281 182.996094 135.023438 182.925781 135.058594 182.855469 C 134.253906 182.460938 133.449219 182.078125 132.652344 181.675781 C 130.457031 180.570312 128.207031 179.597656 125.878906 178.796875 C 125.117188 178.535156 124.621094 178.6875 124.15625 179.285156 C 123.023438 180.742188 122.003906 182.265625 121.128906 183.894531 C 120.683594 184.71875 120.867188 185.214844 121.570312 185.679688 C 122.5 186.292969 123.433594 186.917969 124.308594 187.582031 C 128.125 190.472656 132.417969 192.472656 136.714844 194.476562 C 137.722656 194.945312 138.78125 195.296875 139.859375 195.617188 C 140.792969 195.898438 141.359375 195.613281 141.808594 194.855469 C 142.757812 193.269531 143.683594 191.652344 143.914062 189.789062 C 144.183594 187.625 144.511719 187.914062 142.460938 186.769531 C 140.027344 185.414062 137.46875 184.289062 134.960938 183.066406 Z M 127.105469 199.824219 C 126.972656 199.804688 126.914062 199.777344 126.875 199.792969 C 122.527344 201.574219 119.808594 204.890625 118.089844 209.140625 C 117.757812 209.957031 118.371094 210.257812 118.929688 210.492188 C 119.398438 210.691406 119.921875 210.554688 120.417969 210.484375 C 123.980469 209.988281 126.882812 208.15625 129.574219 205.917969 C 129.90625 205.640625 130.140625 205.335938 129.828125 204.925781 C 128.636719 203.359375 127.933594 201.527344 127.105469 199.824219 Z M 114.308594 203.226562 C 114.199219 203.261719 114.09375 203.300781 113.984375 203.335938 C 113.371094 202.082031 113.042969 200.75 113.136719 199.351562 C 113.503906 193.953125 115.734375 189.609375 120.433594 186.699219 C 120.648438 186.566406 121.160156 186.558594 120.835938 185.96875 C 118.6875 187.070312 116.726562 188.414062 115.042969 190.140625 C 111.078125 194.210938 110.371094 199.292969 113.082031 204.273438 C 113.246094 204.574219 113.285156 205.058594 113.898438 205.011719 C 114.3125 203.621094 115.175781 202.445312 116.054688 201.304688 C 116.503906 200.714844 116.617188 200.242188 116.492188 199.5 C 116.039062 196.746094 116.734375 194.207031 118.175781 191.835938 C 119.304688 189.980469 120.90625 188.671875 122.84375 187.710938 C 121.773438 186.613281 121.761719 186.601562 120.730469 187.195312 C 120.25 187.472656 119.777344 187.789062 119.359375 188.152344 C 115.40625 191.570312 113.726562 195.929688 114.0625 201.101562 C 114.109375 201.8125 114.226562 202.515625 114.308594 203.226562 Z M 138.476562 166.351562 C 138.210938 166.386719 138.039062 166.375 137.894531 166.4375 C 135.300781 167.542969 133.074219 169.179688 131.027344 171.097656 C 130.609375 171.488281 130.503906 171.921875 130.433594 172.417969 C 130.136719 174.582031 130.203125 176.75 130.386719 178.914062 C 130.421875 179.292969 130.402344 179.722656 130.894531 179.863281 C 131.316406 179.984375 131.480469 179.617188 131.691406 179.394531 C 133.933594 176.976562 135.996094 174.429688 137.253906 171.339844 C 137.894531 169.761719 138.398438 168.140625 138.476562 166.355469 Z M 122.871094 212.496094 C 124.4375 213.449219 125.757812 213.515625 127.226562 212.859375 C 129.734375 211.738281 132.132812 210.449219 134.289062 208.742188 C 136.816406 206.738281 138.859375 204.359375 140.167969 201.355469 C 140.785156 199.945312 140.816406 198.578125 140.484375 197.121094 C 140.34375 196.519531 140.050781 196.257812 139.476562 196.222656 C 138.753906 196.179688 138.921875 196.765625 138.816406 197.152344 C 137.21875 203.164062 133.585938 207.53125 128.109375 210.402344 C 126.53125 211.230469 124.867188 211.863281 122.871094 212.496094 Z M 126.726562 213.757812 C 131.242188 214.824219 134.960938 214.171875 137.96875 210.957031 C 140.238281 208.527344 141.019531 205.589844 140.730469 202.339844 C 137.730469 208.015625 132.824219 211.324219 126.726562 213.757812 Z M 150.601562 169.691406 C 150.839844 170.628906 150.453125 171.039062 150.097656 171.457031 C 148.0625 173.851562 145.40625 175.203125 142.390625 175.824219 C 141.425781 176.023438 141.089844 176.425781 141.023438 177.328125 C 141.242188 177.378906 141.402344 177.457031 141.546875 177.441406 C 144.867188 177.046875 147.792969 175.785156 150.160156 173.390625 C 152.453125 171.074219 152.363281 170.0625 149.800781 167.941406 C 149.761719 167.910156 149.691406 167.914062 149.566406 167.878906 C 148.222656 170.46875 145.914062 171.972656 143.339844 173.15625 C 142.082031 173.738281 142.078125 173.726562 142.011719 175.449219 C 145.441406 174.453125 148.457031 172.925781 150.605469 169.691406 Z M 120.285156 211.21875 C 121.195312 211.992188 121.976562 212.195312 122.933594 211.886719 C 126.703125 210.675781 130.132812 208.875 132.945312 206.050781 C 135.558594 203.425781 137.289062 200.296875 138.136719 196.667969 C 138.320312 195.878906 137.96875 195.660156 137.386719 195.492188 C 136.5625 195.257812 136.671875 195.871094 136.585938 196.359375 C 136.246094 198.378906 135.359375 200.167969 134.179688 201.816406 C 130.761719 206.597656 126.460938 210.101562 120.285156 211.21875 Z M 134.433594 181.492188 C 136.363281 182.738281 136.351562 182.726562 137.664062 181.214844 C 138.78125 179.9375 139.542969 178.453125 140.238281 176.933594 C 141.820312 173.472656 142.378906 169.808594 142.378906 166.039062 C 142.378906 165.664062 142.453125 165.199219 141.808594 165.289062 C 141.386719 165.347656 141.042969 165.46875 141.085938 166 C 141.105469 166.21875 141.105469 166.445312 141.113281 166.664062 C 141.203125 169.109375 140.636719 171.40625 139.636719 173.625 C 138.34375 176.488281 136.699219 179.117188 134.433594 181.492188 Z M 131.839844 180.246094 C 134.035156 181.636719 133.800781 181.261719 134.984375 179.929688 C 137.046875 177.605469 138.457031 174.878906 139.550781 171.996094 C 140.207031 170.261719 140.511719 168.445312 140.492188 166.585938 C 140.488281 166.242188 140.691406 165.714844 140.089844 165.707031 C 139.65625 165.699219 139.164062 165.816406 139.03125 166.351562 C 138.925781 166.78125 138.890625 167.230469 138.816406 167.671875 C 138.398438 170.167969 137.601562 172.503906 136.207031 174.664062 C 134.933594 176.640625 133.488281 178.460938 131.839844 180.25 Z M 115.582031 207.597656 C 117.46875 202.433594 120.679688 198.800781 125.6875 196.898438 C 126.105469 196.738281 126.191406 196.511719 126.097656 196.15625 C 126 195.796875 126.085938 195.371094 125.59375 195.007812 C 120.648438 196.964844 116.753906 200.128906 114.523438 205.144531 C 114.035156 206.246094 114.675781 206.90625 115.582031 207.597656 Z M 117 199.949219 C 118.3125 198.796875 119.167969 197.964844 119.425781 196.398438 C 119.925781 193.390625 121.746094 191.164062 124.511719 189.773438 C 124.78125 189.640625 125.214844 189.679688 125.175781 189.191406 C 123.410156 187.980469 123.226562 187.949219 121.511719 189.191406 C 117.964844 191.75 116.871094 195.382812 117.003906 199.949219 Z M 131.753906 161.164062 C 130.109375 161.734375 128.980469 162.410156 128.367188 163.796875 C 126.460938 168.117188 126.257812 172.648438 126.582031 177.261719 C 126.65625 178.25 127.132812 178.640625 128.175781 178.503906 C 127.503906 172.445312 128.164062 166.683594 131.753906 161.164062 Z M 126.824219 199.066406 C 126.367188 197.246094 126.304688 197.144531 125.148438 197.710938 C 120.945312 199.765625 118.0625 203.050781 116.433594 207.417969 C 116.082031 208.355469 116.226562 208.503906 117.441406 209.136719 C 119.1875 204.570312 122.132812 201.097656 126.824219 199.066406 Z M 145.074219 164.304688 C 143.660156 162.546875 142.003906 162.570312 140.214844 162.933594 C 136.855469 163.605469 134.128906 165.320312 131.816406 167.792969 C 131.160156 168.488281 130.980469 169.292969 130.871094 170.476562 C 132.976562 168.601562 135.023438 167.082031 137.375 166.023438 C 139.789062 164.933594 142.339844 164.449219 145.070312 164.304688 Z M 134.867188 160.71875 C 133.3125 160.40625 132.46875 160.910156 131.777344 162.085938 C 128.847656 167.066406 128.167969 172.453125 128.691406 178.085938 C 128.753906 178.800781 129.054688 179.238281 129.929688 179.265625 C 129.042969 172.488281 130.304688 166.257812 134.867188 160.71875 Z M 133.628906 201.40625 C 134.902344 199.558594 135.726562 197.839844 136.089844 195.902344 C 136.179688 195.417969 136.101562 195.003906 135.609375 194.785156 C 134.054688 194.097656 132.578125 193.226562 130.800781 192.625 C 130.957031 195.847656 132.0625 198.554688 133.628906 201.40625 Z M 126.53125 190.269531 C 126.050781 195.757812 127.636719 200.496094 130.328125 205.011719 C 131.832031 203.835938 131.816406 203.847656 131.015625 202.40625 C 130.476562 201.433594 129.925781 200.457031 129.476562 199.441406 C 128.484375 197.179688 127.804688 194.832031 127.96875 192.324219 C 128.0625 190.910156 128.097656 190.910156 126.527344 190.269531 Z M 145.914062 177.3125 C 144.230469 177.625 142.640625 178.117188 140.960938 177.996094 C 140.566406 177.964844 140.367188 178.273438 140.222656 178.582031 C 139.46875 180.195312 138.308594 181.527344 137.105469 182.828125 C 138.503906 183.703125 138.5 183.691406 139.710938 183.144531 C 142.441406 181.917969 144.261719 179.746094 145.914062 177.3125 Z M 143.136719 186.359375 C 149.023438 186.09375 154.925781 177.535156 152.601562 172.949219 C 151.28125 178.625 148.277344 183.058594 143.136719 186.359375 Z M 139.59375 184.039062 C 140.203125 184.734375 140.847656 184.746094 141.597656 184.429688 C 142.269531 184.144531 142.933594 183.863281 143.507812 183.417969 C 146.144531 181.359375 147.964844 178.703125 149.453125 175.351562 C 148.128906 176.003906 147.199219 176.4375 146.507812 177.515625 C 144.785156 180.1875 142.792969 182.652344 139.59375 184.042969 Z M 143.257812 170.546875 C 144.957031 169.730469 146.328125 168.472656 147.539062 167.003906 C 148.019531 166.417969 147.816406 166.054688 147.332031 165.621094 C 146.429688 164.824219 145.355469 165 144.316406 165.027344 C 143.03125 165.058594 143.046875 165.085938 143.042969 166.324219 C 143.042969 167.429688 142.996094 168.539062 142.96875 169.644531 C 142.964844 169.949219 142.78125 170.300781 143.253906 170.542969 Z M 132.09375 166.496094 C 133.550781 165.566406 134.820312 164.40625 136.351562 163.632812 C 137.851562 162.875 139.480469 162.457031 141.09375 161.929688 C 139.699219 161.3125 138.324219 160.925781 136.890625 160.707031 C 136.0625 160.578125 135.523438 160.828125 135.023438 161.457031 C 133.816406 162.992188 132.707031 164.574219 132.089844 166.496094 Z M 152.09375 172.734375 C 150.886719 173.824219 150.144531 174.710938 149.875 175.390625 C 148.234375 179.503906 146 183.144531 141.832031 185.257812 C 142.730469 185.746094 142.753906 185.777344 143.339844 185.382812 C 147.777344 182.394531 150.71875 178.351562 152.09375 172.734375 Z M 128.703125 191.640625 C 128.535156 195.855469 129.949219 199.511719 132.082031 203.007812 C 133.191406 202.082031 133.203125 202.078125 132.605469 200.929688 C 131.234375 198.296875 129.925781 195.640625 129.9375 192.5625 C 129.941406 191.796875 129.429688 191.683594 128.703125 191.636719 Z M 125.675781 190.128906 C 122.925781 190.46875 119.886719 194.3125 120.128906 197.179688 C 121.027344 196.601562 121.894531 196.164062 122.175781 194.933594 C 122.441406 193.78125 123.3125 192.773438 124.425781 192.394531 C 125.703125 191.964844 125.796875 191.183594 125.675781 190.128906 Z M 142.59375 172.941406 C 144.476562 171.996094 146.003906 170.980469 147.339844 169.699219 C 147.898438 169.160156 148.429688 168.578125 148.78125 167.863281 C 148.960938 167.492188 149.140625 167.113281 148.671875 166.847656 C 148.246094 166.613281 148.09375 167.003906 147.917969 167.277344 C 146.820312 168.964844 145.34375 170.214844 143.496094 170.992188 C 142.664062 171.339844 142.535156 171.945312 142.59375 172.945312 Z M 126.238281 167.292969 C 126.128906 167.476562 125.988281 167.65625 125.917969 167.855469 C 124.851562 170.996094 125.007812 174.207031 125.375 177.429688 C 125.410156 177.734375 125.574219 177.988281 125.910156 177.90625 C 126.308594 177.808594 126.136719 177.449219 126.109375 177.207031 C 125.757812 173.933594 125.902344 170.667969 126.234375 167.292969 Z M 122.492188 195.5625 C 123.652344 195.132812 124.476562 194.8125 125.304688 194.523438 C 125.710938 194.386719 125.796875 194.117188 125.71875 193.746094 C 125.628906 193.335938 125.808594 192.84375 125.335938 192.453125 C 124.003906 192.949219 123.230469 193.964844 122.492188 195.5625 Z M 133.390625 184.816406 C 133.046875 183.355469 132.046875 182.53125 130.824219 182.714844 C 129.585938 182.898438 128.628906 184.1875 128.765625 185.554688 C 128.917969 187.046875 129.988281 188.007812 130.828125 189.121094 C 131.410156 189.894531 132.21875 189.734375 132.949219 189.824219 C 134.304688 189.992188 135.644531 189.847656 136.792969 189.011719 C 137.40625 188.5625 137.867188 187.988281 137.6875 187.164062 C 137.507812 186.332031 136.816406 186.042969 136.089844 185.867188 C 135.3125 185.679688 134.539062 185.890625 133.703125 186.039062 C 133.378906 185.609375 133.484375 185.195312 133.394531 184.820312 Z M 133.390625 184.816406 " fill-opacity="1" fill-rule="nonzero"/></g><g transform="matrix(1, 0, 0, 1, 24, 171)"><g clip-path="url(#4cb6739b99)"><g fill="#000000" fill-opacity="1"><g transform="translate(1.222246, 22.219587)"><g><path d="M 9.40625 -16.5 C 11.914062 -16.5 13.953125 -15.738281 15.515625 -14.21875 C 17.078125 -12.707031 17.859375 -10.71875 17.859375 -8.25 C 17.859375 -5.78125 17.078125 -3.785156 15.515625 -2.265625 C 13.953125 -0.753906 11.914062 0 9.40625 0 L 1.40625 0 L 1.40625 -0.234375 L 1.71875 -0.234375 C 2.125 -0.234375 2.472656 -0.378906 2.765625 -0.671875 C 3.054688 -0.960938 3.210938 -1.3125 3.234375 -1.71875 L 3.234375 -14.921875 C 3.234375 -15.296875 3.078125 -15.613281 2.765625 -15.875 C 2.460938 -16.132812 2.113281 -16.265625 1.71875 -16.265625 L 1.4375 -16.265625 L 1.40625 -16.5 Z M 4.765625 -15.78125 L 4.765625 -0.703125 L 9.40625 -0.703125 C 10.71875 -0.703125 11.878906 -1.015625 12.890625 -1.640625 C 13.910156 -2.273438 14.695312 -3.160156 15.25 -4.296875 C 15.8125 -5.441406 16.09375 -6.757812 16.09375 -8.25 C 16.09375 -10.507812 15.472656 -12.328125 14.234375 -13.703125 C 13.003906 -15.085938 11.394531 -15.78125 9.40625 -15.78125 Z M 4.765625 -15.78125 "/></g></g></g><g fill="#000000" fill-opacity="1"><g transform="translate(19.764556, 22.219587)"><g><path d="M 1.71875 -0.234375 C 2.125 -0.234375 2.472656 -0.378906 2.765625 -0.671875 C 3.054688 -0.960938 3.210938 -1.3125 3.234375 -1.71875 L 3.234375 -14.921875 C 3.179688 -15.296875 3.015625 -15.613281 2.734375 -15.875 C 2.453125 -16.132812 2.113281 -16.265625 1.71875 -16.265625 L 1.4375 -16.265625 L 1.40625 -16.5 L 8.3125 -16.5 C 8.800781 -16.5 9.332031 -16.546875 9.90625 -16.640625 C 10.476562 -16.734375 10.882812 -16.828125 11.125 -16.921875 L 11.125 -13.953125 L 10.890625 -13.953125 L 10.890625 -14.375 C 10.890625 -14.75 10.757812 -15.066406 10.5 -15.328125 C 10.238281 -15.597656 9.925781 -15.742188 9.5625 -15.765625 L 4.765625 -15.765625 L 4.765625 -8.484375 L 8.734375 -8.484375 C 9.054688 -8.492188 9.328125 -8.609375 9.546875 -8.828125 C 9.765625 -9.054688 9.875 -9.332031 9.875 -9.65625 L 9.875 -9.984375 L 10.109375 -9.984375 L 10.109375 -6.265625 L 9.875 -6.265625 L 9.875 -6.625 C 9.875 -6.9375 9.765625 -7.203125 9.546875 -7.421875 C 9.335938 -7.640625 9.078125 -7.757812 8.765625 -7.78125 L 4.765625 -7.78125 L 4.765625 -0.734375 L 8.125 -0.734375 C 9.289062 -0.734375 10.175781 -0.988281 10.78125 -1.5 C 11.394531 -2.019531 11.910156 -2.789062 12.328125 -3.8125 L 12.5625 -3.8125 L 11.1875 0 L 1.40625 0 L 1.40625 -0.234375 Z M 1.71875 -0.234375 "/></g></g></g><g fill="#000000" fill-opacity="1"><g transform="translate(33.12353, 22.219587)"><g><path d="M 18.328125 -16.265625 C 17.941406 -16.265625 17.601562 -16.125 17.3125 -15.84375 C 17.03125 -15.570312 16.882812 -15.238281 16.875 -14.84375 L 16.875 -2.6875 C 16.875 -1.769531 16.925781 -0.90625 17.03125 -0.09375 L 17.078125 0.328125 L 16.875 0.328125 L 4.03125 -13.390625 L 4.03125 -1.65625 C 4.039062 -1.101562 4.285156 -0.691406 4.765625 -0.421875 C 4.984375 -0.296875 5.21875 -0.234375 5.46875 -0.234375 L 5.921875 -0.234375 L 5.921875 0 L 1.0625 0 L 1.0625 -0.234375 L 1.515625 -0.234375 C 1.898438 -0.234375 2.234375 -0.367188 2.515625 -0.640625 C 2.796875 -0.921875 2.9375 -1.265625 2.9375 -1.671875 L 2.9375 -13.90625 C 2.9375 -14.863281 2.882812 -15.71875 2.78125 -16.46875 L 2.734375 -16.84375 L 2.96875 -16.84375 L 15.8125 -3.140625 L 15.8125 -14.828125 C 15.789062 -15.234375 15.640625 -15.570312 15.359375 -15.84375 C 15.078125 -16.125 14.738281 -16.265625 14.34375 -16.265625 L 13.90625 -16.265625 L 13.90625 -16.5 L 18.75 -16.5 L 18.75 -16.265625 Z M 18.328125 -16.265625 "/></g></g></g><g fill="#000000" fill-opacity="1"><g transform="translate(52.702565, 22.219587)"><g><path d="M 1.71875 -0.234375 C 2.125 -0.234375 2.472656 -0.378906 2.765625 -0.671875 C 3.054688 -0.960938 3.210938 -1.3125 3.234375 -1.71875 L 3.234375 -14.796875 C 3.210938 -15.203125 3.054688 -15.546875 2.765625 -15.828125 C 2.472656 -16.117188 2.125 -16.265625 1.71875 -16.265625 L 1.40625 -16.265625 L 1.40625 -16.5 L 6.578125 -16.5 L 6.578125 -16.265625 L 6.265625 -16.265625 C 5.859375 -16.265625 5.507812 -16.117188 5.21875 -15.828125 C 4.925781 -15.546875 4.773438 -15.203125 4.765625 -14.796875 L 4.765625 -1.71875 C 4.765625 -1.3125 4.910156 -0.960938 5.203125 -0.671875 C 5.503906 -0.378906 5.859375 -0.234375 6.265625 -0.234375 L 6.578125 -0.234375 L 6.578125 0 L 1.40625 0 L 1.40625 -0.234375 Z M 1.71875 -0.234375 "/></g></g></g><g fill="#000000" fill-opacity="1"><g transform="translate(60.666127, 22.219587)"><g><path d="M 1.4375 -0.96875 C 1.382812 -1.1875 1.359375 -1.609375 1.359375 -2.234375 C 1.359375 -2.867188 1.476562 -3.535156 1.71875 -4.234375 L 1.9375 -4.234375 C 1.914062 -4.066406 1.90625 -3.894531 1.90625 -3.71875 C 1.90625 -2.757812 2.195312 -1.960938 2.78125 -1.328125 C 3.363281 -0.691406 4.132812 -0.375 5.09375 -0.375 C 6.082031 -0.375 6.894531 -0.671875 7.53125 -1.265625 C 8.164062 -1.867188 8.484375 -2.617188 8.484375 -3.515625 C 8.484375 -4.421875 8.175781 -5.15625 7.5625 -5.71875 L 3.046875 -9.921875 C 2.191406 -10.703125 1.765625 -11.648438 1.765625 -12.765625 C 1.765625 -13.878906 2.132812 -14.832031 2.875 -15.625 C 3.625 -16.425781 4.640625 -16.828125 5.921875 -16.828125 C 6.515625 -16.828125 7.1875 -16.75 7.9375 -16.59375 L 8.859375 -16.59375 L 8.859375 -13.6875 L 8.640625 -13.6875 C 8.640625 -14.425781 8.382812 -15.015625 7.875 -15.453125 C 7.363281 -15.890625 6.707031 -16.109375 5.90625 -16.109375 C 5.113281 -16.109375 4.445312 -15.84375 3.90625 -15.3125 C 3.363281 -14.78125 3.09375 -14.113281 3.09375 -13.3125 C 3.09375 -12.507812 3.40625 -11.816406 4.03125 -11.234375 L 8.671875 -6.953125 C 9.453125 -6.222656 9.84375 -5.226562 9.84375 -3.96875 C 9.84375 -2.71875 9.441406 -1.6875 8.640625 -0.875 C 7.847656 -0.0703125 6.78125 0.328125 5.4375 0.328125 C 4.75 0.328125 4.015625 0.21875 3.234375 0 C 2.460938 -0.207031 1.863281 -0.53125 1.4375 -0.96875 Z M 1.4375 -0.96875 "/></g></g></g><g fill="#000000" fill-opacity="1"><g transform="translate(71.85754, 22.219587)"><g><path d="M 1.71875 -0.234375 C 2.125 -0.234375 2.472656 -0.378906 2.765625 -0.671875 C 3.054688 -0.960938 3.210938 -1.3125 3.234375 -1.71875 L 3.234375 -14.921875 C 3.179688 -15.296875 3.015625 -15.613281 2.734375 -15.875 C 2.453125 -16.132812 2.113281 -16.265625 1.71875 -16.265625 L 1.4375 -16.265625 L 1.40625 -16.5 L 8.3125 -16.5 C 8.800781 -16.5 9.332031 -16.546875 9.90625 -16.640625 C 10.476562 -16.734375 10.882812 -16.828125 11.125 -16.921875 L 11.125 -13.953125 L 10.890625 -13.953125 L 10.890625 -14.375 C 10.890625 -14.75 10.757812 -15.066406 10.5 -15.328125 C 10.238281 -15.597656 9.925781 -15.742188 9.5625 -15.765625 L 4.765625 -15.765625 L 4.765625 -8.484375 L 8.734375 -8.484375 C 9.054688 -8.492188 9.328125 -8.609375 9.546875 -8.828125 C 9.765625 -9.054688 9.875 -9.332031 9.875 -9.65625 L 9.875 -9.984375 L 10.109375 -9.984375 L 10.109375 -6.265625 L 9.875 -6.265625 L 9.875 -6.625 C 9.875 -6.9375 9.765625 -7.203125 9.546875 -7.421875 C 9.335938 -7.640625 9.078125 -7.757812 8.765625 -7.78125 L 4.765625 -7.78125 L 4.765625 -0.734375 L 8.125 -0.734375 C 9.289062 -0.734375 10.175781 -0.988281 10.78125 -1.5 C 11.394531 -2.019531 11.910156 -2.789062 12.328125 -3.8125 L 12.5625 -3.8125 L 11.1875 0 L 1.40625 0 L 1.40625 -0.234375 Z M 1.71875 -0.234375 "/></g></g></g><g fill="#000000" fill-opacity="1"><g transform="translate(85.456539, 22.219587)"><g/></g></g><g fill="#000000" fill-opacity="1"><g transform="translate(91.346749, 22.219587)"><g/></g></g><g fill="#000000" fill-opacity="1"><g transform="translate(97.236959, 22.219587)"><g/></g></g><g fill="#000000" fill-opacity="1"><g transform="translate(103.127168, 22.219587)"><g/></g></g><g fill="#000000" fill-opacity="1"><g transform="translate(109.017378, 22.219587)"><g/></g></g><g fill="#000000" fill-opacity="1"><g transform="translate(114.907588, 22.219587)"><g/></g></g><g fill="#000000" fill-opacity="1"><g transform="translate(120.797797, 22.219587)"><g/></g></g><g fill="#000000" fill-opacity="1"><g transform="translate(126.688007, 22.219587)"><g/></g></g><g fill="#000000" fill-opacity="1"><g transform="translate(132.578344, 22.219587)"><g><path d="M 6.265625 -0.234375 L 6.578125 -0.234375 L 6.578125 0 L 1.40625 0 L 1.40625 -0.234375 L 1.71875 -0.234375 C 2.125 -0.234375 2.472656 -0.378906 2.765625 -0.671875 C 3.054688 -0.960938 3.210938 -1.3125 3.234375 -1.71875 L 3.234375 -14.796875 C 3.210938 -15.203125 3.054688 -15.546875 2.765625 -15.828125 C 2.472656 -16.117188 2.125 -16.265625 1.71875 -16.265625 L 1.40625 -16.265625 L 1.40625 -16.5 L 6.578125 -16.5 L 6.578125 -16.265625 L 6.265625 -16.265625 C 5.859375 -16.265625 5.507812 -16.117188 5.21875 -15.828125 C 4.925781 -15.546875 4.773438 -15.203125 4.765625 -14.796875 L 4.765625 -1.71875 C 4.765625 -1.3125 4.910156 -0.960938 5.203125 -0.671875 C 5.503906 -0.378906 5.859375 -0.234375 6.265625 -0.234375 Z M 15.734375 0 L 14.71875 0 C 13.125 0 11.945312 -0.445312 11.1875 -1.34375 L 5.515625 -8.203125 L 11.078125 -15.171875 C 11.203125 -15.328125 11.265625 -15.46875 11.265625 -15.59375 C 11.265625 -15.71875 11.238281 -15.828125 11.1875 -15.921875 C 11.0625 -16.160156 10.835938 -16.28125 10.515625 -16.28125 L 10.265625 -16.28125 L 10.265625 -16.5 L 15.25 -16.5 L 15.25 -16.28125 L 15.15625 -16.28125 C 14.113281 -16.28125 13.265625 -15.910156 12.609375 -15.171875 L 7.0625 -8.765625 L 13.5 -1.203125 C 14.125 -0.578125 14.867188 -0.253906 15.734375 -0.234375 Z M 15.734375 0 "/></g></g></g><g fill="#000000" fill-opacity="1"><g transform="translate(148.057832, 22.219587)"><g><path d="M 18.328125 -16.265625 C 17.941406 -16.265625 17.601562 -16.125 17.3125 -15.84375 C 17.03125 -15.570312 16.882812 -15.238281 16.875 -14.84375 L 16.875 -2.6875 C 16.875 -1.769531 16.925781 -0.90625 17.03125 -0.09375 L 17.078125 0.328125 L 16.875 0.328125 L 4.03125 -13.390625 L 4.03125 -1.65625 C 4.039062 -1.101562 4.285156 -0.691406 4.765625 -0.421875 C 4.984375 -0.296875 5.21875 -0.234375 5.46875 -0.234375 L 5.921875 -0.234375 L 5.921875 0 L 1.0625 0 L 1.0625 -0.234375 L 1.515625 -0.234375 C 1.898438 -0.234375 2.234375 -0.367188 2.515625 -0.640625 C 2.796875 -0.921875 2.9375 -1.265625 2.9375 -1.671875 L 2.9375 -13.90625 C 2.9375 -14.863281 2.882812 -15.71875 2.78125 -16.46875 L 2.734375 -16.84375 L 2.96875 -16.84375 L 15.8125 -3.140625 L 15.8125 -14.828125 C 15.789062 -15.234375 15.640625 -15.570312 15.359375 -15.84375 C 15.078125 -16.125 14.738281 -16.265625 14.34375 -16.265625 L 13.90625 -16.265625 L 13.90625 -16.5 L 18.75 -16.5 L 18.75 -16.265625 Z M 18.328125 -16.265625 "/></g></g></g><g fill="#000000" fill-opacity="1"><g transform="translate(167.636866, 22.219587)"><g><path d="M 1.71875 -0.234375 C 2.125 -0.234375 2.472656 -0.378906 2.765625 -0.671875 C 3.054688 -0.960938 3.210938 -1.3125 3.234375 -1.71875 L 3.234375 -14.796875 C 3.210938 -15.203125 3.054688 -15.546875 2.765625 -15.828125 C 2.472656 -16.117188 2.125 -16.265625 1.71875 -16.265625 L 1.40625 -16.265625 L 1.40625 -16.5 L 6.578125 -16.5 L 6.578125 -16.265625 L 6.265625 -16.265625 C 5.859375 -16.265625 5.507812 -16.117188 5.21875 -15.828125 C 4.925781 -15.546875 4.773438 -15.203125 4.765625 -14.796875 L 4.765625 -1.71875 C 4.765625 -1.3125 4.910156 -0.960938 5.203125 -0.671875 C 5.503906 -0.378906 5.859375 -0.234375 6.265625 -0.234375 L 6.578125 -0.234375 L 6.578125 0 L 1.40625 0 L 1.40625 -0.234375 Z M 1.71875 -0.234375 "/></g></g></g><g fill="#000000" fill-opacity="1"><g transform="translate(175.600429, 22.219587)"><g><path d="M 13.875 -14.390625 C 13.875 -14.773438 13.738281 -15.101562 13.46875 -15.375 C 13.207031 -15.644531 12.894531 -15.789062 12.53125 -15.8125 L 8.0625 -15.8125 L 8.0625 -1.703125 C 8.070312 -1.285156 8.222656 -0.9375 8.515625 -0.65625 C 8.804688 -0.375 9.15625 -0.234375 9.5625 -0.234375 L 9.875 -0.234375 L 9.875 0 L 4.71875 0 L 4.71875 -0.234375 L 5.015625 -0.234375 C 5.421875 -0.234375 5.769531 -0.375 6.0625 -0.65625 C 6.351562 -0.9375 6.507812 -1.273438 6.53125 -1.671875 L 6.53125 -15.8125 L 2.046875 -15.8125 C 1.671875 -15.789062 1.351562 -15.644531 1.09375 -15.375 C 0.832031 -15.101562 0.703125 -14.773438 0.703125 -14.390625 L 0.703125 -14 L 0.46875 -13.96875 L 0.46875 -16.9375 C 0.707031 -16.84375 1.113281 -16.75 1.6875 -16.65625 C 2.269531 -16.5625 2.804688 -16.515625 3.296875 -16.515625 L 11.265625 -16.515625 C 12.035156 -16.515625 12.675781 -16.570312 13.1875 -16.6875 C 13.695312 -16.8125 14.003906 -16.894531 14.109375 -16.9375 L 14.109375 -13.96875 L 13.875 -14 Z M 13.875 -14.390625 "/></g></g></g><g fill="#000000" fill-opacity="1"><g transform="translate(190.161028, 22.219587)"><g/></g></g><g fill="#000000" fill-opacity="1"><g transform="translate(196.051238, 22.219587)"><g><path d="M 16.875 -0.234375 L 17.0625 -0.234375 L 17.0625 0 L 11.765625 0 L 11.765625 -0.234375 L 11.984375 -0.234375 C 12.304688 -0.234375 12.550781 -0.335938 12.71875 -0.546875 C 12.882812 -0.765625 12.96875 -0.96875 12.96875 -1.15625 C 12.96875 -1.34375 12.9375 -1.53125 12.875 -1.71875 L 11.359375 -5.71875 L 5 -5.71875 L 3.421875 -1.703125 C 3.359375 -1.503906 3.328125 -1.316406 3.328125 -1.140625 C 3.328125 -0.960938 3.410156 -0.765625 3.578125 -0.546875 C 3.742188 -0.335938 3.988281 -0.234375 4.3125 -0.234375 L 4.53125 -0.234375 L 4.53125 0 L -0.203125 0 L -0.203125 -0.234375 L 0 -0.234375 C 0.394531 -0.234375 0.78125 -0.359375 1.15625 -0.609375 C 1.539062 -0.859375 1.847656 -1.226562 2.078125 -1.71875 L 7.40625 -14.390625 C 7.988281 -15.671875 8.28125 -16.484375 8.28125 -16.828125 L 8.484375 -16.828125 L 14.8125 -1.71875 C 15.03125 -1.226562 15.328125 -0.859375 15.703125 -0.609375 C 16.078125 -0.359375 16.46875 -0.234375 16.875 -0.234375 Z M 5.28125 -6.4375 L 11.078125 -6.4375 L 8.25 -14 Z M 5.28125 -6.4375 "/></g></g></g><g fill="#000000" fill-opacity="1"><g transform="translate(212.826559, 22.219587)"><g><path d="M 6.265625 -15.765625 L 4.765625 -15.765625 L 4.765625 -1.71875 C 4.765625 -1.3125 4.90625 -0.960938 5.1875 -0.671875 C 5.476562 -0.378906 5.835938 -0.234375 6.265625 -0.234375 L 6.546875 -0.234375 L 6.578125 0 L 1.40625 0 L 1.40625 -0.234375 L 1.71875 -0.234375 C 2.125 -0.234375 2.472656 -0.375 2.765625 -0.65625 C 3.054688 -0.9375 3.210938 -1.285156 3.234375 -1.703125 L 3.234375 -14.78125 C 3.210938 -15.1875 3.054688 -15.535156 2.765625 -15.828125 C 2.472656 -16.117188 2.125 -16.265625 1.71875 -16.265625 L 1.40625 -16.265625 L 1.40625 -16.5 L 7.78125 -16.5 C 9.207031 -16.5 10.328125 -16.097656 11.140625 -15.296875 C 11.960938 -14.503906 12.375 -13.476562 12.375 -12.21875 C 12.375 -10.957031 11.984375 -9.863281 11.203125 -8.9375 C 10.421875 -8.019531 9.472656 -7.5625 8.359375 -7.5625 C 8.597656 -7.457031 8.878906 -7.242188 9.203125 -6.921875 C 9.523438 -6.597656 9.8125 -6.265625 10.0625 -5.921875 C 11.414062 -3.984375 12.296875 -2.789062 12.703125 -2.34375 C 13.109375 -1.894531 13.394531 -1.585938 13.5625 -1.421875 C 13.738281 -1.253906 13.925781 -1.09375 14.125 -0.9375 C 14.332031 -0.78125 14.539062 -0.65625 14.75 -0.5625 C 15.207031 -0.34375 15.695312 -0.234375 16.21875 -0.234375 L 16.21875 0 L 14.921875 0 C 14.242188 0 13.613281 -0.117188 13.03125 -0.359375 C 12.445312 -0.609375 12.007812 -0.863281 11.71875 -1.125 C 11.425781 -1.382812 11.175781 -1.632812 10.96875 -1.875 C 10.757812 -2.113281 10.175781 -2.925781 9.21875 -4.3125 C 8.257812 -5.695312 7.695312 -6.484375 7.53125 -6.671875 C 7.375 -6.867188 7.210938 -7.0625 7.046875 -7.25 C 6.546875 -7.789062 6.039062 -8.0625 5.53125 -8.0625 L 5.53125 -8.296875 C 5.65625 -8.273438 5.820312 -8.265625 6.03125 -8.265625 C 6.238281 -8.265625 6.488281 -8.273438 6.78125 -8.296875 C 8.726562 -8.335938 9.957031 -9.15625 10.46875 -10.75 C 10.5625 -11.0625 10.609375 -11.351562 10.609375 -11.625 C 10.609375 -11.90625 10.609375 -12.082031 10.609375 -12.15625 C 10.578125 -13.207031 10.300781 -14.054688 9.78125 -14.703125 C 9.257812 -15.347656 8.5625 -15.691406 7.6875 -15.734375 C 7.300781 -15.753906 6.828125 -15.765625 6.265625 -15.765625 Z M 6.265625 -15.765625 "/></g></g></g><g fill="#000000" fill-opacity="1"><g transform="translate(227.481193, 22.219587)"><g><path d="M 13.875 -14.390625 C 13.875 -14.773438 13.738281 -15.101562 13.46875 -15.375 C 13.207031 -15.644531 12.894531 -15.789062 12.53125 -15.8125 L 8.0625 -15.8125 L 8.0625 -1.703125 C 8.070312 -1.285156 8.222656 -0.9375 8.515625 -0.65625 C 8.804688 -0.375 9.15625 -0.234375 9.5625 -0.234375 L 9.875 -0.234375 L 9.875 0 L 4.71875 0 L 4.71875 -0.234375 L 5.015625 -0.234375 C 5.421875 -0.234375 5.769531 -0.375 6.0625 -0.65625 C 6.351562 -0.9375 6.507812 -1.273438 6.53125 -1.671875 L 6.53125 -15.8125 L 2.046875 -15.8125 C 1.671875 -15.789062 1.351562 -15.644531 1.09375 -15.375 C 0.832031 -15.101562 0.703125 -14.773438 0.703125 -14.390625 L 0.703125 -14 L 0.46875 -13.96875 L 0.46875 -16.9375 C 0.707031 -16.84375 1.113281 -16.75 1.6875 -16.65625 C 2.269531 -16.5625 2.804688 -16.515625 3.296875 -16.515625 L 11.265625 -16.515625 C 12.035156 -16.515625 12.675781 -16.570312 13.1875 -16.6875 C 13.695312 -16.8125 14.003906 -16.894531 14.109375 -16.9375 L 14.109375 -13.96875 L 13.875 -14 Z M 13.875 -14.390625 "/></g></g></g><g fill="#000000" fill-opacity="1"><g transform="translate(242.041792, 22.219587)"><g><path d="M 23.40625 -16.265625 L 23.21875 -16.265625 C 22.632812 -16.265625 22.125 -16.050781 21.6875 -15.625 C 21.4375 -15.40625 21.253906 -15.128906 21.140625 -14.796875 L 17.234375 -2.328125 C 16.921875 -1.335938 16.75 -0.46875 16.71875 0.28125 L 16.5 0.28125 L 11.6875 -13.1875 L 8.109375 -2.328125 C 7.816406 -1.359375 7.65625 -0.488281 7.625 0.28125 L 7.40625 0.28125 L 2.0625 -14.828125 C 1.875 -15.296875 1.582031 -15.648438 1.1875 -15.890625 C 0.789062 -16.140625 0.390625 -16.265625 -0.015625 -16.265625 L -0.203125 -16.265625 L -0.203125 -16.5 L 5.03125 -16.5 L 5.03125 -16.265625 L 4.8125 -16.265625 C 4.476562 -16.265625 4.226562 -16.15625 4.0625 -15.9375 C 3.90625 -15.726562 3.828125 -15.53125 3.828125 -15.34375 C 3.828125 -15.15625 3.847656 -14.984375 3.890625 -14.828125 L 7.484375 -3.34375 L 11.859375 -16.875 L 12.078125 -16.84375 L 16.71875 -3.8125 L 19.875 -14.84375 C 19.914062 -15.019531 19.9375 -15.195312 19.9375 -15.375 C 19.9375 -15.550781 19.859375 -15.742188 19.703125 -15.953125 C 19.546875 -16.160156 19.300781 -16.265625 18.96875 -16.265625 L 18.765625 -16.265625 L 18.765625 -16.5 L 23.40625 -16.5 Z M 23.40625 -16.265625 "/></g></g></g><g fill="#000000" fill-opacity="1"><g transform="translate(264.589439, 22.219587)"><g><path d="M 4 -14.453125 C 5.5625 -16.035156 7.597656 -16.828125 10.109375 -16.828125 C 12.617188 -16.828125 14.660156 -16.035156 16.234375 -14.453125 C 17.804688 -12.878906 18.59375 -10.8125 18.59375 -8.25 C 18.59375 -5.6875 17.804688 -3.613281 16.234375 -2.03125 C 14.660156 -0.457031 12.617188 0.328125 10.109375 0.328125 C 7.597656 0.328125 5.5625 -0.457031 4 -2.03125 C 2.4375 -3.613281 1.65625 -5.6875 1.65625 -8.25 C 1.65625 -10.8125 2.4375 -12.878906 4 -14.453125 Z M 5.28125 -2.546875 C 6.5 -1.097656 8.109375 -0.375 10.109375 -0.375 C 12.117188 -0.375 13.734375 -1.097656 14.953125 -2.546875 C 16.171875 -3.992188 16.78125 -5.894531 16.78125 -8.25 C 16.78125 -9.800781 16.503906 -11.171875 15.953125 -12.359375 C 15.398438 -13.554688 14.617188 -14.476562 13.609375 -15.125 C 12.597656 -15.78125 11.429688 -16.109375 10.109375 -16.109375 C 8.109375 -16.109375 6.5 -15.382812 5.28125 -13.9375 C 4.070312 -12.5 3.46875 -10.601562 3.46875 -8.25 C 3.46875 -5.894531 4.070312 -3.992188 5.28125 -2.546875 Z M 5.28125 -2.546875 "/></g></g></g><g fill="#000000" fill-opacity="1"><g transform="translate(283.862141, 22.219587)"><g><path d="M 6.265625 -15.765625 L 4.765625 -15.765625 L 4.765625 -1.71875 C 4.765625 -1.3125 4.90625 -0.960938 5.1875 -0.671875 C 5.476562 -0.378906 5.835938 -0.234375 6.265625 -0.234375 L 6.546875 -0.234375 L 6.578125 0 L 1.40625 0 L 1.40625 -0.234375 L 1.71875 -0.234375 C 2.125 -0.234375 2.472656 -0.375 2.765625 -0.65625 C 3.054688 -0.9375 3.210938 -1.285156 3.234375 -1.703125 L 3.234375 -14.78125 C 3.210938 -15.1875 3.054688 -15.535156 2.765625 -15.828125 C 2.472656 -16.117188 2.125 -16.265625 1.71875 -16.265625 L 1.40625 -16.265625 L 1.40625 -16.5 L 7.78125 -16.5 C 9.207031 -16.5 10.328125 -16.097656 11.140625 -15.296875 C 11.960938 -14.503906 12.375 -13.476562 12.375 -12.21875 C 12.375 -10.957031 11.984375 -9.863281 11.203125 -8.9375 C 10.421875 -8.019531 9.472656 -7.5625 8.359375 -7.5625 C 8.597656 -7.457031 8.878906 -7.242188 9.203125 -6.921875 C 9.523438 -6.597656 9.8125 -6.265625 10.0625 -5.921875 C 11.414062 -3.984375 12.296875 -2.789062 12.703125 -2.34375 C 13.109375 -1.894531 13.394531 -1.585938 13.5625 -1.421875 C 13.738281 -1.253906 13.925781 -1.09375 14.125 -0.9375 C 14.332031 -0.78125 14.539062 -0.65625 14.75 -0.5625 C 15.207031 -0.34375 15.695312 -0.234375 16.21875 -0.234375 L 16.21875 0 L 14.921875 0 C 14.242188 0 13.613281 -0.117188 13.03125 -0.359375 C 12.445312 -0.609375 12.007812 -0.863281 11.71875 -1.125 C 11.425781 -1.382812 11.175781 -1.632812 10.96875 -1.875 C 10.757812 -2.113281 10.175781 -2.925781 9.21875 -4.3125 C 8.257812 -5.695312 7.695312 -6.484375 7.53125 -6.671875 C 7.375 -6.867188 7.210938 -7.0625 7.046875 -7.25 C 6.546875 -7.789062 6.039062 -8.0625 5.53125 -8.0625 L 5.53125 -8.296875 C 5.65625 -8.273438 5.820312 -8.265625 6.03125 -8.265625 C 6.238281 -8.265625 6.488281 -8.273438 6.78125 -8.296875 C 8.726562 -8.335938 9.957031 -9.15625 10.46875 -10.75 C 10.5625 -11.0625 10.609375 -11.351562 10.609375 -11.625 C 10.609375 -11.90625 10.609375 -12.082031 10.609375 -12.15625 C 10.578125 -13.207031 10.300781 -14.054688 9.78125 -14.703125 C 9.257812 -15.347656 8.5625 -15.691406 7.6875 -15.734375 C 7.300781 -15.753906 6.828125 -15.765625 6.265625 -15.765625 Z M 6.265625 -15.765625 "/></g></g></g><g fill="#000000" fill-opacity="1"><g transform="translate(299.105892, 22.219587)"><g><path d="M 6.265625 -0.234375 L 6.578125 -0.234375 L 6.578125 0 L 1.40625 0 L 1.40625 -0.234375 L 1.71875 -0.234375 C 2.125 -0.234375 2.472656 -0.378906 2.765625 -0.671875 C 3.054688 -0.960938 3.210938 -1.3125 3.234375 -1.71875 L 3.234375 -14.796875 C 3.210938 -15.203125 3.054688 -15.546875 2.765625 -15.828125 C 2.472656 -16.117188 2.125 -16.265625 1.71875 -16.265625 L 1.40625 -16.265625 L 1.40625 -16.5 L 6.578125 -16.5 L 6.578125 -16.265625 L 6.265625 -16.265625 C 5.859375 -16.265625 5.507812 -16.117188 5.21875 -15.828125 C 4.925781 -15.546875 4.773438 -15.203125 4.765625 -14.796875 L 4.765625 -1.71875 C 4.765625 -1.3125 4.910156 -0.960938 5.203125 -0.671875 C 5.503906 -0.378906 5.859375 -0.234375 6.265625 -0.234375 Z M 15.734375 0 L 14.71875 0 C 13.125 0 11.945312 -0.445312 11.1875 -1.34375 L 5.515625 -8.203125 L 11.078125 -15.171875 C 11.203125 -15.328125 11.265625 -15.46875 11.265625 -15.59375 C 11.265625 -15.71875 11.238281 -15.828125 11.1875 -15.921875 C 11.0625 -16.160156 10.835938 -16.28125 10.515625 -16.28125 L 10.265625 -16.28125 L 10.265625 -16.5 L 15.25 -16.5 L 15.25 -16.28125 L 15.15625 -16.28125 C 14.113281 -16.28125 13.265625 -15.910156 12.609375 -15.171875 L 7.0625 -8.765625 L 13.5 -1.203125 C 14.125 -0.578125 14.867188 -0.253906 15.734375 -0.234375 Z M 15.734375 0 "/></g></g></g><g fill="#000000" fill-opacity="1"><g transform="translate(314.58538, 22.219587)"><g><path d="M 1.4375 -0.96875 C 1.382812 -1.1875 1.359375 -1.609375 1.359375 -2.234375 C 1.359375 -2.867188 1.476562 -3.535156 1.71875 -4.234375 L 1.9375 -4.234375 C 1.914062 -4.066406 1.90625 -3.894531 1.90625 -3.71875 C 1.90625 -2.757812 2.195312 -1.960938 2.78125 -1.328125 C 3.363281 -0.691406 4.132812 -0.375 5.09375 -0.375 C 6.082031 -0.375 6.894531 -0.671875 7.53125 -1.265625 C 8.164062 -1.867188 8.484375 -2.617188 8.484375 -3.515625 C 8.484375 -4.421875 8.175781 -5.15625 7.5625 -5.71875 L 3.046875 -9.921875 C 2.191406 -10.703125 1.765625 -11.648438 1.765625 -12.765625 C 1.765625 -13.878906 2.132812 -14.832031 2.875 -15.625 C 3.625 -16.425781 4.640625 -16.828125 5.921875 -16.828125 C 6.515625 -16.828125 7.1875 -16.75 7.9375 -16.59375 L 8.859375 -16.59375 L 8.859375 -13.6875 L 8.640625 -13.6875 C 8.640625 -14.425781 8.382812 -15.015625 7.875 -15.453125 C 7.363281 -15.890625 6.707031 -16.109375 5.90625 -16.109375 C 5.113281 -16.109375 4.445312 -15.84375 3.90625 -15.3125 C 3.363281 -14.78125 3.09375 -14.113281 3.09375 -13.3125 C 3.09375 -12.507812 3.40625 -11.816406 4.03125 -11.234375 L 8.671875 -6.953125 C 9.453125 -6.222656 9.84375 -5.226562 9.84375 -3.96875 C 9.84375 -2.71875 9.441406 -1.6875 8.640625 -0.875 C 7.847656 -0.0703125 6.78125 0.328125 5.4375 0.328125 C 4.75 0.328125 4.015625 0.21875 3.234375 0 C 2.460938 -0.207031 1.863281 -0.53125 1.4375 -0.96875 Z M 1.4375 -0.96875 "/></g></g></g></g></g></svg>