<svg xmlns="http://www.w3.org/2000/svg" xmlns:xlink="http://www.w3.org/1999/xlink" width="500" zoomAndPan="magnify" viewBox="0 0 375 374.999991" height="500" preserveAspectRatio="xMidYMid meet" version="1.0"><defs><g/><clipPath id="980aae5af8"><path d="M 110 159 L 155 159 L 155 215.980469 L 110 215.980469 Z M 110 159 " clip-rule="nonzero"/></clipPath><clipPath id="8f027a962d"><rect x="0" width="327" y="0" height="32"/></clipPath></defs><g clip-path="url(#980aae5af8)"><path fill="#000000" d="M 144.90625 187.296875 C 145.277344 190.578125 144.195312 193.371094 142.132812 195.800781 C 141.679688 196.335938 141.535156 196.730469 141.671875 197.40625 C 142.179688 199.886719 142.238281 202.390625 141.910156 204.902344 C 141.035156 211.613281 135.5 215.972656 128.796875 215.09375 C 122.960938 214.332031 117.835938 212.042969 113.976562 207.449219 C 111.414062 204.398438 109.945312 200.898438 110.367188 196.804688 C 110.621094 194.339844 111.652344 192.199219 113.273438 190.339844 C 114.902344 188.472656 116.773438 186.898438 118.996094 185.78125 C 119.609375 185.46875 119.960938 185.101562 120.191406 184.359375 C 120.898438 182.101562 122.164062 180.109375 123.796875 178.394531 C 124.390625 177.773438 124.578125 177.238281 124.429688 176.359375 C 123.871094 173.066406 123.996094 169.800781 125.238281 166.640625 C 127.550781 160.773438 131.625 158.980469 136.34375 159.390625 C 139.640625 159.675781 142.621094 160.785156 145.382812 162.609375 C 147.347656 163.902344 149.261719 165.234375 150.941406 166.882812 C 154.894531 170.753906 155.570312 175.480469 152.855469 180.300781 C 151.011719 183.574219 148.4375 186.023438 144.902344 187.292969 Z M 134.941406 183.050781 C 134.976562 182.980469 135.007812 182.910156 135.046875 182.839844 C 134.242188 182.449219 133.4375 182.0625 132.640625 181.664062 C 130.445312 180.558594 128.195312 179.585938 125.871094 178.785156 C 125.109375 178.523438 124.613281 178.675781 124.148438 179.273438 C 123.019531 180.730469 122 182.253906 121.121094 183.878906 C 120.679688 184.703125 120.863281 185.199219 121.566406 185.660156 C 122.492188 186.277344 123.425781 186.902344 124.300781 187.566406 C 128.117188 190.453125 132.40625 192.453125 136.699219 194.457031 C 137.707031 194.925781 138.769531 195.273438 139.84375 195.59375 C 140.777344 195.875 141.34375 195.589844 141.792969 194.832031 C 142.742188 193.25 143.667969 191.632812 143.898438 189.769531 C 144.164062 187.605469 144.496094 187.898438 142.445312 186.753906 C 140.011719 185.394531 137.453125 184.273438 134.949219 183.050781 Z M 127.097656 199.796875 C 126.964844 199.777344 126.90625 199.75 126.863281 199.765625 C 122.523438 201.550781 119.804688 204.859375 118.085938 209.109375 C 117.753906 209.925781 118.367188 210.222656 118.925781 210.460938 C 119.394531 210.660156 119.917969 210.523438 120.414062 210.453125 C 123.972656 209.957031 126.875 208.125 129.566406 205.886719 C 129.894531 205.613281 130.128906 205.304688 129.816406 204.894531 C 128.628906 203.332031 127.925781 201.5 127.097656 199.796875 Z M 114.304688 203.199219 C 114.195312 203.234375 114.089844 203.273438 113.980469 203.308594 C 113.371094 202.054688 113.039062 200.726562 113.132812 199.324219 C 113.5 193.929688 115.730469 189.589844 120.429688 186.679688 C 120.644531 186.546875 121.15625 186.542969 120.832031 185.953125 C 118.679688 187.050781 116.722656 188.394531 115.042969 190.121094 C 111.078125 194.191406 110.371094 199.269531 113.082031 204.246094 C 113.242188 204.546875 113.285156 205.03125 113.894531 204.984375 C 114.3125 203.59375 115.175781 202.417969 116.050781 201.277344 C 116.5 200.691406 116.613281 200.21875 116.492188 199.476562 C 116.035156 196.722656 116.730469 194.183594 118.171875 191.816406 C 119.296875 189.960938 120.902344 188.652344 122.835938 187.691406 C 121.765625 186.597656 121.757812 186.582031 120.722656 187.179688 C 120.242188 187.457031 119.773438 187.769531 119.355469 188.132812 C 115.40625 191.550781 113.722656 195.90625 114.0625 201.078125 C 114.109375 201.789062 114.222656 202.492188 114.304688 203.199219 Z M 138.464844 166.347656 C 138.199219 166.382812 138.023438 166.371094 137.882812 166.433594 C 135.285156 167.539062 133.0625 169.171875 131.015625 171.09375 C 130.597656 171.480469 130.492188 171.914062 130.425781 172.410156 C 130.125 174.570312 130.195312 176.738281 130.378906 178.902344 C 130.410156 179.28125 130.390625 179.707031 130.882812 179.851562 C 131.304688 179.972656 131.46875 179.605469 131.679688 179.378906 C 133.921875 176.964844 135.984375 174.421875 137.238281 171.332031 C 137.878906 169.753906 138.382812 168.132812 138.460938 166.351562 Z M 122.863281 212.464844 C 124.433594 213.414062 125.75 213.480469 127.214844 212.828125 C 129.726562 211.707031 132.121094 210.417969 134.277344 208.710938 C 136.804688 206.707031 138.84375 204.328125 140.152344 201.332031 C 140.769531 199.917969 140.800781 198.554688 140.46875 197.097656 C 140.328125 196.496094 140.035156 196.234375 139.460938 196.199219 C 138.738281 196.15625 138.90625 196.742188 138.804688 197.128906 C 137.207031 203.136719 133.574219 207.5 128.101562 210.367188 C 126.523438 211.199219 124.859375 211.832031 122.863281 212.460938 Z M 126.71875 213.722656 C 131.230469 214.789062 134.949219 214.136719 137.953125 210.925781 C 140.222656 208.496094 141.003906 205.558594 140.714844 202.3125 C 137.714844 207.988281 132.8125 211.292969 126.71875 213.722656 Z M 150.582031 169.683594 C 150.816406 170.621094 150.429688 171.03125 150.078125 171.449219 C 148.042969 173.84375 145.386719 175.195312 142.371094 175.816406 C 141.410156 176.011719 141.074219 176.414062 141.007812 177.316406 C 141.226562 177.367188 141.386719 177.445312 141.53125 177.429688 C 144.847656 177.035156 147.773438 175.777344 150.140625 173.382812 C 152.429688 171.066406 152.339844 170.054688 149.777344 167.9375 C 149.742188 167.902344 149.671875 167.90625 149.546875 167.875 C 148.203125 170.464844 145.894531 171.964844 143.324219 173.148438 C 142.066406 173.726562 142.0625 173.71875 141.996094 175.441406 C 145.425781 174.441406 148.4375 172.917969 150.585938 169.683594 Z M 120.277344 211.1875 C 121.191406 211.960938 121.96875 212.160156 122.925781 211.855469 C 126.695312 210.644531 130.121094 208.847656 132.933594 206.019531 C 135.546875 203.398438 137.273438 200.269531 138.121094 196.644531 C 138.304688 195.855469 137.957031 195.640625 137.375 195.472656 C 136.550781 195.234375 136.65625 195.847656 136.574219 196.335938 C 136.230469 198.355469 135.347656 200.144531 134.167969 201.789062 C 130.753906 206.566406 126.453125 210.070312 120.277344 211.1875 Z M 134.421875 181.480469 C 136.351562 182.726562 136.339844 182.714844 137.652344 181.203125 C 138.765625 179.921875 139.527344 178.441406 140.222656 176.921875 C 141.804688 173.464844 142.359375 169.800781 142.363281 166.035156 C 142.363281 165.660156 142.4375 165.195312 141.792969 165.285156 C 141.371094 165.34375 141.027344 165.464844 141.070312 165.992188 C 141.089844 166.214844 141.089844 166.441406 141.097656 166.660156 C 141.183594 169.101562 140.621094 171.398438 139.621094 173.617188 C 138.328125 176.480469 136.6875 179.105469 134.417969 181.480469 Z M 131.828125 180.234375 C 134.023438 181.621094 133.789062 181.25 134.972656 179.917969 C 137.035156 177.59375 138.441406 174.871094 139.535156 171.984375 C 140.191406 170.253906 140.496094 168.4375 140.476562 166.582031 C 140.472656 166.234375 140.675781 165.710938 140.074219 165.703125 C 139.640625 165.695312 139.148438 165.8125 139.015625 166.34375 C 138.910156 166.777344 138.875 167.226562 138.804688 167.664062 C 138.382812 170.160156 137.585938 172.492188 136.191406 174.65625 C 134.921875 176.628906 133.472656 178.449219 131.828125 180.238281 Z M 115.578125 207.566406 C 117.464844 202.40625 120.675781 198.777344 125.679688 196.875 C 126.097656 196.714844 126.183594 196.488281 126.089844 196.132812 C 125.992188 195.773438 126.078125 195.347656 125.585938 194.984375 C 120.640625 196.941406 116.75 200.105469 114.523438 205.117188 C 114.035156 206.214844 114.671875 206.875 115.578125 207.566406 Z M 116.996094 199.921875 C 118.304688 198.773438 119.164062 197.941406 119.421875 196.378906 C 119.921875 193.371094 121.738281 191.144531 124.503906 189.757812 C 124.773438 189.625 125.207031 189.660156 125.167969 189.171875 C 123.402344 187.960938 123.21875 187.933594 121.507812 189.171875 C 117.960938 191.730469 116.867188 195.363281 117 199.925781 Z M 131.746094 161.160156 C 130.097656 161.730469 128.972656 162.40625 128.359375 163.792969 C 126.453125 168.109375 126.25 172.640625 126.574219 177.25 C 126.644531 178.238281 127.125 178.628906 128.167969 178.492188 C 127.496094 172.4375 128.15625 166.679688 131.746094 161.160156 Z M 126.8125 199.042969 C 126.359375 197.222656 126.292969 197.121094 125.140625 197.6875 C 120.941406 199.742188 118.058594 203.023438 116.429688 207.386719 C 116.082031 208.324219 116.222656 208.472656 117.4375 209.105469 C 119.183594 204.542969 122.125 201.074219 126.8125 199.042969 Z M 145.054688 164.300781 C 143.644531 162.542969 141.988281 162.570312 140.199219 162.929688 C 136.84375 163.601562 134.117188 165.316406 131.804688 167.785156 C 131.152344 168.480469 130.972656 169.285156 130.863281 170.46875 C 132.964844 168.59375 135.007812 167.078125 137.359375 166.019531 C 139.773438 164.929688 142.324219 164.445312 145.050781 164.300781 Z M 134.851562 160.71875 C 133.300781 160.40625 132.457031 160.90625 131.765625 162.082031 C 128.835938 167.058594 128.15625 172.445312 128.679688 178.074219 C 128.746094 178.789062 129.046875 179.222656 129.921875 179.253906 C 129.03125 172.480469 130.296875 166.253906 134.855469 160.714844 Z M 133.617188 201.378906 C 134.886719 199.53125 135.714844 197.816406 136.078125 195.878906 C 136.167969 195.398438 136.089844 194.980469 135.597656 194.761719 C 134.042969 194.074219 132.566406 193.203125 130.789062 192.605469 C 130.949219 195.824219 132.050781 198.53125 133.617188 201.378906 Z M 126.523438 190.25 C 126.042969 195.734375 127.625 200.472656 130.320312 204.984375 C 131.820312 203.808594 131.804688 203.820312 131.007812 202.378906 C 130.464844 201.40625 129.917969 200.433594 129.46875 199.417969 C 128.472656 197.15625 127.792969 194.808594 127.960938 192.304688 C 128.054688 190.890625 128.089844 190.890625 126.519531 190.25 Z M 145.894531 177.300781 C 144.214844 177.613281 142.625 178.105469 140.941406 177.984375 C 140.550781 177.953125 140.351562 178.261719 140.207031 178.570312 C 139.453125 180.183594 138.296875 181.511719 137.089844 182.8125 C 138.488281 183.6875 138.484375 183.675781 139.699219 183.128906 C 142.425781 181.90625 144.242188 179.730469 145.894531 177.300781 Z M 143.117188 186.339844 C 149.003906 186.078125 154.902344 177.523438 152.582031 172.941406 C 151.261719 178.613281 148.257812 183.042969 143.117188 186.339844 Z M 139.578125 184.023438 C 140.1875 184.71875 140.832031 184.730469 141.582031 184.414062 C 142.25 184.128906 142.914062 183.847656 143.492188 183.402344 C 146.128906 181.347656 147.945312 178.691406 149.433594 175.34375 C 148.109375 175.992188 147.179688 176.425781 146.488281 177.503906 C 144.765625 180.175781 142.777344 182.640625 139.578125 184.027344 Z M 143.238281 170.539062 C 144.941406 169.726562 146.308594 168.46875 147.519531 166.996094 C 148 166.414062 147.796875 166.050781 147.3125 165.617188 C 146.410156 164.820312 145.339844 164.996094 144.300781 165.023438 C 143.011719 165.054688 143.03125 165.082031 143.027344 166.320312 C 143.027344 167.425781 142.976562 168.53125 142.953125 169.640625 C 142.949219 169.945312 142.765625 170.292969 143.238281 170.535156 Z M 132.082031 166.492188 C 133.539062 165.5625 134.804688 164.402344 136.339844 163.628906 C 137.835938 162.871094 139.464844 162.453125 141.078125 161.929688 C 139.683594 161.3125 138.308594 160.921875 136.875 160.703125 C 136.046875 160.578125 135.511719 160.824219 135.011719 161.457031 C 133.804688 162.988281 132.695312 164.570312 132.078125 166.492188 Z M 152.074219 172.722656 C 150.863281 173.8125 150.125 174.699219 149.855469 175.378906 C 148.214844 179.492188 145.984375 183.128906 141.816406 185.238281 C 142.714844 185.730469 142.738281 185.761719 143.324219 185.367188 C 147.761719 182.378906 150.695312 178.339844 152.074219 172.726562 Z M 128.691406 191.617188 C 128.527344 195.832031 129.9375 199.488281 132.070312 202.980469 C 133.179688 202.054688 133.191406 202.050781 132.59375 200.90625 C 131.222656 198.273438 129.914062 195.617188 129.929688 192.542969 C 129.933594 191.777344 129.421875 191.664062 128.691406 191.617188 Z M 125.664062 190.109375 C 122.917969 190.449219 119.878906 194.289062 120.121094 197.15625 C 121.023438 196.578125 121.886719 196.140625 122.167969 194.914062 C 122.433594 193.757812 123.304688 192.753906 124.421875 192.375 C 125.695312 191.945312 125.789062 191.164062 125.667969 190.109375 Z M 142.574219 172.933594 C 144.460938 171.984375 145.984375 170.972656 147.320312 169.691406 C 147.882812 169.152344 148.410156 168.570312 148.761719 167.855469 C 148.941406 167.488281 149.121094 167.105469 148.652344 166.84375 C 148.226562 166.609375 148.074219 167 147.898438 167.273438 C 146.800781 168.957031 145.328125 170.210938 143.480469 170.984375 C 142.648438 171.332031 142.515625 171.9375 142.574219 172.9375 Z M 126.230469 167.285156 C 126.121094 167.472656 125.980469 167.648438 125.910156 167.851562 C 124.84375 170.988281 125 174.195312 125.367188 177.417969 C 125.402344 177.722656 125.566406 177.976562 125.902344 177.894531 C 126.300781 177.796875 126.125 177.4375 126.101562 177.195312 C 125.75 173.921875 125.894531 170.660156 126.226562 167.285156 Z M 122.488281 195.542969 C 123.648438 195.109375 124.46875 194.792969 125.296875 194.503906 C 125.703125 194.363281 125.789062 194.09375 125.710938 193.726562 C 125.621094 193.3125 125.800781 192.824219 125.328125 192.433594 C 123.996094 192.925781 123.222656 193.945312 122.488281 195.539062 Z M 133.378906 184.800781 C 133.035156 183.339844 132.035156 182.515625 130.816406 182.699219 C 129.574219 182.882812 128.617188 184.171875 128.757812 185.539062 C 128.90625 187.027344 129.980469 187.992188 130.816406 189.105469 C 131.398438 189.875 132.207031 189.714844 132.9375 189.804688 C 134.292969 189.972656 135.628906 189.828125 136.78125 188.992188 C 137.390625 188.546875 137.851562 187.96875 137.671875 187.148438 C 137.492188 186.3125 136.800781 186.023438 136.078125 185.851562 C 135.300781 185.664062 134.523438 185.875 133.691406 186.023438 C 133.367188 185.59375 133.472656 185.179688 133.382812 184.804688 Z M 133.378906 184.800781 " fill-opacity="1" fill-rule="nonzero"/></g><g transform="matrix(1, 0, 0, 1, 24, 171)"><g clip-path="url(#8f027a962d)"><g fill="#000000" fill-opacity="1"><g transform="translate(1.222246, 22.219646)"><g><path d="M 9.40625 -16.5 C 11.914062 -16.5 13.953125 -15.738281 15.515625 -14.21875 C 17.078125 -12.707031 17.859375 -10.71875 17.859375 -8.25 C 17.859375 -5.78125 17.078125 -3.785156 15.515625 -2.265625 C 13.953125 -0.753906 11.914062 0 9.40625 0 L 1.40625 0 L 1.40625 -0.234375 L 1.71875 -0.234375 C 2.125 -0.234375 2.472656 -0.378906 2.765625 -0.671875 C 3.054688 -0.960938 3.210938 -1.3125 3.234375 -1.71875 L 3.234375 -14.921875 C 3.234375 -15.296875 3.078125 -15.613281 2.765625 -15.875 C 2.460938 -16.132812 2.113281 -16.265625 1.71875 -16.265625 L 1.4375 -16.265625 L 1.40625 -16.5 Z M 4.765625 -15.78125 L 4.765625 -0.703125 L 9.40625 -0.703125 C 10.71875 -0.703125 11.878906 -1.015625 12.890625 -1.640625 C 13.910156 -2.273438 14.695312 -3.160156 15.25 -4.296875 C 15.8125 -5.441406 16.09375 -6.757812 16.09375 -8.25 C 16.09375 -10.507812 15.472656 -12.328125 14.234375 -13.703125 C 13.003906 -15.085938 11.394531 -15.78125 9.40625 -15.78125 Z M 4.765625 -15.78125 "/></g></g></g><g fill="#000000" fill-opacity="1"><g transform="translate(19.764556, 22.219646)"><g><path d="M 1.71875 -0.234375 C 2.125 -0.234375 2.472656 -0.378906 2.765625 -0.671875 C 3.054688 -0.960938 3.210938 -1.3125 3.234375 -1.71875 L 3.234375 -14.921875 C 3.179688 -15.296875 3.015625 -15.613281 2.734375 -15.875 C 2.453125 -16.132812 2.113281 -16.265625 1.71875 -16.265625 L 1.4375 -16.265625 L 1.40625 -16.5 L 8.3125 -16.5 C 8.800781 -16.5 9.332031 -16.546875 9.90625 -16.640625 C 10.476562 -16.734375 10.882812 -16.828125 11.125 -16.921875 L 11.125 -13.953125 L 10.890625 -13.953125 L 10.890625 -14.375 C 10.890625 -14.75 10.757812 -15.066406 10.5 -15.328125 C 10.238281 -15.597656 9.925781 -15.742188 9.5625 -15.765625 L 4.765625 -15.765625 L 4.765625 -8.484375 L 8.734375 -8.484375 C 9.054688 -8.492188 9.328125 -8.609375 9.546875 -8.828125 C 9.765625 -9.054688 9.875 -9.332031 9.875 -9.65625 L 9.875 -9.984375 L 10.109375 -9.984375 L 10.109375 -6.265625 L 9.875 -6.265625 L 9.875 -6.625 C 9.875 -6.9375 9.765625 -7.203125 9.546875 -7.421875 C 9.335938 -7.640625 9.078125 -7.757812 8.765625 -7.78125 L 4.765625 -7.78125 L 4.765625 -0.734375 L 8.125 -0.734375 C 9.289062 -0.734375 10.175781 -0.988281 10.78125 -1.5 C 11.394531 -2.019531 11.910156 -2.789062 12.328125 -3.8125 L 12.5625 -3.8125 L 11.1875 0 L 1.40625 0 L 1.40625 -0.234375 Z M 1.71875 -0.234375 "/></g></g></g><g fill="#000000" fill-opacity="1"><g transform="translate(33.12353, 22.219646)"><g><path d="M 18.328125 -16.265625 C 17.941406 -16.265625 17.601562 -16.125 17.3125 -15.84375 C 17.03125 -15.570312 16.882812 -15.238281 16.875 -14.84375 L 16.875 -2.6875 C 16.875 -1.769531 16.925781 -0.90625 17.03125 -0.09375 L 17.078125 0.328125 L 16.875 0.328125 L 4.03125 -13.390625 L 4.03125 -1.65625 C 4.039062 -1.101562 4.285156 -0.691406 4.765625 -0.421875 C 4.984375 -0.296875 5.21875 -0.234375 5.46875 -0.234375 L 5.921875 -0.234375 L 5.921875 0 L 1.0625 0 L 1.0625 -0.234375 L 1.515625 -0.234375 C 1.898438 -0.234375 2.234375 -0.367188 2.515625 -0.640625 C 2.796875 -0.921875 2.9375 -1.265625 2.9375 -1.671875 L 2.9375 -13.90625 C 2.9375 -14.863281 2.882812 -15.71875 2.78125 -16.46875 L 2.734375 -16.84375 L 2.96875 -16.84375 L 15.8125 -3.140625 L 15.8125 -14.828125 C 15.789062 -15.234375 15.640625 -15.570312 15.359375 -15.84375 C 15.078125 -16.125 14.738281 -16.265625 14.34375 -16.265625 L 13.90625 -16.265625 L 13.90625 -16.5 L 18.75 -16.5 L 18.75 -16.265625 Z M 18.328125 -16.265625 "/></g></g></g><g fill="#000000" fill-opacity="1"><g transform="translate(52.702565, 22.219646)"><g><path d="M 1.71875 -0.234375 C 2.125 -0.234375 2.472656 -0.378906 2.765625 -0.671875 C 3.054688 -0.960938 3.210938 -1.3125 3.234375 -1.71875 L 3.234375 -14.796875 C 3.210938 -15.203125 3.054688 -15.546875 2.765625 -15.828125 C 2.472656 -16.117188 2.125 -16.265625 1.71875 -16.265625 L 1.40625 -16.265625 L 1.40625 -16.5 L 6.578125 -16.5 L 6.578125 -16.265625 L 6.265625 -16.265625 C 5.859375 -16.265625 5.507812 -16.117188 5.21875 -15.828125 C 4.925781 -15.546875 4.773438 -15.203125 4.765625 -14.796875 L 4.765625 -1.71875 C 4.765625 -1.3125 4.910156 -0.960938 5.203125 -0.671875 C 5.503906 -0.378906 5.859375 -0.234375 6.265625 -0.234375 L 6.578125 -0.234375 L 6.578125 0 L 1.40625 0 L 1.40625 -0.234375 Z M 1.71875 -0.234375 "/></g></g></g><g fill="#000000" fill-opacity="1"><g transform="translate(60.666127, 22.219646)"><g><path d="M 1.4375 -0.96875 C 1.382812 -1.1875 1.359375 -1.609375 1.359375 -2.234375 C 1.359375 -2.867188 1.476562 -3.535156 1.71875 -4.234375 L 1.9375 -4.234375 C 1.914062 -4.066406 1.90625 -3.894531 1.90625 -3.71875 C 1.90625 -2.757812 2.195312 -1.960938 2.78125 -1.328125 C 3.363281 -0.691406 4.132812 -0.375 5.09375 -0.375 C 6.082031 -0.375 6.894531 -0.671875 7.53125 -1.265625 C 8.164062 -1.867188 8.484375 -2.617188 8.484375 -3.515625 C 8.484375 -4.421875 8.175781 -5.15625 7.5625 -5.71875 L 3.046875 -9.921875 C 2.191406 -10.703125 1.765625 -11.648438 1.765625 -12.765625 C 1.765625 -13.878906 2.132812 -14.832031 2.875 -15.625 C 3.625 -16.425781 4.640625 -16.828125 5.921875 -16.828125 C 6.515625 -16.828125 7.1875 -16.75 7.9375 -16.59375 L 8.859375 -16.59375 L 8.859375 -13.6875 L 8.640625 -13.6875 C 8.640625 -14.425781 8.382812 -15.015625 7.875 -15.453125 C 7.363281 -15.890625 6.707031 -16.109375 5.90625 -16.109375 C 5.113281 -16.109375 4.445312 -15.84375 3.90625 -15.3125 C 3.363281 -14.78125 3.09375 -14.113281 3.09375 -13.3125 C 3.09375 -12.507812 3.40625 -11.816406 4.03125 -11.234375 L 8.671875 -6.953125 C 9.453125 -6.222656 9.84375 -5.226562 9.84375 -3.96875 C 9.84375 -2.71875 9.441406 -1.6875 8.640625 -0.875 C 7.847656 -0.0703125 6.78125 0.328125 5.4375 0.328125 C 4.75 0.328125 4.015625 0.21875 3.234375 0 C 2.460938 -0.207031 1.863281 -0.53125 1.4375 -0.96875 Z M 1.4375 -0.96875 "/></g></g></g><g fill="#000000" fill-opacity="1"><g transform="translate(71.85754, 22.219646)"><g><path d="M 1.71875 -0.234375 C 2.125 -0.234375 2.472656 -0.378906 2.765625 -0.671875 C 3.054688 -0.960938 3.210938 -1.3125 3.234375 -1.71875 L 3.234375 -14.921875 C 3.179688 -15.296875 3.015625 -15.613281 2.734375 -15.875 C 2.453125 -16.132812 2.113281 -16.265625 1.71875 -16.265625 L 1.4375 -16.265625 L 1.40625 -16.5 L 8.3125 -16.5 C 8.800781 -16.5 9.332031 -16.546875 9.90625 -16.640625 C 10.476562 -16.734375 10.882812 -16.828125 11.125 -16.921875 L 11.125 -13.953125 L 10.890625 -13.953125 L 10.890625 -14.375 C 10.890625 -14.75 10.757812 -15.066406 10.5 -15.328125 C 10.238281 -15.597656 9.925781 -15.742188 9.5625 -15.765625 L 4.765625 -15.765625 L 4.765625 -8.484375 L 8.734375 -8.484375 C 9.054688 -8.492188 9.328125 -8.609375 9.546875 -8.828125 C 9.765625 -9.054688 9.875 -9.332031 9.875 -9.65625 L 9.875 -9.984375 L 10.109375 -9.984375 L 10.109375 -6.265625 L 9.875 -6.265625 L 9.875 -6.625 C 9.875 -6.9375 9.765625 -7.203125 9.546875 -7.421875 C 9.335938 -7.640625 9.078125 -7.757812 8.765625 -7.78125 L 4.765625 -7.78125 L 4.765625 -0.734375 L 8.125 -0.734375 C 9.289062 -0.734375 10.175781 -0.988281 10.78125 -1.5 C 11.394531 -2.019531 11.910156 -2.789062 12.328125 -3.8125 L 12.5625 -3.8125 L 11.1875 0 L 1.40625 0 L 1.40625 -0.234375 Z M 1.71875 -0.234375 "/></g></g></g><g fill="#000000" fill-opacity="1"><g transform="translate(85.456539, 22.219646)"><g/></g></g><g fill="#000000" fill-opacity="1"><g transform="translate(91.346749, 22.219646)"><g/></g></g><g fill="#000000" fill-opacity="1"><g transform="translate(97.236959, 22.219646)"><g/></g></g><g fill="#000000" fill-opacity="1"><g transform="translate(103.127168, 22.219646)"><g/></g></g><g fill="#000000" fill-opacity="1"><g transform="translate(109.017378, 22.219646)"><g/></g></g><g fill="#000000" fill-opacity="1"><g transform="translate(114.907588, 22.219646)"><g/></g></g><g fill="#000000" fill-opacity="1"><g transform="translate(120.797797, 22.219646)"><g/></g></g><g fill="#000000" fill-opacity="1"><g transform="translate(126.688007, 22.219646)"><g/></g></g><g fill="#000000" fill-opacity="1"><g transform="translate(132.578344, 22.219646)"><g><path d="M 6.265625 -0.234375 L 6.578125 -0.234375 L 6.578125 0 L 1.40625 0 L 1.40625 -0.234375 L 1.71875 -0.234375 C 2.125 -0.234375 2.472656 -0.378906 2.765625 -0.671875 C 3.054688 -0.960938 3.210938 -1.3125 3.234375 -1.71875 L 3.234375 -14.796875 C 3.210938 -15.203125 3.054688 -15.546875 2.765625 -15.828125 C 2.472656 -16.117188 2.125 -16.265625 1.71875 -16.265625 L 1.40625 -16.265625 L 1.40625 -16.5 L 6.578125 -16.5 L 6.578125 -16.265625 L 6.265625 -16.265625 C 5.859375 -16.265625 5.507812 -16.117188 5.21875 -15.828125 C 4.925781 -15.546875 4.773438 -15.203125 4.765625 -14.796875 L 4.765625 -1.71875 C 4.765625 -1.3125 4.910156 -0.960938 5.203125 -0.671875 C 5.503906 -0.378906 5.859375 -0.234375 6.265625 -0.234375 Z M 15.734375 0 L 14.71875 0 C 13.125 0 11.945312 -0.445312 11.1875 -1.34375 L 5.515625 -8.203125 L 11.078125 -15.171875 C 11.203125 -15.328125 11.265625 -15.46875 11.265625 -15.59375 C 11.265625 -15.71875 11.238281 -15.828125 11.1875 -15.921875 C 11.0625 -16.160156 10.835938 -16.28125 10.515625 -16.28125 L 10.265625 -16.28125 L 10.265625 -16.5 L 15.25 -16.5 L 15.25 -16.28125 L 15.15625 -16.28125 C 14.113281 -16.28125 13.265625 -15.910156 12.609375 -15.171875 L 7.0625 -8.765625 L 13.5 -1.203125 C 14.125 -0.578125 14.867188 -0.253906 15.734375 -0.234375 Z M 15.734375 0 "/></g></g></g><g fill="#000000" fill-opacity="1"><g transform="translate(148.057832, 22.219646)"><g><path d="M 18.328125 -16.265625 C 17.941406 -16.265625 17.601562 -16.125 17.3125 -15.84375 C 17.03125 -15.570312 16.882812 -15.238281 16.875 -14.84375 L 16.875 -2.6875 C 16.875 -1.769531 16.925781 -0.90625 17.03125 -0.09375 L 17.078125 0.328125 L 16.875 0.328125 L 4.03125 -13.390625 L 4.03125 -1.65625 C 4.039062 -1.101562 4.285156 -0.691406 4.765625 -0.421875 C 4.984375 -0.296875 5.21875 -0.234375 5.46875 -0.234375 L 5.921875 -0.234375 L 5.921875 0 L 1.0625 0 L 1.0625 -0.234375 L 1.515625 -0.234375 C 1.898438 -0.234375 2.234375 -0.367188 2.515625 -0.640625 C 2.796875 -0.921875 2.9375 -1.265625 2.9375 -1.671875 L 2.9375 -13.90625 C 2.9375 -14.863281 2.882812 -15.71875 2.78125 -16.46875 L 2.734375 -16.84375 L 2.96875 -16.84375 L 15.8125 -3.140625 L 15.8125 -14.828125 C 15.789062 -15.234375 15.640625 -15.570312 15.359375 -15.84375 C 15.078125 -16.125 14.738281 -16.265625 14.34375 -16.265625 L 13.90625 -16.265625 L 13.90625 -16.5 L 18.75 -16.5 L 18.75 -16.265625 Z M 18.328125 -16.265625 "/></g></g></g><g fill="#000000" fill-opacity="1"><g transform="translate(167.636866, 22.219646)"><g><path d="M 1.71875 -0.234375 C 2.125 -0.234375 2.472656 -0.378906 2.765625 -0.671875 C 3.054688 -0.960938 3.210938 -1.3125 3.234375 -1.71875 L 3.234375 -14.796875 C 3.210938 -15.203125 3.054688 -15.546875 2.765625 -15.828125 C 2.472656 -16.117188 2.125 -16.265625 1.71875 -16.265625 L 1.40625 -16.265625 L 1.40625 -16.5 L 6.578125 -16.5 L 6.578125 -16.265625 L 6.265625 -16.265625 C 5.859375 -16.265625 5.507812 -16.117188 5.21875 -15.828125 C 4.925781 -15.546875 4.773438 -15.203125 4.765625 -14.796875 L 4.765625 -1.71875 C 4.765625 -1.3125 4.910156 -0.960938 5.203125 -0.671875 C 5.503906 -0.378906 5.859375 -0.234375 6.265625 -0.234375 L 6.578125 -0.234375 L 6.578125 0 L 1.40625 0 L 1.40625 -0.234375 Z M 1.71875 -0.234375 "/></g></g></g><g fill="#000000" fill-opacity="1"><g transform="translate(175.600429, 22.219646)"><g><path d="M 13.875 -14.390625 C 13.875 -14.773438 13.738281 -15.101562 13.46875 -15.375 C 13.207031 -15.644531 12.894531 -15.789062 12.53125 -15.8125 L 8.0625 -15.8125 L 8.0625 -1.703125 C 8.070312 -1.285156 8.222656 -0.9375 8.515625 -0.65625 C 8.804688 -0.375 9.15625 -0.234375 9.5625 -0.234375 L 9.875 -0.234375 L 9.875 0 L 4.71875 0 L 4.71875 -0.234375 L 5.015625 -0.234375 C 5.421875 -0.234375 5.769531 -0.375 6.0625 -0.65625 C 6.351562 -0.9375 6.507812 -1.273438 6.53125 -1.671875 L 6.53125 -15.8125 L 2.046875 -15.8125 C 1.671875 -15.789062 1.351562 -15.644531 1.09375 -15.375 C 0.832031 -15.101562 0.703125 -14.773438 0.703125 -14.390625 L 0.703125 -14 L 0.46875 -13.96875 L 0.46875 -16.9375 C 0.707031 -16.84375 1.113281 -16.75 1.6875 -16.65625 C 2.269531 -16.5625 2.804688 -16.515625 3.296875 -16.515625 L 11.265625 -16.515625 C 12.035156 -16.515625 12.675781 -16.570312 13.1875 -16.6875 C 13.695312 -16.8125 14.003906 -16.894531 14.109375 -16.9375 L 14.109375 -13.96875 L 13.875 -14 Z M 13.875 -14.390625 "/></g></g></g><g fill="#000000" fill-opacity="1"><g transform="translate(190.161028, 22.219646)"><g/></g></g><g fill="#000000" fill-opacity="1"><g transform="translate(196.051238, 22.219646)"><g><path d="M 16.875 -0.234375 L 17.0625 -0.234375 L 17.0625 0 L 11.765625 0 L 11.765625 -0.234375 L 11.984375 -0.234375 C 12.304688 -0.234375 12.550781 -0.335938 12.71875 -0.546875 C 12.882812 -0.765625 12.96875 -0.96875 12.96875 -1.15625 C 12.96875 -1.34375 12.9375 -1.53125 12.875 -1.71875 L 11.359375 -5.71875 L 5 -5.71875 L 3.421875 -1.703125 C 3.359375 -1.503906 3.328125 -1.316406 3.328125 -1.140625 C 3.328125 -0.960938 3.410156 -0.765625 3.578125 -0.546875 C 3.742188 -0.335938 3.988281 -0.234375 4.3125 -0.234375 L 4.53125 -0.234375 L 4.53125 0 L -0.203125 0 L -0.203125 -0.234375 L 0 -0.234375 C 0.394531 -0.234375 0.78125 -0.359375 1.15625 -0.609375 C 1.539062 -0.859375 1.847656 -1.226562 2.078125 -1.71875 L 7.40625 -14.390625 C 7.988281 -15.671875 8.28125 -16.484375 8.28125 -16.828125 L 8.484375 -16.828125 L 14.8125 -1.71875 C 15.03125 -1.226562 15.328125 -0.859375 15.703125 -0.609375 C 16.078125 -0.359375 16.46875 -0.234375 16.875 -0.234375 Z M 5.28125 -6.4375 L 11.078125 -6.4375 L 8.25 -14 Z M 5.28125 -6.4375 "/></g></g></g><g fill="#000000" fill-opacity="1"><g transform="translate(212.826559, 22.219646)"><g><path d="M 6.265625 -15.765625 L 4.765625 -15.765625 L 4.765625 -1.71875 C 4.765625 -1.3125 4.90625 -0.960938 5.1875 -0.671875 C 5.476562 -0.378906 5.835938 -0.234375 6.265625 -0.234375 L 6.546875 -0.234375 L 6.578125 0 L 1.40625 0 L 1.40625 -0.234375 L 1.71875 -0.234375 C 2.125 -0.234375 2.472656 -0.375 2.765625 -0.65625 C 3.054688 -0.9375 3.210938 -1.285156 3.234375 -1.703125 L 3.234375 -14.78125 C 3.210938 -15.1875 3.054688 -15.535156 2.765625 -15.828125 C 2.472656 -16.117188 2.125 -16.265625 1.71875 -16.265625 L 1.40625 -16.265625 L 1.40625 -16.5 L 7.78125 -16.5 C 9.207031 -16.5 10.328125 -16.097656 11.140625 -15.296875 C 11.960938 -14.503906 12.375 -13.476562 12.375 -12.21875 C 12.375 -10.957031 11.984375 -9.863281 11.203125 -8.9375 C 10.421875 -8.019531 9.472656 -7.5625 8.359375 -7.5625 C 8.597656 -7.457031 8.878906 -7.242188 9.203125 -6.921875 C 9.523438 -6.597656 9.8125 -6.265625 10.0625 -5.921875 C 11.414062 -3.984375 12.296875 -2.789062 12.703125 -2.34375 C 13.109375 -1.894531 13.394531 -1.585938 13.5625 -1.421875 C 13.738281 -1.253906 13.925781 -1.09375 14.125 -0.9375 C 14.332031 -0.78125 14.539062 -0.65625 14.75 -0.5625 C 15.207031 -0.34375 15.695312 -0.234375 16.21875 -0.234375 L 16.21875 0 L 14.921875 0 C 14.242188 0 13.613281 -0.117188 13.03125 -0.359375 C 12.445312 -0.609375 12.007812 -0.863281 11.71875 -1.125 C 11.425781 -1.382812 11.175781 -1.632812 10.96875 -1.875 C 10.757812 -2.113281 10.175781 -2.925781 9.21875 -4.3125 C 8.257812 -5.695312 7.695312 -6.484375 7.53125 -6.671875 C 7.375 -6.867188 7.210938 -7.0625 7.046875 -7.25 C 6.546875 -7.789062 6.039062 -8.0625 5.53125 -8.0625 L 5.53125 -8.296875 C 5.65625 -8.273438 5.820312 -8.265625 6.03125 -8.265625 C 6.238281 -8.265625 6.488281 -8.273438 6.78125 -8.296875 C 8.726562 -8.335938 9.957031 -9.15625 10.46875 -10.75 C 10.5625 -11.0625 10.609375 -11.351562 10.609375 -11.625 C 10.609375 -11.90625 10.609375 -12.082031 10.609375 -12.15625 C 10.578125 -13.207031 10.300781 -14.054688 9.78125 -14.703125 C 9.257812 -15.347656 8.5625 -15.691406 7.6875 -15.734375 C 7.300781 -15.753906 6.828125 -15.765625 6.265625 -15.765625 Z M 6.265625 -15.765625 "/></g></g></g><g fill="#000000" fill-opacity="1"><g transform="translate(227.481193, 22.219646)"><g><path d="M 13.875 -14.390625 C 13.875 -14.773438 13.738281 -15.101562 13.46875 -15.375 C 13.207031 -15.644531 12.894531 -15.789062 12.53125 -15.8125 L 8.0625 -15.8125 L 8.0625 -1.703125 C 8.070312 -1.285156 8.222656 -0.9375 8.515625 -0.65625 C 8.804688 -0.375 9.15625 -0.234375 9.5625 -0.234375 L 9.875 -0.234375 L 9.875 0 L 4.71875 0 L 4.71875 -0.234375 L 5.015625 -0.234375 C 5.421875 -0.234375 5.769531 -0.375 6.0625 -0.65625 C 6.351562 -0.9375 6.507812 -1.273438 6.53125 -1.671875 L 6.53125 -15.8125 L 2.046875 -15.8125 C 1.671875 -15.789062 1.351562 -15.644531 1.09375 -15.375 C 0.832031 -15.101562 0.703125 -14.773438 0.703125 -14.390625 L 0.703125 -14 L 0.46875 -13.96875 L 0.46875 -16.9375 C 0.707031 -16.84375 1.113281 -16.75 1.6875 -16.65625 C 2.269531 -16.5625 2.804688 -16.515625 3.296875 -16.515625 L 11.265625 -16.515625 C 12.035156 -16.515625 12.675781 -16.570312 13.1875 -16.6875 C 13.695312 -16.8125 14.003906 -16.894531 14.109375 -16.9375 L 14.109375 -13.96875 L 13.875 -14 Z M 13.875 -14.390625 "/></g></g></g><g fill="#000000" fill-opacity="1"><g transform="translate(242.041792, 22.219646)"><g><path d="M 23.40625 -16.265625 L 23.21875 -16.265625 C 22.632812 -16.265625 22.125 -16.050781 21.6875 -15.625 C 21.4375 -15.40625 21.253906 -15.128906 21.140625 -14.796875 L 17.234375 -2.328125 C 16.921875 -1.335938 16.75 -0.46875 16.71875 0.28125 L 16.5 0.28125 L 11.6875 -13.1875 L 8.109375 -2.328125 C 7.816406 -1.359375 7.65625 -0.488281 7.625 0.28125 L 7.40625 0.28125 L 2.0625 -14.828125 C 1.875 -15.296875 1.582031 -15.648438 1.1875 -15.890625 C 0.789062 -16.140625 0.390625 -16.265625 -0.015625 -16.265625 L -0.203125 -16.265625 L -0.203125 -16.5 L 5.03125 -16.5 L 5.03125 -16.265625 L 4.8125 -16.265625 C 4.476562 -16.265625 4.226562 -16.15625 4.0625 -15.9375 C 3.90625 -15.726562 3.828125 -15.53125 3.828125 -15.34375 C 3.828125 -15.15625 3.847656 -14.984375 3.890625 -14.828125 L 7.484375 -3.34375 L 11.859375 -16.875 L 12.078125 -16.84375 L 16.71875 -3.8125 L 19.875 -14.84375 C 19.914062 -15.019531 19.9375 -15.195312 19.9375 -15.375 C 19.9375 -15.550781 19.859375 -15.742188 19.703125 -15.953125 C 19.546875 -16.160156 19.300781 -16.265625 18.96875 -16.265625 L 18.765625 -16.265625 L 18.765625 -16.5 L 23.40625 -16.5 Z M 23.40625 -16.265625 "/></g></g></g><g fill="#000000" fill-opacity="1"><g transform="translate(264.589439, 22.219646)"><g><path d="M 4 -14.453125 C 5.5625 -16.035156 7.597656 -16.828125 10.109375 -16.828125 C 12.617188 -16.828125 14.660156 -16.035156 16.234375 -14.453125 C 17.804688 -12.878906 18.59375 -10.8125 18.59375 -8.25 C 18.59375 -5.6875 17.804688 -3.613281 16.234375 -2.03125 C 14.660156 -0.457031 12.617188 0.328125 10.109375 0.328125 C 7.597656 0.328125 5.5625 -0.457031 4 -2.03125 C 2.4375 -3.613281 1.65625 -5.6875 1.65625 -8.25 C 1.65625 -10.8125 2.4375 -12.878906 4 -14.453125 Z M 5.28125 -2.546875 C 6.5 -1.097656 8.109375 -0.375 10.109375 -0.375 C 12.117188 -0.375 13.734375 -1.097656 14.953125 -2.546875 C 16.171875 -3.992188 16.78125 -5.894531 16.78125 -8.25 C 16.78125 -9.800781 16.503906 -11.171875 15.953125 -12.359375 C 15.398438 -13.554688 14.617188 -14.476562 13.609375 -15.125 C 12.597656 -15.78125 11.429688 -16.109375 10.109375 -16.109375 C 8.109375 -16.109375 6.5 -15.382812 5.28125 -13.9375 C 4.070312 -12.5 3.46875 -10.601562 3.46875 -8.25 C 3.46875 -5.894531 4.070312 -3.992188 5.28125 -2.546875 Z M 5.28125 -2.546875 "/></g></g></g><g fill="#000000" fill-opacity="1"><g transform="translate(283.862141, 22.219646)"><g><path d="M 6.265625 -15.765625 L 4.765625 -15.765625 L 4.765625 -1.71875 C 4.765625 -1.3125 4.90625 -0.960938 5.1875 -0.671875 C 5.476562 -0.378906 5.835938 -0.234375 6.265625 -0.234375 L 6.546875 -0.234375 L 6.578125 0 L 1.40625 0 L 1.40625 -0.234375 L 1.71875 -0.234375 C 2.125 -0.234375 2.472656 -0.375 2.765625 -0.65625 C 3.054688 -0.9375 3.210938 -1.285156 3.234375 -1.703125 L 3.234375 -14.78125 C 3.210938 -15.1875 3.054688 -15.535156 2.765625 -15.828125 C 2.472656 -16.117188 2.125 -16.265625 1.71875 -16.265625 L 1.40625 -16.265625 L 1.40625 -16.5 L 7.78125 -16.5 C 9.207031 -16.5 10.328125 -16.097656 11.140625 -15.296875 C 11.960938 -14.503906 12.375 -13.476562 12.375 -12.21875 C 12.375 -10.957031 11.984375 -9.863281 11.203125 -8.9375 C 10.421875 -8.019531 9.472656 -7.5625 8.359375 -7.5625 C 8.597656 -7.457031 8.878906 -7.242188 9.203125 -6.921875 C 9.523438 -6.597656 9.8125 -6.265625 10.0625 -5.921875 C 11.414062 -3.984375 12.296875 -2.789062 12.703125 -2.34375 C 13.109375 -1.894531 13.394531 -1.585938 13.5625 -1.421875 C 13.738281 -1.253906 13.925781 -1.09375 14.125 -0.9375 C 14.332031 -0.78125 14.539062 -0.65625 14.75 -0.5625 C 15.207031 -0.34375 15.695312 -0.234375 16.21875 -0.234375 L 16.21875 0 L 14.921875 0 C 14.242188 0 13.613281 -0.117188 13.03125 -0.359375 C 12.445312 -0.609375 12.007812 -0.863281 11.71875 -1.125 C 11.425781 -1.382812 11.175781 -1.632812 10.96875 -1.875 C 10.757812 -2.113281 10.175781 -2.925781 9.21875 -4.3125 C 8.257812 -5.695312 7.695312 -6.484375 7.53125 -6.671875 C 7.375 -6.867188 7.210938 -7.0625 7.046875 -7.25 C 6.546875 -7.789062 6.039062 -8.0625 5.53125 -8.0625 L 5.53125 -8.296875 C 5.65625 -8.273438 5.820312 -8.265625 6.03125 -8.265625 C 6.238281 -8.265625 6.488281 -8.273438 6.78125 -8.296875 C 8.726562 -8.335938 9.957031 -9.15625 10.46875 -10.75 C 10.5625 -11.0625 10.609375 -11.351562 10.609375 -11.625 C 10.609375 -11.90625 10.609375 -12.082031 10.609375 -12.15625 C 10.578125 -13.207031 10.300781 -14.054688 9.78125 -14.703125 C 9.257812 -15.347656 8.5625 -15.691406 7.6875 -15.734375 C 7.300781 -15.753906 6.828125 -15.765625 6.265625 -15.765625 Z M 6.265625 -15.765625 "/></g></g></g><g fill="#000000" fill-opacity="1"><g transform="translate(299.105892, 22.219646)"><g><path d="M 6.265625 -0.234375 L 6.578125 -0.234375 L 6.578125 0 L 1.40625 0 L 1.40625 -0.234375 L 1.71875 -0.234375 C 2.125 -0.234375 2.472656 -0.378906 2.765625 -0.671875 C 3.054688 -0.960938 3.210938 -1.3125 3.234375 -1.71875 L 3.234375 -14.796875 C 3.210938 -15.203125 3.054688 -15.546875 2.765625 -15.828125 C 2.472656 -16.117188 2.125 -16.265625 1.71875 -16.265625 L 1.40625 -16.265625 L 1.40625 -16.5 L 6.578125 -16.5 L 6.578125 -16.265625 L 6.265625 -16.265625 C 5.859375 -16.265625 5.507812 -16.117188 5.21875 -15.828125 C 4.925781 -15.546875 4.773438 -15.203125 4.765625 -14.796875 L 4.765625 -1.71875 C 4.765625 -1.3125 4.910156 -0.960938 5.203125 -0.671875 C 5.503906 -0.378906 5.859375 -0.234375 6.265625 -0.234375 Z M 15.734375 0 L 14.71875 0 C 13.125 0 11.945312 -0.445312 11.1875 -1.34375 L 5.515625 -8.203125 L 11.078125 -15.171875 C 11.203125 -15.328125 11.265625 -15.46875 11.265625 -15.59375 C 11.265625 -15.71875 11.238281 -15.828125 11.1875 -15.921875 C 11.0625 -16.160156 10.835938 -16.28125 10.515625 -16.28125 L 10.265625 -16.28125 L 10.265625 -16.5 L 15.25 -16.5 L 15.25 -16.28125 L 15.15625 -16.28125 C 14.113281 -16.28125 13.265625 -15.910156 12.609375 -15.171875 L 7.0625 -8.765625 L 13.5 -1.203125 C 14.125 -0.578125 14.867188 -0.253906 15.734375 -0.234375 Z M 15.734375 0 "/></g></g></g><g fill="#000000" fill-opacity="1"><g transform="translate(314.58538, 22.219646)"><g><path d="M 1.4375 -0.96875 C 1.382812 -1.1875 1.359375 -1.609375 1.359375 -2.234375 C 1.359375 -2.867188 1.476562 -3.535156 1.71875 -4.234375 L 1.9375 -4.234375 C 1.914062 -4.066406 1.90625 -3.894531 1.90625 -3.71875 C 1.90625 -2.757812 2.195312 -1.960938 2.78125 -1.328125 C 3.363281 -0.691406 4.132812 -0.375 5.09375 -0.375 C 6.082031 -0.375 6.894531 -0.671875 7.53125 -1.265625 C 8.164062 -1.867188 8.484375 -2.617188 8.484375 -3.515625 C 8.484375 -4.421875 8.175781 -5.15625 7.5625 -5.71875 L 3.046875 -9.921875 C 2.191406 -10.703125 1.765625 -11.648438 1.765625 -12.765625 C 1.765625 -13.878906 2.132812 -14.832031 2.875 -15.625 C 3.625 -16.425781 4.640625 -16.828125 5.921875 -16.828125 C 6.515625 -16.828125 7.1875 -16.75 7.9375 -16.59375 L 8.859375 -16.59375 L 8.859375 -13.6875 L 8.640625 -13.6875 C 8.640625 -14.425781 8.382812 -15.015625 7.875 -15.453125 C 7.363281 -15.890625 6.707031 -16.109375 5.90625 -16.109375 C 5.113281 -16.109375 4.445312 -15.84375 3.90625 -15.3125 C 3.363281 -14.78125 3.09375 -14.113281 3.09375 -13.3125 C 3.09375 -12.507812 3.40625 -11.816406 4.03125 -11.234375 L 8.671875 -6.953125 C 9.453125 -6.222656 9.84375 -5.226562 9.84375 -3.96875 C 9.84375 -2.71875 9.441406 -1.6875 8.640625 -0.875 C 7.847656 -0.0703125 6.78125 0.328125 5.4375 0.328125 C 4.75 0.328125 4.015625 0.21875 3.234375 0 C 2.460938 -0.207031 1.863281 -0.53125 1.4375 -0.96875 Z M 1.4375 -0.96875 "/></g></g></g></g></g></svg>