<svg xmlns="http://www.w3.org/2000/svg" xmlns:xlink="http://www.w3.org/1999/xlink" width="500" zoomAndPan="magnify" viewBox="0 0 375 374.999991" height="500" preserveAspectRatio="xMidYMid meet" version="1.0"><defs><g/><clipPath id="1cd97f2972"><path d="M 96.394531 23.3125 L 147 23.3125 L 147 87 L 96.394531 87 Z M 96.394531 23.3125 " clip-rule="nonzero"/></clipPath><clipPath id="6a5603389a"><path d="M 122.082031 2 L 145 2 L 145 46 L 122.082031 46 Z M 122.082031 2 " clip-rule="nonzero"/></clipPath><clipPath id="5a8c862bdb"><path d="M 143 0.480469 L 147 0.480469 L 147 4 L 143 4 Z M 143 0.480469 " clip-rule="nonzero"/></clipPath><clipPath id="b2086f5207"><path d="M 147 6 L 150.699219 6 L 150.699219 10 L 147 10 Z M 147 6 " clip-rule="nonzero"/></clipPath><clipPath id="3efa0ff544"><path d="M 0.078125 37 L 366.800781 37 L 366.800781 73 L 0.078125 73 Z M 0.078125 37 " clip-rule="nonzero"/></clipPath><clipPath id="173687c5b6"><rect x="0" width="367" y="0" height="36"/></clipPath><clipPath id="0bfeb30552"><rect x="0" width="367" y="0" height="89"/></clipPath></defs><g transform="matrix(1, 0, 0, 1, 4, 144)"><g clip-path="url(#0bfeb30552)"><g clip-path="url(#1cd97f2972)"><path fill="#000000" d="M 135.695312 55.09375 C 136.113281 58.777344 134.894531 61.910156 132.582031 64.636719 C 132.078125 65.234375 131.910156 65.679688 132.066406 66.4375 C 132.636719 69.222656 132.699219 72.03125 132.332031 74.851562 C 131.351562 82.382812 125.140625 87.277344 117.617188 86.289062 C 111.066406 85.429688 105.316406 82.863281 100.984375 77.710938 C 98.105469 74.285156 96.460938 70.355469 96.933594 65.761719 C 97.21875 62.996094 98.375 60.59375 100.191406 58.507812 C 102.023438 56.410156 104.121094 54.644531 106.617188 53.390625 C 107.308594 53.042969 107.699219 52.628906 107.957031 51.796875 C 108.75 49.261719 110.171875 47.023438 112.003906 45.101562 C 112.671875 44.402344 112.878906 43.800781 112.714844 42.816406 C 112.085938 39.121094 112.226562 35.453125 113.621094 31.90625 C 116.21875 25.324219 120.789062 23.3125 126.085938 23.773438 C 129.789062 24.09375 133.128906 25.339844 136.230469 27.382812 C 138.433594 28.832031 140.585938 30.332031 142.46875 32.179688 C 146.90625 36.527344 147.664062 41.832031 144.617188 47.242188 C 142.550781 50.914062 139.65625 53.660156 135.691406 55.089844 Z M 124.511719 50.328125 C 124.550781 50.25 124.589844 50.167969 124.628906 50.089844 C 123.726562 49.648438 122.824219 49.21875 121.929688 48.765625 C 119.464844 47.527344 116.941406 46.433594 114.332031 45.539062 C 113.480469 45.246094 112.917969 45.414062 112.398438 46.085938 C 111.128906 47.71875 109.988281 49.429688 109.003906 51.253906 C 108.507812 52.179688 108.710938 52.738281 109.5 53.257812 C 110.539062 53.945312 111.585938 54.648438 112.570312 55.394531 C 116.851562 58.632812 121.667969 60.875 126.488281 63.125 C 127.617188 63.652344 128.804688 64.042969 130.011719 64.40625 C 131.0625 64.71875 131.695312 64.398438 132.203125 63.550781 C 133.265625 61.769531 134.304688 59.957031 134.566406 57.867188 C 134.863281 55.441406 135.234375 55.765625 132.933594 54.480469 C 130.203125 52.957031 127.332031 51.699219 124.519531 50.324219 Z M 115.710938 69.121094 C 115.558594 69.097656 115.492188 69.070312 115.449219 69.085938 C 110.574219 71.085938 107.523438 74.804688 105.59375 79.570312 C 105.222656 80.488281 105.910156 80.824219 106.539062 81.089844 C 107.0625 81.308594 107.652344 81.15625 108.207031 81.082031 C 112.203125 80.523438 115.457031 78.46875 118.480469 75.957031 C 118.851562 75.648438 119.113281 75.304688 118.761719 74.84375 C 117.425781 73.085938 116.636719 71.035156 115.710938 69.121094 Z M 101.351562 72.9375 C 101.230469 72.976562 101.109375 73.019531 100.988281 73.0625 C 100.300781 71.65625 99.929688 70.164062 100.039062 68.59375 C 100.449219 62.535156 102.953125 57.667969 108.222656 54.398438 C 108.464844 54.25 109.039062 54.242188 108.675781 53.582031 C 106.261719 54.816406 104.066406 56.324219 102.179688 58.261719 C 97.730469 62.828125 96.9375 68.527344 99.976562 74.113281 C 100.160156 74.449219 100.207031 74.996094 100.890625 74.941406 C 101.359375 73.382812 102.328125 72.0625 103.3125 70.78125 C 103.816406 70.121094 103.945312 69.59375 103.804688 68.761719 C 103.292969 65.671875 104.074219 62.820312 105.691406 60.164062 C 106.957031 58.082031 108.753906 56.613281 110.929688 55.535156 C 109.726562 54.308594 109.714844 54.289062 108.554688 54.960938 C 108.015625 55.269531 107.488281 55.621094 107.019531 56.03125 C 102.585938 59.867188 100.699219 64.753906 101.078125 70.554688 C 101.128906 71.355469 101.261719 72.144531 101.351562 72.9375 Z M 128.464844 31.582031 C 128.167969 31.621094 127.972656 31.605469 127.8125 31.675781 C 124.898438 32.914062 122.402344 34.75 120.105469 36.902344 C 119.640625 37.339844 119.519531 37.828125 119.441406 38.386719 C 119.109375 40.808594 119.183594 43.242188 119.390625 45.671875 C 119.425781 46.09375 119.40625 46.574219 119.957031 46.734375 C 120.429688 46.871094 120.617188 46.457031 120.851562 46.207031 C 123.367188 43.496094 125.683594 40.640625 127.089844 37.171875 C 127.808594 35.402344 128.375 33.585938 128.460938 31.582031 Z M 110.957031 83.335938 C 112.71875 84.40625 114.199219 84.476562 115.839844 83.746094 C 118.65625 82.488281 121.347656 81.042969 123.765625 79.125 C 126.601562 76.878906 128.894531 74.207031 130.359375 70.839844 C 131.054688 69.257812 131.089844 67.722656 130.714844 66.089844 C 130.558594 65.414062 130.226562 65.125 129.585938 65.082031 C 128.773438 65.035156 128.960938 65.691406 128.847656 66.128906 C 127.054688 72.867188 122.976562 77.765625 116.835938 80.984375 C 115.0625 81.917969 113.199219 82.625 110.957031 83.335938 Z M 115.28125 84.75 C 120.347656 85.949219 124.519531 85.214844 127.890625 81.609375 C 130.441406 78.886719 131.316406 75.589844 130.988281 71.945312 C 127.628906 78.3125 122.125 82.023438 115.28125 84.75 Z M 142.066406 35.324219 C 142.332031 36.378906 141.898438 36.835938 141.5 37.304688 C 139.214844 39.992188 136.234375 41.507812 132.851562 42.203125 C 131.773438 42.425781 131.394531 42.878906 131.320312 43.890625 C 131.566406 43.949219 131.746094 44.035156 131.90625 44.015625 C 135.632812 43.578125 138.910156 42.160156 141.570312 39.476562 C 144.140625 36.875 144.039062 35.742188 141.164062 33.363281 C 141.121094 33.324219 141.046875 33.328125 140.902344 33.292969 C 139.394531 36.199219 136.804688 37.882812 133.917969 39.214844 C 132.507812 39.863281 132.503906 39.851562 132.429688 41.785156 C 136.277344 40.664062 139.65625 38.953125 142.070312 35.324219 Z M 108.054688 81.902344 C 109.078125 82.769531 109.953125 82.996094 111.027344 82.652344 C 115.257812 81.292969 119.101562 79.277344 122.257812 76.105469 C 125.191406 73.160156 127.128906 69.652344 128.082031 65.582031 C 128.285156 64.695312 127.894531 64.453125 127.242188 64.265625 C 126.316406 64 126.4375 64.6875 126.34375 65.234375 C 125.960938 67.503906 124.964844 69.507812 123.644531 71.359375 C 119.8125 76.71875 114.984375 80.652344 108.054688 81.902344 Z M 123.929688 48.5625 C 126.09375 49.960938 126.078125 49.945312 127.554688 48.25 C 128.804688 46.816406 129.65625 45.152344 130.441406 43.445312 C 132.214844 39.566406 132.839844 35.457031 132.84375 31.230469 C 132.84375 30.808594 132.925781 30.289062 132.203125 30.386719 C 131.730469 30.453125 131.339844 30.589844 131.390625 31.183594 C 131.410156 31.429688 131.410156 31.683594 131.421875 31.929688 C 131.519531 34.671875 130.886719 37.25 129.765625 39.738281 C 128.3125 42.949219 126.46875 45.898438 123.925781 48.5625 Z M 121.019531 47.164062 C 123.480469 48.722656 123.21875 48.304688 124.546875 46.808594 C 126.863281 44.203125 128.441406 41.144531 129.667969 37.90625 C 130.402344 35.964844 130.75 33.925781 130.726562 31.84375 C 130.722656 31.453125 130.945312 30.863281 130.269531 30.855469 C 129.789062 30.847656 129.234375 30.976562 129.085938 31.578125 C 128.964844 32.058594 128.929688 32.5625 128.847656 33.058594 C 128.375 35.859375 127.480469 38.476562 125.917969 40.902344 C 124.488281 43.117188 122.867188 45.160156 121.019531 47.167969 Z M 102.78125 77.839844 C 104.898438 72.046875 108.5 67.976562 114.117188 65.839844 C 114.585938 65.660156 114.683594 65.410156 114.574219 65.007812 C 114.46875 64.605469 114.566406 64.125 114.011719 63.71875 C 108.464844 65.914062 104.097656 69.464844 101.59375 75.09375 C 101.046875 76.324219 101.761719 77.066406 102.78125 77.839844 Z M 104.371094 69.261719 C 105.84375 67.972656 106.804688 67.039062 107.09375 65.28125 C 107.65625 61.90625 109.695312 59.410156 112.800781 57.851562 C 113.101562 57.703125 113.589844 57.746094 113.542969 57.195312 C 111.5625 55.835938 111.355469 55.804688 109.433594 57.195312 C 105.453125 60.066406 104.230469 64.144531 104.375 69.265625 Z M 120.925781 25.757812 C 119.074219 26.398438 117.8125 27.15625 117.125 28.714844 C 114.988281 33.558594 114.757812 38.644531 115.121094 43.816406 C 115.203125 44.925781 115.738281 45.363281 116.910156 45.210938 C 116.15625 38.414062 116.894531 31.953125 120.925781 25.757812 Z M 115.390625 68.273438 C 114.878906 66.230469 114.808594 66.117188 113.511719 66.753906 C 108.796875 69.058594 105.5625 72.738281 103.734375 77.640625 C 103.34375 78.691406 103.503906 78.859375 104.867188 79.566406 C 106.828125 74.445312 110.128906 70.554688 115.390625 68.273438 Z M 135.863281 29.285156 C 134.28125 27.308594 132.421875 27.339844 130.414062 27.742188 C 126.644531 28.5 123.589844 30.425781 120.992188 33.195312 C 120.257812 33.976562 120.054688 34.875 119.933594 36.203125 C 122.296875 34.101562 124.589844 32.398438 127.226562 31.210938 C 129.9375 29.988281 132.800781 29.445312 135.859375 29.285156 Z M 124.414062 25.261719 C 122.671875 24.910156 121.722656 25.472656 120.949219 26.792969 C 117.660156 32.378906 116.898438 38.421875 117.484375 44.742188 C 117.558594 45.542969 117.894531 46.03125 118.875 46.0625 C 117.878906 38.460938 119.296875 31.472656 124.417969 25.257812 Z M 123.023438 70.898438 C 124.453125 68.824219 125.378906 66.894531 125.789062 64.722656 C 125.886719 64.183594 125.800781 63.714844 125.246094 63.46875 C 123.503906 62.699219 121.847656 61.722656 119.855469 61.046875 C 120.03125 64.664062 121.269531 67.699219 123.023438 70.898438 Z M 115.0625 58.40625 C 114.527344 64.558594 116.300781 69.878906 119.324219 74.941406 C 121.011719 73.625 120.992188 73.632812 120.097656 72.019531 C 119.488281 70.925781 118.875 69.835938 118.371094 68.695312 C 117.253906 66.15625 116.492188 63.523438 116.675781 60.710938 C 116.78125 59.125 116.824219 59.125 115.058594 58.40625 Z M 136.804688 43.875 C 134.917969 44.222656 133.132812 44.777344 131.25 44.640625 C 130.808594 44.605469 130.585938 44.949219 130.421875 45.296875 C 129.574219 47.109375 128.277344 48.597656 126.925781 50.058594 C 128.496094 51.039062 128.488281 51.027344 129.851562 50.414062 C 132.910156 49.039062 134.953125 46.601562 136.804688 43.875 Z M 133.691406 54.019531 C 140.292969 53.722656 146.914062 44.121094 144.308594 38.976562 C 142.828125 45.34375 139.457031 50.316406 133.691406 54.019531 Z M 129.71875 51.417969 C 130.398438 52.195312 131.121094 52.210938 131.964844 51.855469 C 132.714844 51.539062 133.460938 51.21875 134.109375 50.71875 C 137.066406 48.414062 139.105469 45.433594 140.777344 41.675781 C 139.289062 42.402344 138.25 42.890625 137.46875 44.101562 C 135.539062 47.097656 133.304688 49.863281 129.71875 51.421875 Z M 133.824219 36.285156 C 135.734375 35.371094 137.273438 33.957031 138.628906 32.308594 C 139.171875 31.652344 138.941406 31.246094 138.394531 30.757812 C 137.382812 29.863281 136.183594 30.0625 135.015625 30.09375 C 133.570312 30.128906 133.589844 30.160156 133.585938 31.546875 C 133.585938 32.789062 133.53125 34.03125 133.503906 35.273438 C 133.5 35.617188 133.292969 36.007812 133.824219 36.28125 Z M 121.300781 31.742188 C 122.9375 30.699219 124.359375 29.398438 126.078125 28.527344 C 127.761719 27.675781 129.589844 27.210938 131.398438 26.621094 C 129.832031 25.929688 128.292969 25.492188 126.683594 25.246094 C 125.753906 25.101562 125.152344 25.382812 124.59375 26.089844 C 123.238281 27.808594 121.992188 29.585938 121.296875 31.742188 Z M 143.738281 38.734375 C 142.382812 39.960938 141.554688 40.953125 141.25 41.71875 C 139.410156 46.332031 136.902344 50.414062 132.230469 52.78125 C 133.234375 53.332031 133.261719 53.371094 133.917969 52.925781 C 138.898438 49.574219 142.195312 45.039062 143.738281 38.738281 Z M 117.5 59.941406 C 117.3125 64.667969 118.898438 68.773438 121.289062 72.695312 C 122.535156 71.652344 122.546875 71.648438 121.878906 70.363281 C 120.335938 67.410156 118.871094 64.429688 118.886719 60.980469 C 118.890625 60.121094 118.316406 59.992188 117.5 59.9375 Z M 114.101562 58.25 C 111.015625 58.628906 107.609375 62.941406 107.878906 66.15625 C 108.890625 65.507812 109.859375 65.015625 110.175781 63.640625 C 110.472656 62.34375 111.453125 61.214844 112.703125 60.789062 C 114.136719 60.304688 114.242188 59.433594 114.105469 58.25 Z M 133.082031 38.972656 C 135.195312 37.90625 136.90625 36.773438 138.40625 35.332031 C 139.035156 34.726562 139.628906 34.074219 140.023438 33.273438 C 140.222656 32.859375 140.425781 32.429688 139.898438 32.136719 C 139.421875 31.871094 139.25 32.3125 139.054688 32.617188 C 137.820312 34.507812 136.167969 35.914062 134.09375 36.785156 C 133.160156 37.175781 133.015625 37.851562 133.082031 38.972656 Z M 114.734375 32.632812 C 114.613281 32.84375 114.453125 33.042969 114.378906 33.265625 C 113.179688 36.789062 113.351562 40.390625 113.765625 44.003906 C 113.808594 44.347656 113.988281 44.628906 114.367188 44.535156 C 114.816406 44.425781 114.617188 44.027344 114.589844 43.753906 C 114.199219 40.082031 114.355469 36.421875 114.730469 32.632812 Z M 110.535156 64.34375 C 111.835938 63.859375 112.757812 63.503906 113.6875 63.179688 C 114.140625 63.023438 114.242188 62.722656 114.152344 62.308594 C 114.050781 61.84375 114.253906 61.292969 113.722656 60.855469 C 112.230469 61.410156 111.363281 62.550781 110.535156 64.339844 Z M 122.761719 52.289062 C 122.371094 50.648438 121.253906 49.726562 119.878906 49.929688 C 118.488281 50.140625 117.414062 51.582031 117.570312 53.117188 C 117.738281 54.789062 118.941406 55.871094 119.882812 57.121094 C 120.535156 57.984375 121.445312 57.804688 122.261719 57.90625 C 123.785156 58.09375 125.285156 57.933594 126.578125 56.992188 C 127.261719 56.492188 127.78125 55.847656 127.578125 54.921875 C 127.375 53.988281 126.601562 53.664062 125.789062 53.46875 C 124.914062 53.261719 124.046875 53.496094 123.109375 53.660156 C 122.746094 53.179688 122.863281 52.714844 122.761719 52.292969 Z M 122.761719 52.289062 " fill-opacity="1" fill-rule="nonzero"/></g><g clip-path="url(#6a5603389a)"><path fill="#000000" d="M 143.867188 2.789062 C 143.867188 2.789062 122.078125 44.929688 122.945312 45.335938 C 123.8125 45.742188 144.976562 3.308594 144.976562 3.308594 Z M 143.867188 2.789062 " fill-opacity="1" fill-rule="nonzero"/></g><g clip-path="url(#5a8c862bdb)"><path fill="#000000" d="M 143.289062 1.5 C 144.222656 -0.304688 147.195312 0.957031 146.175781 3.015625 C 145.730469 3.917969 144.945312 4.085938 144.277344 3.835938 C 143.421875 3.519531 142.765625 2.511719 143.289062 1.5 Z M 143.289062 1.5 " fill-opacity="1" fill-rule="nonzero"/></g><path fill="#000000" d="M 148.769531 9.386719 C 148.769531 9.386719 124.425781 50.234375 123.582031 49.78125 C 122.742188 49.328125 147.691406 8.804688 147.691406 8.804688 Z M 148.769531 9.386719 " fill-opacity="1" fill-rule="nonzero"/><g clip-path="url(#b2086f5207)"><path fill="#000000" d="M 150.160156 9.082031 C 151.078125 7.273438 148.296875 5.636719 147.222656 7.667969 C 146.753906 8.558594 147.082031 9.285156 147.675781 9.671875 C 148.441406 10.171875 149.644531 10.101562 150.160156 9.082031 Z M 150.160156 9.082031 " fill-opacity="1" fill-rule="nonzero"/></g><g clip-path="url(#3efa0ff544)"><g transform="matrix(1, 0, 0, 1, 0, 37)"><g clip-path="url(#173687c5b6)"><g fill="#000000" fill-opacity="1"><g transform="translate(1.371839, 24.738541)"><g><path d="M 10.5625 -18.515625 C 13.375 -18.515625 15.65625 -17.660156 17.40625 -15.953125 C 19.164062 -14.253906 20.046875 -12.019531 20.046875 -9.25 C 20.046875 -6.488281 19.164062 -4.253906 17.40625 -2.546875 C 15.65625 -0.847656 13.375 0 10.5625 0 L 1.59375 0 L 1.59375 -0.265625 L 1.9375 -0.265625 C 2.394531 -0.265625 2.785156 -0.425781 3.109375 -0.75 C 3.429688 -1.082031 3.601562 -1.476562 3.625 -1.9375 L 3.625 -16.75 C 3.625 -17.164062 3.453125 -17.519531 3.109375 -17.8125 C 2.765625 -18.101562 2.375 -18.25 1.9375 -18.25 L 1.609375 -18.25 L 1.59375 -18.515625 Z M 5.34375 -17.71875 L 5.34375 -0.796875 L 10.5625 -0.796875 C 12.039062 -0.796875 13.347656 -1.144531 14.484375 -1.84375 C 15.617188 -2.550781 16.5 -3.546875 17.125 -4.828125 C 17.75 -6.109375 18.0625 -7.585938 18.0625 -9.265625 C 18.0625 -11.796875 17.367188 -13.835938 15.984375 -15.390625 C 14.609375 -16.941406 12.800781 -17.71875 10.5625 -17.71875 Z M 5.34375 -17.71875 "/></g></g></g><g fill="#000000" fill-opacity="1"><g transform="translate(22.182311, 24.738541)"><g><path d="M 1.9375 -0.265625 C 2.394531 -0.265625 2.785156 -0.425781 3.109375 -0.75 C 3.429688 -1.082031 3.601562 -1.476562 3.625 -1.9375 L 3.625 -16.75 C 3.570312 -17.164062 3.382812 -17.519531 3.0625 -17.8125 C 2.75 -18.101562 2.375 -18.25 1.9375 -18.25 L 1.609375 -18.25 L 1.59375 -18.515625 L 9.34375 -18.515625 C 9.882812 -18.515625 10.476562 -18.566406 11.125 -18.671875 C 11.769531 -18.773438 12.222656 -18.882812 12.484375 -19 L 12.484375 -15.65625 L 12.21875 -15.65625 L 12.21875 -16.140625 C 12.21875 -16.554688 12.070312 -16.914062 11.78125 -17.21875 C 11.488281 -17.519531 11.140625 -17.679688 10.734375 -17.703125 L 5.34375 -17.703125 L 5.34375 -9.515625 L 9.8125 -9.515625 C 10.164062 -9.535156 10.460938 -9.671875 10.703125 -9.921875 C 10.953125 -10.171875 11.078125 -10.476562 11.078125 -10.84375 L 11.078125 -11.21875 L 11.34375 -11.21875 L 11.34375 -7.03125 L 11.078125 -7.03125 L 11.078125 -7.4375 C 11.078125 -7.789062 10.957031 -8.085938 10.71875 -8.328125 C 10.488281 -8.578125 10.195312 -8.710938 9.84375 -8.734375 L 5.34375 -8.734375 L 5.34375 -0.8125 L 9.125 -0.8125 C 10.425781 -0.8125 11.421875 -1.101562 12.109375 -1.6875 C 12.796875 -2.269531 13.367188 -3.132812 13.828125 -4.28125 L 14.09375 -4.28125 L 12.5625 0 L 1.59375 0 L 1.59375 -0.265625 Z M 1.9375 -0.265625 "/></g></g></g><g fill="#000000" fill-opacity="1"><g transform="translate(37.175404, 24.738541)"><g><path d="M 20.578125 -18.25 C 20.140625 -18.25 19.757812 -18.09375 19.4375 -17.78125 C 19.125 -17.476562 18.957031 -17.109375 18.9375 -16.671875 L 18.9375 -3.015625 C 18.9375 -1.992188 19 -1.023438 19.125 -0.109375 L 19.171875 0.375 L 18.9375 0.375 L 4.53125 -15.03125 L 4.53125 -1.859375 C 4.539062 -1.234375 4.8125 -0.769531 5.34375 -0.46875 C 5.59375 -0.332031 5.859375 -0.265625 6.140625 -0.265625 L 6.640625 -0.265625 L 6.640625 0 L 1.1875 0 L 1.1875 -0.265625 L 1.6875 -0.265625 C 2.132812 -0.265625 2.515625 -0.414062 2.828125 -0.71875 C 3.148438 -1.03125 3.3125 -1.414062 3.3125 -1.875 L 3.3125 -15.609375 C 3.3125 -16.679688 3.25 -17.640625 3.125 -18.484375 L 3.0625 -18.90625 L 3.328125 -18.90625 L 17.75 -3.515625 L 17.75 -16.640625 C 17.726562 -17.097656 17.554688 -17.476562 17.234375 -17.78125 C 16.921875 -18.09375 16.546875 -18.25 16.109375 -18.25 L 15.609375 -18.25 L 15.609375 -18.515625 L 21.0625 -18.515625 L 21.0625 -18.25 Z M 20.578125 -18.25 "/></g></g></g><g fill="#000000" fill-opacity="1"><g transform="translate(59.149416, 24.738541)"><g><path d="M 1.9375 -0.265625 C 2.394531 -0.265625 2.785156 -0.425781 3.109375 -0.75 C 3.429688 -1.082031 3.601562 -1.476562 3.625 -1.9375 L 3.625 -16.609375 C 3.601562 -17.066406 3.429688 -17.453125 3.109375 -17.765625 C 2.785156 -18.085938 2.394531 -18.25 1.9375 -18.25 L 1.59375 -18.25 L 1.59375 -18.515625 L 7.375 -18.515625 L 7.375 -18.25 L 7.03125 -18.25 C 6.570312 -18.25 6.179688 -18.085938 5.859375 -17.765625 C 5.535156 -17.453125 5.363281 -17.066406 5.34375 -16.609375 L 5.34375 -1.9375 C 5.34375 -1.476562 5.507812 -1.082031 5.84375 -0.75 C 6.175781 -0.425781 6.570312 -0.265625 7.03125 -0.265625 L 7.375 -0.265625 L 7.375 0 L 1.59375 0 L 1.59375 -0.265625 Z M 1.9375 -0.265625 "/></g></g></g><g fill="#000000" fill-opacity="1"><g transform="translate(68.087111, 24.738541)"><g><path d="M 1.609375 -1.078125 C 1.554688 -1.328125 1.53125 -1.804688 1.53125 -2.515625 C 1.53125 -3.222656 1.664062 -3.972656 1.9375 -4.765625 L 2.171875 -4.765625 C 2.148438 -4.566406 2.140625 -4.367188 2.140625 -4.171875 C 2.140625 -3.097656 2.460938 -2.203125 3.109375 -1.484375 C 3.765625 -0.773438 4.632812 -0.421875 5.71875 -0.421875 C 6.820312 -0.421875 7.726562 -0.753906 8.4375 -1.421875 C 9.15625 -2.097656 9.515625 -2.941406 9.515625 -3.953125 C 9.515625 -4.960938 9.171875 -5.785156 8.484375 -6.421875 L 3.40625 -11.140625 C 2.457031 -12.015625 1.984375 -13.078125 1.984375 -14.328125 C 1.984375 -15.585938 2.398438 -16.660156 3.234375 -17.546875 C 4.078125 -18.441406 5.210938 -18.890625 6.640625 -18.890625 C 7.304688 -18.890625 8.066406 -18.800781 8.921875 -18.625 L 9.953125 -18.625 L 9.953125 -15.375 L 9.703125 -15.375 C 9.703125 -16.195312 9.414062 -16.851562 8.84375 -17.34375 C 8.269531 -17.84375 7.535156 -18.09375 6.640625 -18.09375 C 5.742188 -18.09375 4.988281 -17.789062 4.375 -17.1875 C 3.769531 -16.59375 3.46875 -15.84375 3.46875 -14.9375 C 3.46875 -14.039062 3.820312 -13.269531 4.53125 -12.625 L 9.734375 -7.796875 C 10.617188 -6.992188 11.0625 -5.882812 11.0625 -4.46875 C 11.0625 -3.0625 10.609375 -1.898438 9.703125 -0.984375 C 8.804688 -0.078125 7.609375 0.375 6.109375 0.375 C 5.335938 0.375 4.515625 0.253906 3.640625 0.015625 C 2.765625 -0.222656 2.085938 -0.585938 1.609375 -1.078125 Z M 1.609375 -1.078125 "/></g></g></g><g fill="#000000" fill-opacity="1"><g transform="translate(80.647498, 24.738541)"><g><path d="M 1.9375 -0.265625 C 2.394531 -0.265625 2.785156 -0.425781 3.109375 -0.75 C 3.429688 -1.082031 3.601562 -1.476562 3.625 -1.9375 L 3.625 -16.75 C 3.570312 -17.164062 3.382812 -17.519531 3.0625 -17.8125 C 2.75 -18.101562 2.375 -18.25 1.9375 -18.25 L 1.609375 -18.25 L 1.59375 -18.515625 L 9.34375 -18.515625 C 9.882812 -18.515625 10.476562 -18.566406 11.125 -18.671875 C 11.769531 -18.773438 12.222656 -18.882812 12.484375 -19 L 12.484375 -15.65625 L 12.21875 -15.65625 L 12.21875 -16.140625 C 12.21875 -16.554688 12.070312 -16.914062 11.78125 -17.21875 C 11.488281 -17.519531 11.140625 -17.679688 10.734375 -17.703125 L 5.34375 -17.703125 L 5.34375 -9.515625 L 9.8125 -9.515625 C 10.164062 -9.535156 10.460938 -9.671875 10.703125 -9.921875 C 10.953125 -10.171875 11.078125 -10.476562 11.078125 -10.84375 L 11.078125 -11.21875 L 11.34375 -11.21875 L 11.34375 -7.03125 L 11.078125 -7.03125 L 11.078125 -7.4375 C 11.078125 -7.789062 10.957031 -8.085938 10.71875 -8.328125 C 10.488281 -8.578125 10.195312 -8.710938 9.84375 -8.734375 L 5.34375 -8.734375 L 5.34375 -0.8125 L 9.125 -0.8125 C 10.425781 -0.8125 11.421875 -1.101562 12.109375 -1.6875 C 12.796875 -2.269531 13.367188 -3.132812 13.828125 -4.28125 L 14.09375 -4.28125 L 12.5625 0 L 1.59375 0 L 1.59375 -0.265625 Z M 1.9375 -0.265625 "/></g></g></g><g fill="#000000" fill-opacity="1"><g transform="translate(95.909976, 24.738541)"><g/></g></g><g fill="#000000" fill-opacity="1"><g transform="translate(102.520697, 24.738541)"><g/></g></g><g fill="#000000" fill-opacity="1"><g transform="translate(109.131419, 24.738541)"><g/></g></g><g fill="#000000" fill-opacity="1"><g transform="translate(115.74214, 24.738541)"><g/></g></g><g fill="#000000" fill-opacity="1"><g transform="translate(122.352862, 24.738541)"><g/></g></g><g fill="#000000" fill-opacity="1"><g transform="translate(128.963583, 24.738541)"><g/></g></g><g fill="#000000" fill-opacity="1"><g transform="translate(135.574305, 24.738541)"><g/></g></g><g fill="#000000" fill-opacity="1"><g transform="translate(142.185026, 24.738541)"><g/></g></g><g fill="#000000" fill-opacity="1"><g transform="translate(148.79589, 24.738541)"><g><path d="M 7.03125 -0.265625 L 7.375 -0.265625 L 7.375 0 L 1.59375 0 L 1.59375 -0.265625 L 1.9375 -0.265625 C 2.394531 -0.265625 2.785156 -0.425781 3.109375 -0.75 C 3.429688 -1.082031 3.601562 -1.476562 3.625 -1.9375 L 3.625 -16.609375 C 3.601562 -17.066406 3.429688 -17.453125 3.109375 -17.765625 C 2.785156 -18.085938 2.394531 -18.25 1.9375 -18.25 L 1.59375 -18.25 L 1.59375 -18.515625 L 7.375 -18.515625 L 7.375 -18.25 L 7.03125 -18.25 C 6.570312 -18.25 6.179688 -18.085938 5.859375 -17.765625 C 5.535156 -17.453125 5.363281 -17.066406 5.34375 -16.609375 L 5.34375 -1.9375 C 5.34375 -1.476562 5.507812 -1.082031 5.84375 -0.75 C 6.175781 -0.425781 6.570312 -0.265625 7.03125 -0.265625 Z M 17.671875 0 L 16.53125 0 C 14.726562 0 13.40625 -0.503906 12.5625 -1.515625 L 6.1875 -9.203125 L 12.4375 -17.03125 C 12.570312 -17.207031 12.640625 -17.363281 12.640625 -17.5 C 12.640625 -17.644531 12.613281 -17.769531 12.5625 -17.875 C 12.425781 -18.144531 12.171875 -18.28125 11.796875 -18.28125 L 11.53125 -18.28125 L 11.53125 -18.515625 L 17.109375 -18.515625 L 17.109375 -18.28125 L 17.015625 -18.28125 C 15.847656 -18.28125 14.894531 -17.863281 14.15625 -17.03125 L 7.9375 -9.84375 L 15.15625 -1.34375 C 15.863281 -0.644531 16.703125 -0.285156 17.671875 -0.265625 Z M 17.671875 0 "/></g></g></g><g fill="#000000" fill-opacity="1"><g transform="translate(166.168885, 24.738541)"><g><path d="M 20.578125 -18.25 C 20.140625 -18.25 19.757812 -18.09375 19.4375 -17.78125 C 19.125 -17.476562 18.957031 -17.109375 18.9375 -16.671875 L 18.9375 -3.015625 C 18.9375 -1.992188 19 -1.023438 19.125 -0.109375 L 19.171875 0.375 L 18.9375 0.375 L 4.53125 -15.03125 L 4.53125 -1.859375 C 4.539062 -1.234375 4.8125 -0.769531 5.34375 -0.46875 C 5.59375 -0.332031 5.859375 -0.265625 6.140625 -0.265625 L 6.640625 -0.265625 L 6.640625 0 L 1.1875 0 L 1.1875 -0.265625 L 1.6875 -0.265625 C 2.132812 -0.265625 2.515625 -0.414062 2.828125 -0.71875 C 3.148438 -1.03125 3.3125 -1.414062 3.3125 -1.875 L 3.3125 -15.609375 C 3.3125 -16.679688 3.25 -17.640625 3.125 -18.484375 L 3.0625 -18.90625 L 3.328125 -18.90625 L 17.75 -3.515625 L 17.75 -16.640625 C 17.726562 -17.097656 17.554688 -17.476562 17.234375 -17.78125 C 16.921875 -18.09375 16.546875 -18.25 16.109375 -18.25 L 15.609375 -18.25 L 15.609375 -18.515625 L 21.0625 -18.515625 L 21.0625 -18.25 Z M 20.578125 -18.25 "/></g></g></g><g fill="#000000" fill-opacity="1"><g transform="translate(188.142897, 24.738541)"><g><path d="M 1.9375 -0.265625 C 2.394531 -0.265625 2.785156 -0.425781 3.109375 -0.75 C 3.429688 -1.082031 3.601562 -1.476562 3.625 -1.9375 L 3.625 -16.609375 C 3.601562 -17.066406 3.429688 -17.453125 3.109375 -17.765625 C 2.785156 -18.085938 2.394531 -18.25 1.9375 -18.25 L 1.59375 -18.25 L 1.59375 -18.515625 L 7.375 -18.515625 L 7.375 -18.25 L 7.03125 -18.25 C 6.570312 -18.25 6.179688 -18.085938 5.859375 -17.765625 C 5.535156 -17.453125 5.363281 -17.066406 5.34375 -16.609375 L 5.34375 -1.9375 C 5.34375 -1.476562 5.507812 -1.082031 5.84375 -0.75 C 6.175781 -0.425781 6.570312 -0.265625 7.03125 -0.265625 L 7.375 -0.265625 L 7.375 0 L 1.59375 0 L 1.59375 -0.265625 Z M 1.9375 -0.265625 "/></g></g></g><g fill="#000000" fill-opacity="1"><g transform="translate(197.080592, 24.738541)"><g><path d="M 15.578125 -16.15625 C 15.578125 -16.582031 15.425781 -16.945312 15.125 -17.25 C 14.832031 -17.5625 14.484375 -17.726562 14.078125 -17.75 L 9.046875 -17.75 L 9.046875 -1.90625 C 9.066406 -1.445312 9.238281 -1.054688 9.5625 -0.734375 C 9.882812 -0.421875 10.273438 -0.265625 10.734375 -0.265625 L 11.078125 -0.265625 L 11.078125 0 L 5.296875 0 L 5.296875 -0.265625 L 5.640625 -0.265625 C 6.097656 -0.265625 6.488281 -0.421875 6.8125 -0.734375 C 7.132812 -1.054688 7.304688 -1.4375 7.328125 -1.875 L 7.328125 -17.75 L 2.296875 -17.75 C 1.878906 -17.726562 1.523438 -17.5625 1.234375 -17.25 C 0.941406 -16.945312 0.796875 -16.582031 0.796875 -16.15625 L 0.796875 -15.71875 L 0.53125 -15.6875 L 0.53125 -19.015625 C 0.789062 -18.910156 1.25 -18.804688 1.90625 -18.703125 C 2.5625 -18.597656 3.160156 -18.546875 3.703125 -18.546875 L 12.640625 -18.546875 C 13.503906 -18.546875 14.222656 -18.609375 14.796875 -18.734375 C 15.367188 -18.867188 15.71875 -18.960938 15.84375 -19.015625 L 15.84375 -15.6875 L 15.578125 -15.71875 Z M 15.578125 -16.15625 "/></g></g></g><g fill="#000000" fill-opacity="1"><g transform="translate(213.422296, 24.738541)"><g/></g></g><g fill="#000000" fill-opacity="1"><g transform="translate(220.033018, 24.738541)"><g><path d="M 18.9375 -0.265625 L 19.15625 -0.265625 L 19.15625 0 L 13.203125 0 L 13.203125 -0.265625 L 13.4375 -0.265625 C 13.8125 -0.265625 14.085938 -0.382812 14.265625 -0.625 C 14.453125 -0.863281 14.546875 -1.085938 14.546875 -1.296875 C 14.546875 -1.503906 14.515625 -1.71875 14.453125 -1.9375 L 12.75 -6.421875 L 5.609375 -6.421875 L 3.84375 -1.90625 C 3.769531 -1.695312 3.734375 -1.488281 3.734375 -1.28125 C 3.734375 -1.082031 3.828125 -0.863281 4.015625 -0.625 C 4.203125 -0.382812 4.476562 -0.265625 4.84375 -0.265625 L 5.078125 -0.265625 L 5.078125 0 L -0.234375 0 L -0.234375 -0.265625 L 0 -0.265625 C 0.445312 -0.265625 0.878906 -0.40625 1.296875 -0.6875 C 1.722656 -0.96875 2.066406 -1.382812 2.328125 -1.9375 L 8.3125 -16.15625 C 8.96875 -17.59375 9.296875 -18.503906 9.296875 -18.890625 L 9.53125 -18.890625 L 16.625 -1.9375 C 16.863281 -1.382812 17.191406 -0.96875 17.609375 -0.6875 C 18.035156 -0.40625 18.476562 -0.265625 18.9375 -0.265625 Z M 5.9375 -7.21875 L 12.4375 -7.21875 L 9.265625 -15.71875 Z M 5.9375 -7.21875 "/></g></g></g><g fill="#000000" fill-opacity="1"><g transform="translate(238.860357, 24.738541)"><g><path d="M 7.03125 -17.703125 L 5.34375 -17.703125 L 5.34375 -1.9375 C 5.34375 -1.476562 5.503906 -1.082031 5.828125 -0.75 C 6.160156 -0.425781 6.5625 -0.265625 7.03125 -0.265625 L 7.359375 -0.265625 L 7.375 0 L 1.59375 0 L 1.59375 -0.265625 L 1.9375 -0.265625 C 2.394531 -0.265625 2.785156 -0.421875 3.109375 -0.734375 C 3.429688 -1.054688 3.601562 -1.445312 3.625 -1.90625 L 3.625 -16.59375 C 3.601562 -17.050781 3.429688 -17.441406 3.109375 -17.765625 C 2.785156 -18.085938 2.394531 -18.25 1.9375 -18.25 L 1.59375 -18.25 L 1.59375 -18.515625 L 8.734375 -18.515625 C 10.335938 -18.515625 11.597656 -18.066406 12.515625 -17.171875 C 13.429688 -16.285156 13.890625 -15.132812 13.890625 -13.71875 C 13.890625 -12.300781 13.453125 -11.070312 12.578125 -10.03125 C 11.703125 -9 10.640625 -8.484375 9.390625 -8.484375 C 9.648438 -8.367188 9.960938 -8.128906 10.328125 -7.765625 C 10.691406 -7.398438 11.015625 -7.023438 11.296875 -6.640625 C 12.816406 -4.472656 13.804688 -3.132812 14.265625 -2.625 C 14.722656 -2.125 15.046875 -1.78125 15.234375 -1.59375 C 15.429688 -1.414062 15.644531 -1.238281 15.875 -1.0625 C 16.101562 -0.882812 16.332031 -0.742188 16.5625 -0.640625 C 17.070312 -0.390625 17.617188 -0.265625 18.203125 -0.265625 L 18.203125 0 L 16.75 0 C 15.988281 0 15.28125 -0.132812 14.625 -0.40625 C 13.976562 -0.675781 13.488281 -0.957031 13.15625 -1.25 C 12.832031 -1.539062 12.550781 -1.820312 12.3125 -2.09375 C 12.070312 -2.375 11.414062 -3.289062 10.34375 -4.84375 C 9.269531 -6.394531 8.644531 -7.28125 8.46875 -7.5 C 8.289062 -7.71875 8.101562 -7.929688 7.90625 -8.140625 C 7.34375 -8.742188 6.78125 -9.046875 6.21875 -9.046875 L 6.21875 -9.3125 C 6.351562 -9.289062 6.535156 -9.28125 6.765625 -9.28125 C 6.992188 -9.28125 7.28125 -9.289062 7.625 -9.3125 C 9.8125 -9.363281 11.1875 -10.28125 11.75 -12.0625 C 11.851562 -12.414062 11.90625 -12.742188 11.90625 -13.046875 C 11.90625 -13.359375 11.90625 -13.5625 11.90625 -13.65625 C 11.863281 -14.832031 11.550781 -15.78125 10.96875 -16.5 C 10.394531 -17.226562 9.613281 -17.617188 8.625 -17.671875 C 8.195312 -17.691406 7.664062 -17.703125 7.03125 -17.703125 Z M 7.03125 -17.703125 "/></g></g></g><g fill="#000000" fill-opacity="1"><g transform="translate(255.307599, 24.738541)"><g><path d="M 15.578125 -16.15625 C 15.578125 -16.582031 15.425781 -16.945312 15.125 -17.25 C 14.832031 -17.5625 14.484375 -17.726562 14.078125 -17.75 L 9.046875 -17.75 L 9.046875 -1.90625 C 9.066406 -1.445312 9.238281 -1.054688 9.5625 -0.734375 C 9.882812 -0.421875 10.273438 -0.265625 10.734375 -0.265625 L 11.078125 -0.265625 L 11.078125 0 L 5.296875 0 L 5.296875 -0.265625 L 5.640625 -0.265625 C 6.097656 -0.265625 6.488281 -0.421875 6.8125 -0.734375 C 7.132812 -1.054688 7.304688 -1.4375 7.328125 -1.875 L 7.328125 -17.75 L 2.296875 -17.75 C 1.878906 -17.726562 1.523438 -17.5625 1.234375 -17.25 C 0.941406 -16.945312 0.796875 -16.582031 0.796875 -16.15625 L 0.796875 -15.71875 L 0.53125 -15.6875 L 0.53125 -19.015625 C 0.789062 -18.910156 1.25 -18.804688 1.90625 -18.703125 C 2.5625 -18.597656 3.160156 -18.546875 3.703125 -18.546875 L 12.640625 -18.546875 C 13.503906 -18.546875 14.222656 -18.609375 14.796875 -18.734375 C 15.367188 -18.867188 15.71875 -18.960938 15.84375 -19.015625 L 15.84375 -15.6875 L 15.578125 -15.71875 Z M 15.578125 -16.15625 "/></g></g></g><g fill="#000000" fill-opacity="1"><g transform="translate(271.649303, 24.738541)"><g><path d="M 26.265625 -18.25 L 26.0625 -18.25 C 25.40625 -18.25 24.832031 -18.007812 24.34375 -17.53125 C 24.0625 -17.289062 23.859375 -16.984375 23.734375 -16.609375 L 19.34375 -2.625 C 18.988281 -1.507812 18.796875 -0.53125 18.765625 0.3125 L 18.515625 0.3125 L 13.125 -14.8125 L 9.109375 -2.625 C 8.773438 -1.53125 8.585938 -0.550781 8.546875 0.3125 L 8.3125 0.3125 L 2.3125 -16.640625 C 2.09375 -17.171875 1.765625 -17.570312 1.328125 -17.84375 C 0.890625 -18.113281 0.441406 -18.25 -0.015625 -18.25 L -0.234375 -18.25 L -0.234375 -18.515625 L 5.640625 -18.515625 L 5.640625 -18.25 L 5.40625 -18.25 C 5.03125 -18.25 4.75 -18.128906 4.5625 -17.890625 C 4.382812 -17.648438 4.296875 -17.425781 4.296875 -17.21875 C 4.296875 -17.007812 4.320312 -16.816406 4.375 -16.640625 L 8.390625 -3.75 L 13.3125 -18.9375 L 13.546875 -18.90625 L 18.765625 -4.28125 L 22.3125 -16.671875 C 22.363281 -16.859375 22.390625 -17.050781 22.390625 -17.25 C 22.390625 -17.457031 22.300781 -17.675781 22.125 -17.90625 C 21.945312 -18.132812 21.671875 -18.25 21.296875 -18.25 L 21.0625 -18.25 L 21.0625 -18.515625 L 26.265625 -18.515625 Z M 26.265625 -18.25 "/></g></g></g><g fill="#000000" fill-opacity="1"><g transform="translate(296.95506, 24.738541)"><g><path d="M 4.484375 -16.234375 C 6.234375 -18.003906 8.519531 -18.890625 11.34375 -18.890625 C 14.164062 -18.890625 16.457031 -18.003906 18.21875 -16.234375 C 19.988281 -14.460938 20.875 -12.140625 20.875 -9.265625 C 20.875 -6.390625 19.988281 -4.0625 18.21875 -2.28125 C 16.457031 -0.507812 14.164062 0.375 11.34375 0.375 C 8.519531 0.375 6.234375 -0.507812 4.484375 -2.28125 C 2.734375 -4.0625 1.859375 -6.390625 1.859375 -9.265625 C 1.859375 -12.140625 2.734375 -14.460938 4.484375 -16.234375 Z M 5.9375 -2.859375 C 7.300781 -1.234375 9.109375 -0.421875 11.359375 -0.421875 C 13.609375 -0.421875 15.414062 -1.234375 16.78125 -2.859375 C 18.144531 -4.484375 18.828125 -6.617188 18.828125 -9.265625 C 18.828125 -11.003906 18.519531 -12.539062 17.90625 -13.875 C 17.289062 -15.21875 16.414062 -16.253906 15.28125 -16.984375 C 14.144531 -17.722656 12.832031 -18.09375 11.34375 -18.09375 C 9.101562 -18.09375 7.300781 -17.28125 5.9375 -15.65625 C 4.570312 -14.03125 3.890625 -11.894531 3.890625 -9.25 C 3.890625 -6.613281 4.570312 -4.484375 5.9375 -2.859375 Z M 5.9375 -2.859375 "/></g></g></g><g fill="#000000" fill-opacity="1"><g transform="translate(318.585268, 24.738541)"><g><path d="M 7.03125 -17.703125 L 5.34375 -17.703125 L 5.34375 -1.9375 C 5.34375 -1.476562 5.503906 -1.082031 5.828125 -0.75 C 6.160156 -0.425781 6.5625 -0.265625 7.03125 -0.265625 L 7.359375 -0.265625 L 7.375 0 L 1.59375 0 L 1.59375 -0.265625 L 1.9375 -0.265625 C 2.394531 -0.265625 2.785156 -0.421875 3.109375 -0.734375 C 3.429688 -1.054688 3.601562 -1.445312 3.625 -1.90625 L 3.625 -16.59375 C 3.601562 -17.050781 3.429688 -17.441406 3.109375 -17.765625 C 2.785156 -18.085938 2.394531 -18.25 1.9375 -18.25 L 1.59375 -18.25 L 1.59375 -18.515625 L 8.734375 -18.515625 C 10.335938 -18.515625 11.597656 -18.066406 12.515625 -17.171875 C 13.429688 -16.285156 13.890625 -15.132812 13.890625 -13.71875 C 13.890625 -12.300781 13.453125 -11.070312 12.578125 -10.03125 C 11.703125 -9 10.640625 -8.484375 9.390625 -8.484375 C 9.648438 -8.367188 9.960938 -8.128906 10.328125 -7.765625 C 10.691406 -7.398438 11.015625 -7.023438 11.296875 -6.640625 C 12.816406 -4.472656 13.804688 -3.132812 14.265625 -2.625 C 14.722656 -2.125 15.046875 -1.78125 15.234375 -1.59375 C 15.429688 -1.414062 15.644531 -1.238281 15.875 -1.0625 C 16.101562 -0.882812 16.332031 -0.742188 16.5625 -0.640625 C 17.070312 -0.390625 17.617188 -0.265625 18.203125 -0.265625 L 18.203125 0 L 16.75 0 C 15.988281 0 15.28125 -0.132812 14.625 -0.40625 C 13.976562 -0.675781 13.488281 -0.957031 13.15625 -1.25 C 12.832031 -1.539062 12.550781 -1.820312 12.3125 -2.09375 C 12.070312 -2.375 11.414062 -3.289062 10.34375 -4.84375 C 9.269531 -6.394531 8.644531 -7.28125 8.46875 -7.5 C 8.289062 -7.71875 8.101562 -7.929688 7.90625 -8.140625 C 7.34375 -8.742188 6.78125 -9.046875 6.21875 -9.046875 L 6.21875 -9.3125 C 6.351562 -9.289062 6.535156 -9.28125 6.765625 -9.28125 C 6.992188 -9.28125 7.28125 -9.289062 7.625 -9.3125 C 9.8125 -9.363281 11.1875 -10.28125 11.75 -12.0625 C 11.851562 -12.414062 11.90625 -12.742188 11.90625 -13.046875 C 11.90625 -13.359375 11.90625 -13.5625 11.90625 -13.65625 C 11.863281 -14.832031 11.550781 -15.78125 10.96875 -16.5 C 10.394531 -17.226562 9.613281 -17.617188 8.625 -17.671875 C 8.195312 -17.691406 7.664062 -17.703125 7.03125 -17.703125 Z M 7.03125 -17.703125 "/></g></g></g><g fill="#000000" fill-opacity="1"><g transform="translate(335.69369, 24.738541)"><g><path d="M 7.03125 -0.265625 L 7.375 -0.265625 L 7.375 0 L 1.59375 0 L 1.59375 -0.265625 L 1.9375 -0.265625 C 2.394531 -0.265625 2.785156 -0.425781 3.109375 -0.75 C 3.429688 -1.082031 3.601562 -1.476562 3.625 -1.9375 L 3.625 -16.609375 C 3.601562 -17.066406 3.429688 -17.453125 3.109375 -17.765625 C 2.785156 -18.085938 2.394531 -18.25 1.9375 -18.25 L 1.59375 -18.25 L 1.59375 -18.515625 L 7.375 -18.515625 L 7.375 -18.25 L 7.03125 -18.25 C 6.570312 -18.25 6.179688 -18.085938 5.859375 -17.765625 C 5.535156 -17.453125 5.363281 -17.066406 5.34375 -16.609375 L 5.34375 -1.9375 C 5.34375 -1.476562 5.507812 -1.082031 5.84375 -0.75 C 6.175781 -0.425781 6.570312 -0.265625 7.03125 -0.265625 Z M 17.671875 0 L 16.53125 0 C 14.726562 0 13.40625 -0.503906 12.5625 -1.515625 L 6.1875 -9.203125 L 12.4375 -17.03125 C 12.570312 -17.207031 12.640625 -17.363281 12.640625 -17.5 C 12.640625 -17.644531 12.613281 -17.769531 12.5625 -17.875 C 12.425781 -18.144531 12.171875 -18.28125 11.796875 -18.28125 L 11.53125 -18.28125 L 11.53125 -18.515625 L 17.109375 -18.515625 L 17.109375 -18.28125 L 17.015625 -18.28125 C 15.847656 -18.28125 14.894531 -17.863281 14.15625 -17.03125 L 7.9375 -9.84375 L 15.15625 -1.34375 C 15.863281 -0.644531 16.703125 -0.285156 17.671875 -0.265625 Z M 17.671875 0 "/></g></g></g><g fill="#000000" fill-opacity="1"><g transform="translate(353.066685, 24.738541)"><g><path d="M 1.609375 -1.078125 C 1.554688 -1.328125 1.53125 -1.804688 1.53125 -2.515625 C 1.53125 -3.222656 1.664062 -3.972656 1.9375 -4.765625 L 2.171875 -4.765625 C 2.148438 -4.566406 2.140625 -4.367188 2.140625 -4.171875 C 2.140625 -3.097656 2.460938 -2.203125 3.109375 -1.484375 C 3.765625 -0.773438 4.632812 -0.421875 5.71875 -0.421875 C 6.820312 -0.421875 7.726562 -0.753906 8.4375 -1.421875 C 9.15625 -2.097656 9.515625 -2.941406 9.515625 -3.953125 C 9.515625 -4.960938 9.171875 -5.785156 8.484375 -6.421875 L 3.40625 -11.140625 C 2.457031 -12.015625 1.984375 -13.078125 1.984375 -14.328125 C 1.984375 -15.585938 2.398438 -16.660156 3.234375 -17.546875 C 4.078125 -18.441406 5.210938 -18.890625 6.640625 -18.890625 C 7.304688 -18.890625 8.066406 -18.800781 8.921875 -18.625 L 9.953125 -18.625 L 9.953125 -15.375 L 9.703125 -15.375 C 9.703125 -16.195312 9.414062 -16.851562 8.84375 -17.34375 C 8.269531 -17.84375 7.535156 -18.09375 6.640625 -18.09375 C 5.742188 -18.09375 4.988281 -17.789062 4.375 -17.1875 C 3.769531 -16.59375 3.46875 -15.84375 3.46875 -14.9375 C 3.46875 -14.039062 3.820312 -13.269531 4.53125 -12.625 L 9.734375 -7.796875 C 10.617188 -6.992188 11.0625 -5.882812 11.0625 -4.46875 C 11.0625 -3.0625 10.609375 -1.898438 9.703125 -0.984375 C 8.804688 -0.078125 7.609375 0.375 6.109375 0.375 C 5.335938 0.375 4.515625 0.253906 3.640625 0.015625 C 2.765625 -0.222656 2.085938 -0.585938 1.609375 -1.078125 Z M 1.609375 -1.078125 "/></g></g></g></g></g></g></g></g></svg>