<svg xmlns="http://www.w3.org/2000/svg" xmlns:xlink="http://www.w3.org/1999/xlink" width="500" zoomAndPan="magnify" viewBox="0 0 375 374.999991" height="500" preserveAspectRatio="xMidYMid meet" version="1.0"><path fill="#000000" d="M 238.707031 237.125 C 240.492188 252.890625 235.289062 266.300781 225.390625 277.96875 C 223.21875 280.535156 222.511719 282.433594 223.175781 285.679688 C 225.617188 297.589844 225.886719 309.609375 224.3125 321.675781 C 220.113281 353.910156 193.523438 374.851562 161.332031 370.625 C 133.296875 366.953125 108.679688 355.96875 90.144531 333.910156 C 77.820312 319.25 70.773438 302.4375 72.800781 282.789062 C 74.019531 270.949219 78.96875 260.671875 86.753906 251.742188 C 94.582031 242.765625 103.574219 235.210938 114.25 229.839844 C 117.203125 228.351562 118.875 226.578125 119.980469 223.019531 C 123.382812 212.175781 129.46875 202.605469 137.308594 194.367188 C 140.160156 191.378906 141.054688 188.8125 140.34375 184.601562 C 137.664062 168.78125 138.261719 153.085938 144.230469 137.917969 C 155.347656 109.75 174.90625 101.128906 197.582031 103.101562 C 213.421875 104.476562 227.730469 109.804688 241.003906 118.550781 C 250.433594 124.761719 259.636719 131.167969 267.707031 139.078125 C 286.695312 157.679688 289.941406 180.375 276.894531 203.527344 C 268.046875 219.25 255.667969 231 238.691406 237.109375 Z M 190.84375 216.738281 C 191.015625 216.398438 191.171875 216.058594 191.339844 215.71875 C 187.484375 213.832031 183.613281 211.988281 179.78125 210.0625 C 169.246094 204.761719 158.441406 200.082031 147.265625 196.238281 C 143.621094 194.992188 141.222656 195.714844 138.996094 198.59375 C 133.566406 205.582031 128.675781 212.898438 124.460938 220.707031 C 122.335938 224.664062 123.214844 227.046875 126.589844 229.269531 C 131.042969 232.21875 135.523438 235.226562 139.734375 238.414062 C 158.058594 252.28125 178.664062 261.878906 199.296875 271.503906 C 204.132812 273.757812 209.222656 275.429688 214.382812 276.976562 C 218.878906 278.324219 221.589844 276.945312 223.757812 273.316406 C 228.3125 265.707031 232.761719 257.949219 233.871094 249.003906 C 235.144531 238.613281 236.734375 240.003906 226.890625 234.515625 C 215.207031 227.996094 202.914062 222.609375 190.871094 216.726562 Z M 153.164062 297.164062 C 152.527344 297.0625 152.242188 296.9375 152.042969 297.007812 C 131.183594 305.570312 118.125 321.476562 109.871094 341.875 C 108.28125 345.804688 111.230469 347.234375 113.910156 348.367188 C 116.152344 349.320312 118.675781 348.667969 121.058594 348.339844 C 138.160156 345.957031 152.085938 337.15625 165.019531 326.410156 C 166.609375 325.089844 167.730469 323.617188 166.226562 321.644531 C 160.511719 314.132812 157.136719 305.34375 153.164062 297.164062 Z M 91.71875 313.496094 C 91.191406 313.664062 90.683594 313.847656 90.15625 314.019531 C 87.222656 308.007812 85.632812 301.613281 86.089844 294.894531 C 87.847656 268.980469 98.566406 248.140625 121.128906 234.164062 C 122.164062 233.523438 124.617188 233.496094 123.058594 230.660156 C 112.734375 235.949219 103.332031 242.398438 95.25 250.691406 C 76.21875 270.226562 72.8125 294.625 85.832031 318.527344 C 86.613281 319.957031 86.8125 322.296875 89.746094 322.070312 C 91.746094 315.394531 95.886719 309.75 100.097656 304.265625 C 102.253906 301.445312 102.808594 299.175781 102.210938 295.617188 C 100.027344 282.390625 103.359375 270.199219 110.28125 258.828125 C 115.699219 249.914062 123.398438 243.632812 132.703125 239.023438 C 127.554688 233.765625 127.511719 233.695312 122.546875 236.558594 C 120.234375 237.890625 117.980469 239.394531 115.96875 241.136719 C 96.992188 257.554688 88.925781 278.476562 90.539062 303.300781 C 90.769531 306.71875 91.320312 310.09375 91.71875 313.496094 Z M 207.761719 136.515625 C 206.484375 136.683594 205.648438 136.628906 204.96875 136.925781 C 192.503906 142.226562 181.8125 150.082031 171.984375 159.296875 C 169.984375 161.167969 169.472656 163.25 169.148438 165.632812 C 167.714844 176.011719 168.039062 186.414062 168.921875 196.808594 C 169.074219 198.621094 168.992188 200.675781 171.34375 201.359375 C 173.371094 201.9375 174.167969 200.179688 175.175781 199.105469 C 185.9375 187.507812 195.851562 175.285156 201.878906 160.445312 C 204.953125 152.875 207.378906 145.089844 207.746094 136.527344 Z M 132.828125 357.996094 C 140.359375 362.558594 146.699219 362.871094 153.730469 359.738281 C 165.785156 354.351562 177.300781 348.171875 187.652344 339.960938 C 199.792969 330.351562 209.589844 318.925781 215.875 304.519531 C 218.835938 297.746094 218.992188 291.179688 217.390625 284.191406 C 216.726562 281.300781 215.304688 280.050781 212.554688 279.882812 C 209.082031 279.667969 209.890625 282.492188 209.394531 284.347656 C 201.722656 313.195312 184.277344 334.148438 157.984375 347.929688 C 150.398438 351.914062 142.414062 354.945312 132.828125 357.980469 Z M 151.335938 364.035156 C 173.019531 369.164062 190.871094 366.03125 205.308594 350.59375 C 216.214844 338.941406 219.957031 324.835938 218.566406 309.242188 C 204.175781 336.488281 180.621094 352.367188 151.335938 364.035156 Z M 265.976562 152.535156 C 267.109375 157.042969 265.253906 159.011719 263.550781 161.011719 C 253.78125 172.507812 241.015625 179 226.539062 181.976562 C 221.914062 182.929688 220.296875 184.855469 219.984375 189.195312 C 221.035156 189.433594 221.800781 189.816406 222.496094 189.734375 C 238.4375 187.847656 252.476562 181.792969 263.847656 170.296875 C 274.851562 159.167969 274.425781 154.320312 262.117188 144.140625 C 261.933594 143.984375 261.609375 144 261 143.84375 C 254.546875 156.277344 243.457031 163.492188 231.105469 169.175781 C 225.0625 171.957031 225.050781 171.914062 224.722656 180.179688 C 241.203125 175.386719 255.667969 168.058594 265.988281 152.535156 Z M 120.40625 351.855469 C 124.789062 355.570312 128.53125 356.535156 133.125 355.058594 C 151.234375 349.246094 167.6875 340.613281 181.199219 327.046875 C 193.75 314.445312 202.046875 299.429688 206.117188 282.023438 C 206.996094 278.222656 205.324219 277.1875 202.53125 276.378906 C 198.574219 275.246094 199.082031 278.195312 198.6875 280.535156 C 197.042969 290.230469 192.785156 298.820312 187.128906 306.730469 C 170.722656 329.671875 150.058594 346.496094 120.40625 351.855469 Z M 188.347656 209.183594 C 197.609375 215.164062 197.550781 215.109375 203.863281 207.851562 C 209.207031 201.710938 212.867188 194.59375 216.214844 187.292969 C 223.816406 170.695312 226.480469 153.101562 226.496094 135.011719 C 226.496094 133.210938 226.851562 130.984375 223.757812 131.410156 C 221.730469 131.695312 220.070312 132.273438 220.285156 134.8125 C 220.371094 135.875 220.371094 136.953125 220.410156 138.015625 C 220.835938 149.742188 218.128906 160.769531 213.320312 171.417969 C 207.109375 185.167969 199.226562 197.785156 188.332031 209.183594 Z M 175.898438 203.199219 C 186.433594 209.863281 185.3125 208.078125 190.984375 201.683594 C 200.898438 190.527344 207.664062 177.441406 212.910156 163.589844 C 216.058594 155.269531 217.53125 146.550781 217.433594 137.632812 C 217.417969 135.976562 218.382812 133.453125 215.492188 133.410156 C 213.421875 133.378906 211.050781 133.933594 210.414062 136.5 C 209.902344 138.570312 209.746094 140.722656 209.394531 142.835938 C 207.378906 154.828125 203.550781 166.03125 196.855469 176.40625 C 190.746094 185.890625 183.796875 194.625 175.898438 203.214844 Z M 97.828125 334.476562 C 106.890625 309.679688 122.304688 292.257812 146.34375 283.113281 C 148.355469 282.347656 148.769531 281.269531 148.316406 279.554688 C 147.859375 277.839844 148.273438 275.785156 145.902344 274.039062 C 122.152344 283.441406 103.460938 298.636719 92.753906 322.710938 C 90.414062 327.984375 93.476562 331.160156 97.828125 334.476562 Z M 104.636719 297.757812 C 110.933594 292.242188 115.046875 288.246094 116.292969 280.730469 C 118.691406 266.285156 127.425781 255.597656 140.714844 248.933594 C 142.003906 248.296875 144.089844 248.480469 143.890625 246.128906 C 135.410156 240.316406 134.53125 240.171875 126.304688 246.128906 C 109.273438 258.417969 104.027344 275.855469 104.652344 297.773438 Z M 175.484375 111.605469 C 167.574219 114.339844 162.167969 117.589844 159.21875 124.25 C 150.074219 144.976562 149.09375 166.738281 150.65625 188.867188 C 150.996094 193.617188 153.292969 195.488281 158.296875 194.835938 C 155.078125 165.761719 158.242188 138.101562 175.484375 111.605469 Z M 151.804688 293.535156 C 149.621094 284.785156 149.308594 284.304688 143.761719 287.027344 C 123.582031 296.894531 109.742188 312.644531 101.914062 333.609375 C 100.242188 338.105469 100.921875 338.828125 106.765625 341.863281 C 115.144531 319.945312 129.285156 303.289062 151.804688 293.535156 Z M 239.429688 126.691406 C 232.648438 118.242188 224.695312 118.367188 216.101562 120.097656 C 199.976562 123.328125 186.886719 131.566406 175.769531 143.417969 C 172.636719 146.761719 171.769531 150.621094 171.246094 156.304688 C 181.355469 147.300781 191.171875 140.015625 202.457031 134.925781 C 214.058594 129.710938 226.3125 127.382812 239.414062 126.691406 Z M 190.417969 109.480469 C 182.960938 107.976562 178.902344 110.386719 175.585938 116.027344 C 161.515625 139.929688 158.253906 165.789062 160.765625 192.835938 C 161.078125 196.269531 162.523438 198.351562 166.722656 198.492188 C 162.453125 165.957031 168.523438 136.058594 190.433594 109.464844 Z M 184.476562 304.761719 C 190.589844 295.886719 194.558594 287.636719 196.304688 278.335938 C 196.730469 276.027344 196.359375 274.027344 193.992188 272.976562 C 186.53125 269.675781 179.441406 265.492188 170.90625 262.613281 C 171.65625 278.082031 176.960938 291.082031 184.476562 304.761719 Z M 150.398438 251.300781 C 148.101562 277.640625 155.703125 300.394531 168.636719 322.070312 C 175.855469 316.429688 175.785156 316.472656 171.941406 309.554688 C 169.34375 304.890625 166.707031 300.210938 164.550781 295.335938 C 159.773438 284.476562 156.511719 273.203125 157.304688 261.167969 C 157.757812 254.378906 157.929688 254.378906 150.386719 251.300781 Z M 243.457031 189.125 C 235.386719 190.613281 227.742188 192.980469 219.675781 192.398438 C 217.789062 192.257812 216.839844 193.730469 216.144531 195.203125 C 212.511719 202.960938 206.953125 209.339844 201.167969 215.589844 C 207.890625 219.789062 207.863281 219.730469 213.691406 217.109375 C 226.792969 211.222656 235.527344 200.789062 243.457031 189.125 Z M 230.125 232.53125 C 258.390625 231.269531 286.722656 190.1875 275.578125 168.171875 C 269.238281 195.417969 254.816406 216.695312 230.125 232.53125 Z M 213.121094 221.402344 C 216.042969 224.734375 219.136719 224.792969 222.738281 223.273438 C 225.957031 221.914062 229.148438 220.550781 231.914062 218.410156 C 244.578125 208.546875 253.3125 195.800781 260.460938 179.710938 C 254.09375 182.828125 249.640625 184.914062 246.304688 190.085938 C 238.039062 202.917969 228.480469 214.753906 213.121094 221.417969 Z M 230.707031 156.644531 C 238.875 152.730469 245.457031 146.691406 251.269531 139.632812 C 253.582031 136.824219 252.601562 135.082031 250.261719 133 C 245.9375 129.171875 240.789062 130.019531 235.796875 130.148438 C 229.617188 130.304688 229.699219 130.433594 229.6875 136.371094 C 229.6875 141.6875 229.445312 147.003906 229.332031 152.320312 C 229.304688 153.78125 228.425781 155.46875 230.691406 156.628906 Z M 177.101562 137.207031 C 184.109375 132.742188 190.191406 127.171875 197.550781 123.457031 C 204.753906 119.8125 212.570312 117.816406 220.3125 115.292969 C 213.617188 112.328125 207.023438 110.457031 200.132812 109.410156 C 196.160156 108.796875 193.582031 109.988281 191.183594 113.023438 C 185.382812 120.382812 180.050781 127.980469 177.089844 137.207031 Z M 273.136719 167.136719 C 267.332031 172.371094 263.78125 176.625 262.488281 179.894531 C 254.601562 199.640625 243.882812 217.109375 223.871094 227.242188 C 228.183594 229.597656 228.296875 229.753906 231.105469 227.855469 C 252.417969 213.507812 266.527344 194.097656 273.136719 167.148438 Z M 160.824219 257.878906 C 160.027344 278.109375 166.808594 295.675781 177.046875 312.445312 C 182.378906 307.992188 182.433594 307.980469 179.570312 302.480469 C 172.976562 289.832031 166.695312 277.089844 166.765625 262.316406 C 166.777344 258.644531 164.324219 258.09375 160.824219 257.867188 Z M 146.285156 250.636719 C 133.085938 252.265625 118.492188 270.710938 119.65625 284.476562 C 123.980469 281.695312 128.136719 279.597656 129.480469 273.699219 C 130.757812 268.15625 134.941406 263.324219 140.300781 261.507812 C 146.429688 259.4375 146.882812 255.695312 146.300781 250.636719 Z M 227.515625 168.140625 C 236.5625 163.589844 243.894531 158.730469 250.304688 152.574219 C 253 149.980469 255.539062 147.1875 257.226562 143.757812 C 258.089844 141.984375 258.957031 140.15625 256.703125 138.894531 C 254.660156 137.761719 253.921875 139.648438 253.085938 140.949219 C 247.808594 149.046875 240.734375 155.058594 231.855469 158.785156 C 227.855469 160.457031 227.234375 163.351562 227.515625 168.15625 Z M 148.996094 141.023438 C 148.472656 141.914062 147.789062 142.765625 147.464844 143.730469 C 142.34375 158.800781 143.082031 174.210938 144.855469 189.675781 C 145.023438 191.152344 145.804688 192.355469 147.421875 191.957031 C 149.335938 191.492188 148.5 189.773438 148.371094 188.613281 C 146.699219 172.890625 147.378906 157.226562 148.980469 141.023438 Z M 131.015625 276.71875 C 136.585938 274.652344 140.53125 273.121094 144.515625 271.730469 C 146.457031 271.0625 146.882812 269.773438 146.5 268 C 146.074219 266.015625 146.9375 263.664062 144.65625 261.792969 C 138.273438 264.160156 134.558594 269.050781 131.015625 276.707031 Z M 183.34375 225.132812 C 181.683594 218.113281 176.890625 214.160156 171.019531 215.039062 C 165.0625 215.929688 160.46875 222.113281 161.132812 228.675781 C 161.859375 235.835938 167.003906 240.457031 171.03125 245.800781 C 173.828125 249.5 177.710938 248.734375 181.214844 249.160156 C 187.722656 249.96875 194.148438 249.289062 199.679688 245.261719 C 202.613281 243.121094 204.828125 240.355469 203.960938 236.402344 C 203.097656 232.40625 199.777344 231.015625 196.304688 230.179688 C 192.558594 229.285156 188.84375 230.292969 184.832031 231 C 183.285156 228.945312 183.78125 226.945312 183.355469 225.144531 Z M 183.34375 225.132812 " fill-opacity="1" fill-rule="nonzero"/><path fill="#000000" d="M 273.621094 13.339844 C 273.621094 13.339844 180.390625 193.660156 184.09375 195.402344 C 187.800781 197.140625 278.371094 15.566406 278.371094 15.566406 Z M 273.621094 13.339844 " fill-opacity="1" fill-rule="nonzero"/><path fill="#000000" d="M 271.15625 7.8125 C 275.148438 0.09375 287.863281 5.496094 283.503906 14.308594 C 281.597656 18.164062 278.230469 18.878906 275.382812 17.816406 C 271.722656 16.453125 268.914062 12.152344 271.15625 7.8125 Z M 271.15625 7.8125 " fill-opacity="1" fill-rule="nonzero"/><path fill="#000000" d="M 294.605469 41.558594 C 294.605469 41.558594 190.429688 216.371094 186.824219 214.429688 C 183.222656 212.488281 289.992188 39.074219 289.992188 39.074219 Z M 294.605469 41.558594 " fill-opacity="1" fill-rule="nonzero"/><path fill="#000000" d="M 300.558594 40.269531 C 304.484375 32.519531 292.585938 25.527344 287.984375 34.21875 C 285.972656 38.023438 287.375 41.140625 289.921875 42.792969 C 293.191406 44.921875 298.351562 44.628906 300.558594 40.269531 Z M 300.558594 40.269531 " fill-opacity="1" fill-rule="nonzero"/></svg>