<svg xmlns="http://www.w3.org/2000/svg" xmlns:xlink="http://www.w3.org/1999/xlink" width="300" zoomAndPan="magnify" viewBox="0 0 224.87999 37.5" height="50" preserveAspectRatio="xMidYMid meet" version="1.0"><defs><g/><clipPath id="2d2ecbe1ff"><path d="M 62.300781 7.695312 L 85 7.695312 L 85 35.996094 L 62.300781 35.996094 Z M 62.300781 7.695312 " clip-rule="nonzero"/></clipPath><clipPath id="c4cf0fdd91"><path d="M 82 0.238281 L 84 0.238281 L 84 2 L 82 2 Z M 82 0.238281 " clip-rule="nonzero"/></clipPath><clipPath id="5f9fc8bc0b"><path d="M 74 3 L 85 3 L 85 20.855469 L 74 20.855469 Z M 74 3 " clip-rule="nonzero"/></clipPath><clipPath id="9ead8290ca"><path d="M 84 2 L 85.636719 2 L 85.636719 5 L 84 5 Z M 84 2 " clip-rule="nonzero"/></clipPath><clipPath id="593cc35410"><path d="M 0.367188 14 L 220.394531 14 L 220.394531 34 L 0.367188 34 Z M 0.367188 14 " clip-rule="nonzero"/></clipPath><clipPath id="f16c3d663b"><rect x="0" width="221" y="0" height="20"/></clipPath><clipPath id="742486137c"><rect x="0" width="221" y="0" height="36"/></clipPath></defs><g transform="matrix(1, 0, 0, 1, 2, -0.000000000000001471)"><g clip-path="url(#742486137c)"><g clip-path="url(#2d2ecbe1ff)"><path fill="#ffffff" d="M 79.777344 21.832031 C 79.964844 23.46875 79.421875 24.863281 78.394531 26.074219 C 78.167969 26.34375 78.09375 26.539062 78.164062 26.878906 C 78.417969 28.113281 78.445312 29.363281 78.28125 30.617188 C 77.847656 33.96875 75.082031 36.144531 71.738281 35.707031 C 68.824219 35.324219 66.265625 34.183594 64.339844 31.890625 C 63.058594 30.367188 62.328125 28.617188 62.539062 26.578125 C 62.664062 25.347656 63.179688 24.277344 63.988281 23.347656 C 64.800781 22.417969 65.734375 21.632812 66.84375 21.074219 C 67.152344 20.917969 67.324219 20.734375 67.441406 20.363281 C 67.792969 19.238281 68.425781 18.242188 69.242188 17.386719 C 69.539062 17.074219 69.628906 16.808594 69.558594 16.371094 C 69.277344 14.726562 69.339844 13.09375 69.960938 11.519531 C 71.117188 8.589844 73.148438 7.695312 75.503906 7.898438 C 77.148438 8.042969 78.636719 8.597656 80.015625 9.503906 C 80.996094 10.152344 81.953125 10.816406 82.789062 11.640625 C 84.765625 13.574219 85.101562 15.929688 83.746094 18.335938 C 82.828125 19.972656 81.539062 21.195312 79.777344 21.828125 Z M 74.804688 19.710938 C 74.820312 19.675781 74.839844 19.640625 74.855469 19.605469 C 74.453125 19.410156 74.054688 19.21875 73.65625 19.015625 C 72.558594 18.464844 71.4375 17.980469 70.277344 17.582031 C 69.898438 17.449219 69.648438 17.527344 69.417969 17.824219 C 68.851562 18.550781 68.34375 19.3125 67.90625 20.125 C 67.683594 20.535156 67.777344 20.78125 68.128906 21.015625 C 68.589844 21.320312 69.054688 21.632812 69.492188 21.964844 C 71.398438 23.40625 73.539062 24.402344 75.683594 25.402344 C 76.183594 25.636719 76.714844 25.8125 77.25 25.972656 C 77.71875 26.113281 78 25.96875 78.222656 25.59375 C 78.699219 24.800781 79.160156 23.996094 79.273438 23.066406 C 79.40625 21.984375 79.574219 22.128906 78.550781 21.558594 C 77.335938 20.882812 76.058594 20.320312 74.808594 19.710938 Z M 70.890625 28.070312 C 70.824219 28.058594 70.792969 28.046875 70.773438 28.054688 C 68.605469 28.945312 67.246094 30.597656 66.390625 32.71875 C 66.226562 33.125 66.53125 33.273438 66.808594 33.394531 C 67.042969 33.492188 67.304688 33.425781 67.554688 33.390625 C 69.328125 33.144531 70.777344 32.226562 72.121094 31.109375 C 72.285156 30.972656 72.402344 30.820312 72.246094 30.617188 C 71.652344 29.835938 71.300781 28.921875 70.890625 28.070312 Z M 64.503906 29.769531 C 64.449219 29.785156 64.398438 29.804688 64.34375 29.824219 C 64.035156 29.199219 63.871094 28.535156 63.917969 27.835938 C 64.101562 25.140625 65.214844 22.976562 67.558594 21.523438 C 67.667969 21.457031 67.921875 21.453125 67.761719 21.160156 C 66.6875 21.707031 65.710938 22.378906 64.871094 23.242188 C 62.894531 25.269531 62.539062 27.808594 63.890625 30.292969 C 63.972656 30.441406 63.996094 30.683594 64.300781 30.660156 C 64.507812 29.964844 64.9375 29.378906 65.375 28.808594 C 65.597656 28.515625 65.65625 28.28125 65.59375 27.910156 C 65.367188 26.535156 65.714844 25.269531 66.433594 24.085938 C 66.996094 23.160156 67.796875 22.507812 68.761719 22.027344 C 68.226562 21.480469 68.222656 21.472656 67.707031 21.769531 C 67.46875 21.910156 67.234375 22.066406 67.023438 22.246094 C 65.050781 23.953125 64.214844 26.128906 64.382812 28.707031 C 64.40625 29.0625 64.460938 29.414062 64.503906 29.769531 Z M 76.5625 11.371094 C 76.429688 11.390625 76.34375 11.382812 76.273438 11.414062 C 74.976562 11.964844 73.867188 12.78125 72.84375 13.742188 C 72.636719 13.933594 72.582031 14.152344 72.550781 14.398438 C 72.402344 15.476562 72.433594 16.558594 72.527344 17.640625 C 72.542969 17.828125 72.535156 18.042969 72.777344 18.113281 C 72.988281 18.171875 73.070312 17.988281 73.175781 17.878906 C 74.292969 16.671875 75.324219 15.402344 75.949219 13.859375 C 76.269531 13.074219 76.523438 12.265625 76.5625 11.375 Z M 68.777344 34.394531 C 69.558594 34.867188 70.21875 34.902344 70.949219 34.574219 C 72.199219 34.015625 73.398438 33.371094 74.472656 32.519531 C 75.734375 31.519531 76.753906 30.332031 77.40625 28.835938 C 77.714844 28.132812 77.730469 27.449219 77.5625 26.722656 C 77.492188 26.421875 77.347656 26.292969 77.058594 26.273438 C 76.699219 26.253906 76.785156 26.546875 76.730469 26.738281 C 75.933594 29.738281 74.121094 31.914062 71.390625 33.347656 C 70.601562 33.761719 69.773438 34.078125 68.777344 34.390625 Z M 70.699219 35.023438 C 72.953125 35.554688 74.808594 35.230469 76.308594 33.625 C 77.441406 32.414062 77.828125 30.945312 77.683594 29.328125 C 76.1875 32.160156 73.742188 33.808594 70.699219 35.023438 Z M 82.609375 13.039062 C 82.730469 13.507812 82.535156 13.710938 82.359375 13.917969 C 81.34375 15.113281 80.019531 15.789062 78.511719 16.097656 C 78.03125 16.195312 77.863281 16.398438 77.832031 16.847656 C 77.941406 16.875 78.019531 16.914062 78.09375 16.902344 C 79.75 16.707031 81.207031 16.078125 82.390625 14.882812 C 83.535156 13.726562 83.488281 13.222656 82.210938 12.164062 C 82.191406 12.148438 82.15625 12.152344 82.09375 12.132812 C 81.421875 13.425781 80.269531 14.175781 78.988281 14.765625 C 78.359375 15.054688 78.359375 15.050781 78.324219 15.910156 C 80.035156 15.414062 81.539062 14.652344 82.613281 13.039062 Z M 67.484375 33.753906 C 67.941406 34.140625 68.328125 34.242188 68.808594 34.089844 C 70.6875 33.484375 72.398438 32.585938 73.800781 31.175781 C 75.105469 29.867188 75.96875 28.304688 76.390625 26.496094 C 76.484375 26.101562 76.308594 25.996094 76.019531 25.910156 C 75.605469 25.792969 75.660156 26.097656 75.621094 26.34375 C 75.449219 27.351562 75.007812 28.242188 74.417969 29.066406 C 72.714844 31.449219 70.566406 33.199219 67.484375 33.753906 Z M 74.546875 18.925781 C 75.507812 19.546875 75.5 19.542969 76.15625 18.789062 C 76.710938 18.148438 77.09375 17.410156 77.441406 16.652344 C 78.230469 14.925781 78.507812 13.097656 78.507812 11.214844 C 78.507812 11.027344 78.546875 10.796875 78.222656 10.84375 C 78.015625 10.871094 77.839844 10.933594 77.863281 11.195312 C 77.871094 11.304688 77.871094 11.417969 77.875 11.527344 C 77.921875 12.746094 77.640625 13.894531 77.140625 15 C 76.496094 16.429688 75.675781 17.742188 74.542969 18.925781 Z M 73.25 18.304688 C 74.347656 18.996094 74.230469 18.8125 74.820312 18.144531 C 75.847656 16.988281 76.550781 15.625 77.097656 14.1875 C 77.425781 13.320312 77.578125 12.414062 77.566406 11.488281 C 77.566406 11.316406 77.664062 11.054688 77.367188 11.050781 C 77.148438 11.046875 76.902344 11.105469 76.835938 11.371094 C 76.785156 11.585938 76.769531 11.808594 76.730469 12.03125 C 76.523438 13.277344 76.125 14.441406 75.429688 15.519531 C 74.792969 16.503906 74.070312 17.414062 73.25 18.304688 Z M 65.140625 31.949219 C 66.082031 29.371094 67.683594 27.5625 70.179688 26.609375 C 70.390625 26.53125 70.433594 26.417969 70.386719 26.242188 C 70.339844 26.0625 70.378906 25.847656 70.132812 25.667969 C 67.667969 26.644531 65.722656 28.222656 64.613281 30.726562 C 64.367188 31.273438 64.6875 31.605469 65.140625 31.949219 Z M 65.847656 28.132812 C 66.5 27.558594 66.929688 27.144531 67.058594 26.363281 C 67.308594 24.863281 68.214844 23.75 69.59375 23.058594 C 69.730469 22.992188 69.945312 23.011719 69.925781 22.765625 C 69.042969 22.160156 68.953125 22.148438 68.097656 22.765625 C 66.328125 24.042969 65.78125 25.855469 65.847656 28.132812 Z M 73.207031 8.785156 C 72.386719 9.066406 71.824219 9.40625 71.519531 10.097656 C 70.566406 12.253906 70.464844 14.515625 70.628906 16.8125 C 70.664062 17.308594 70.902344 17.503906 71.421875 17.433594 C 71.089844 14.414062 71.417969 11.539062 73.207031 8.785156 Z M 70.746094 27.695312 C 70.519531 26.785156 70.488281 26.734375 69.910156 27.015625 C 67.816406 28.042969 66.378906 29.679688 65.5625 31.859375 C 65.390625 32.328125 65.460938 32.402344 66.066406 32.71875 C 66.9375 30.4375 68.40625 28.707031 70.746094 27.695312 Z M 79.851562 10.351562 C 79.148438 9.472656 78.320312 9.484375 77.429688 9.664062 C 75.753906 10 74.394531 10.859375 73.238281 12.089844 C 72.914062 12.4375 72.824219 12.839844 72.769531 13.429688 C 73.820312 12.492188 74.839844 11.734375 76.011719 11.207031 C 77.214844 10.664062 78.488281 10.421875 79.851562 10.351562 Z M 74.761719 8.5625 C 73.984375 8.40625 73.5625 8.65625 73.21875 9.242188 C 71.757812 11.726562 71.417969 14.414062 71.679688 17.226562 C 71.710938 17.582031 71.863281 17.800781 72.296875 17.816406 C 71.855469 14.433594 72.484375 11.324219 74.761719 8.5625 Z M 74.144531 28.859375 C 74.777344 27.9375 75.191406 27.082031 75.371094 26.113281 C 75.414062 25.875 75.378906 25.664062 75.132812 25.558594 C 74.355469 25.214844 73.621094 24.777344 72.734375 24.480469 C 72.8125 26.085938 73.363281 27.4375 74.144531 28.859375 Z M 70.601562 23.304688 C 70.363281 26.042969 71.152344 28.40625 72.496094 30.660156 C 73.246094 30.074219 73.238281 30.078125 72.839844 29.359375 C 72.570312 28.875 72.296875 28.386719 72.074219 27.878906 C 71.574219 26.75 71.238281 25.582031 71.320312 24.328125 C 71.367188 23.625 71.382812 23.625 70.601562 23.304688 Z M 80.269531 16.839844 C 79.433594 16.996094 78.636719 17.242188 77.800781 17.179688 C 77.605469 17.167969 77.503906 17.320312 77.433594 17.472656 C 77.054688 18.277344 76.476562 18.941406 75.878906 19.59375 C 76.574219 20.027344 76.574219 20.023438 77.179688 19.75 C 78.539062 19.136719 79.449219 18.054688 80.269531 16.839844 Z M 78.886719 21.351562 C 81.824219 21.222656 84.765625 16.953125 83.609375 14.664062 C 82.949219 17.496094 81.453125 19.707031 78.886719 21.351562 Z M 77.121094 20.195312 C 77.421875 20.542969 77.742188 20.546875 78.117188 20.390625 C 78.453125 20.25 78.785156 20.109375 79.070312 19.886719 C 80.386719 18.859375 81.296875 17.535156 82.039062 15.863281 C 81.375 16.1875 80.914062 16.402344 80.566406 16.941406 C 79.707031 18.273438 78.714844 19.503906 77.121094 20.199219 Z M 78.945312 13.464844 C 79.796875 13.058594 80.480469 12.429688 81.082031 11.695312 C 81.324219 11.40625 81.222656 11.222656 80.980469 11.007812 C 80.527344 10.609375 79.996094 10.699219 79.476562 10.710938 C 78.832031 10.726562 78.84375 10.738281 78.839844 11.359375 C 78.839844 11.910156 78.816406 12.460938 78.804688 13.015625 C 78.800781 13.167969 78.710938 13.34375 78.945312 13.464844 Z M 73.375 11.445312 C 74.105469 10.980469 74.738281 10.402344 75.5 10.015625 C 76.25 9.636719 77.0625 9.429688 77.867188 9.167969 C 77.171875 8.859375 76.484375 8.664062 75.769531 8.554688 C 75.355469 8.492188 75.089844 8.617188 74.839844 8.929688 C 74.238281 9.695312 73.683594 10.484375 73.375 11.445312 Z M 83.355469 14.554688 C 82.753906 15.097656 82.382812 15.542969 82.25 15.882812 C 81.429688 17.933594 80.316406 19.75 78.234375 20.804688 C 78.683594 21.046875 78.695312 21.0625 78.988281 20.867188 C 81.203125 19.375 82.667969 17.359375 83.355469 14.558594 Z M 71.683594 23.988281 C 71.601562 26.089844 72.304688 27.917969 73.371094 29.660156 C 73.925781 29.195312 73.929688 29.195312 73.632812 28.625 C 72.949219 27.308594 72.292969 25.984375 72.300781 24.449219 C 72.304688 24.066406 72.046875 24.007812 71.683594 23.984375 Z M 70.175781 23.234375 C 68.800781 23.402344 67.285156 25.320312 67.40625 26.75 C 67.855469 26.464844 68.289062 26.246094 68.429688 25.632812 C 68.5625 25.054688 68.996094 24.554688 69.550781 24.363281 C 70.1875 24.148438 70.234375 23.761719 70.175781 23.234375 Z M 78.613281 14.660156 C 79.554688 14.1875 80.316406 13.679688 80.984375 13.042969 C 81.261719 12.773438 81.527344 12.480469 81.703125 12.125 C 81.792969 11.941406 81.882812 11.75 81.648438 11.621094 C 81.433594 11.503906 81.359375 11.699219 81.273438 11.832031 C 80.722656 12.675781 79.988281 13.300781 79.066406 13.6875 C 78.648438 13.859375 78.585938 14.160156 78.613281 14.660156 Z M 70.457031 11.839844 C 70.402344 11.933594 70.332031 12.023438 70.296875 12.121094 C 69.765625 13.6875 69.839844 15.289062 70.027344 16.898438 C 70.042969 17.050781 70.125 17.175781 70.292969 17.136719 C 70.492188 17.085938 70.402344 16.910156 70.390625 16.789062 C 70.21875 15.152344 70.289062 13.523438 70.453125 11.839844 Z M 68.585938 25.945312 C 69.167969 25.730469 69.574219 25.570312 69.988281 25.425781 C 70.191406 25.359375 70.234375 25.222656 70.195312 25.039062 C 70.152344 24.832031 70.242188 24.589844 70.003906 24.394531 C 69.339844 24.640625 68.957031 25.148438 68.585938 25.945312 Z M 74.023438 20.582031 C 73.851562 19.855469 73.355469 19.441406 72.746094 19.535156 C 72.125 19.628906 71.648438 20.269531 71.71875 20.953125 C 71.792969 21.695312 72.328125 22.175781 72.746094 22.730469 C 73.035156 23.117188 73.441406 23.035156 73.804688 23.082031 C 74.480469 23.164062 75.148438 23.09375 75.722656 22.675781 C 76.027344 22.453125 76.257812 22.167969 76.167969 21.753906 C 76.078125 21.339844 75.734375 21.195312 75.371094 21.109375 C 74.984375 21.015625 74.597656 21.121094 74.179688 21.195312 C 74.019531 20.980469 74.070312 20.773438 74.027344 20.585938 Z M 74.023438 20.582031 " fill-opacity="1" fill-rule="nonzero"/></g><path fill="#ffffff" d="M 82.835938 1.304688 C 82.835938 1.304688 73.71875 18.941406 74.082031 19.109375 C 74.441406 19.28125 83.300781 1.519531 83.300781 1.519531 Z M 82.835938 1.304688 " fill-opacity="1" fill-rule="nonzero"/><g clip-path="url(#c4cf0fdd91)"><path fill="#ffffff" d="M 82.597656 0.761719 C 82.984375 0.0078125 84.230469 0.535156 83.804688 1.398438 C 83.617188 1.777344 83.289062 1.84375 83.007812 1.742188 C 82.652344 1.609375 82.375 1.1875 82.597656 0.761719 Z M 82.597656 0.761719 " fill-opacity="1" fill-rule="nonzero"/></g><g clip-path="url(#5f9fc8bc0b)"><path fill="#ffffff" d="M 84.890625 4.0625 C 84.890625 4.0625 74.699219 21.160156 74.347656 20.972656 C 73.996094 20.78125 84.4375 3.820312 84.4375 3.820312 Z M 84.890625 4.0625 " fill-opacity="1" fill-rule="nonzero"/></g><g clip-path="url(#9ead8290ca)"><path fill="#ffffff" d="M 85.472656 3.9375 C 85.855469 3.179688 84.691406 2.496094 84.242188 3.347656 C 84.042969 3.71875 84.183594 4.023438 84.429688 4.183594 C 84.75 4.390625 85.253906 4.363281 85.472656 3.9375 Z M 85.472656 3.9375 " fill-opacity="1" fill-rule="nonzero"/></g><g clip-path="url(#593cc35410)"><g transform="matrix(1, 0, 0, 1, -0.000000000000000444, 14)"><g clip-path="url(#f16c3d663b)"><g fill="#ffffff" fill-opacity="1"><g transform="translate(0.933068, 13.542525)"><g><path d="M 6 -10.375 C 7.75 -10.375 9.132812 -9.910156 10.15625 -8.984375 C 11.175781 -8.054688 11.6875 -6.789062 11.6875 -5.1875 C 11.6875 -3.582031 11.175781 -2.316406 10.15625 -1.390625 C 9.132812 -0.460938 7.75 0 6 0 L 0.625 0 L 0.625 -0.140625 L 0.8125 -0.140625 C 1.070312 -0.140625 1.289062 -0.234375 1.46875 -0.421875 C 1.65625 -0.609375 1.753906 -0.828125 1.765625 -1.078125 L 1.765625 -9.390625 C 1.765625 -9.617188 1.664062 -9.816406 1.46875 -9.984375 C 1.28125 -10.148438 1.0625 -10.234375 0.8125 -10.234375 L 0.625 -10.234375 L 0.625 -10.375 Z M 5.8125 -0.640625 C 6.519531 -0.640625 7.132812 -0.820312 7.65625 -1.1875 C 8.175781 -1.550781 8.570312 -2.078125 8.84375 -2.765625 C 9.125 -3.453125 9.265625 -4.203125 9.265625 -5.015625 C 9.265625 -5.828125 9.179688 -6.515625 9.015625 -7.078125 C 8.859375 -7.648438 8.628906 -8.132812 8.328125 -8.53125 C 7.722656 -9.34375 6.882812 -9.75 5.8125 -9.75 L 3.984375 -9.75 L 3.984375 -0.640625 Z M 5.8125 -0.640625 "/></g></g></g><g fill="#ffffff" fill-opacity="1"><g transform="translate(12.902778, 13.542525)"><g><path d="M 0.8125 -0.140625 C 1.070312 -0.140625 1.289062 -0.234375 1.46875 -0.421875 C 1.65625 -0.609375 1.753906 -0.828125 1.765625 -1.078125 L 1.765625 -9.34375 C 1.742188 -9.601562 1.671875 -9.789062 1.546875 -9.90625 C 1.304688 -10.125 1.0625 -10.234375 0.8125 -10.234375 L 0.625 -10.234375 L 0.625 -10.375 L 6.296875 -10.375 C 6.785156 -10.375 7.1875 -10.410156 7.5 -10.484375 C 7.820312 -10.566406 8.015625 -10.617188 8.078125 -10.640625 L 8.078125 -8.046875 L 7.9375 -8.0625 L 7.9375 -8.234375 C 7.9375 -8.847656 7.707031 -9.28125 7.25 -9.53125 C 7.03125 -9.664062 6.773438 -9.734375 6.484375 -9.734375 L 3.984375 -9.734375 L 3.984375 -5.421875 L 5.953125 -5.421875 C 6.316406 -5.429688 6.613281 -5.554688 6.84375 -5.796875 C 7.082031 -6.046875 7.203125 -6.347656 7.203125 -6.703125 L 7.203125 -6.828125 L 7.359375 -6.828125 L 7.359375 -3.40625 L 7.203125 -3.40625 L 7.203125 -3.53125 C 7.203125 -3.894531 7.085938 -4.195312 6.859375 -4.4375 C 6.628906 -4.675781 6.332031 -4.796875 5.96875 -4.796875 L 3.984375 -4.796875 L 3.984375 -0.640625 L 5.9375 -0.640625 C 6.65625 -0.640625 7.257812 -0.847656 7.75 -1.265625 C 8.238281 -1.679688 8.601562 -2.269531 8.84375 -3.03125 L 8.984375 -3.03125 L 8.296875 0 L 0.625 0 L 0.625 -0.140625 Z M 0.8125 -0.140625 "/></g></g></g><g fill="#ffffff" fill-opacity="1"><g transform="translate(22.191273, 13.542525)"><g><path d="M 12.109375 -10.234375 C 11.765625 -10.234375 11.503906 -10.082031 11.328125 -9.78125 C 11.242188 -9.65625 11.195312 -9.507812 11.1875 -9.34375 L 11.1875 -1.6875 C 11.1875 -1.03125 11.234375 -0.472656 11.328125 -0.015625 L 11.375 0.203125 L 11.234375 0.203125 L 3.75 -6.921875 L 3.75 -1.03125 C 3.75 -0.789062 3.835938 -0.582031 4.015625 -0.40625 C 4.191406 -0.226562 4.40625 -0.140625 4.65625 -0.140625 L 4.9375 -0.140625 L 4.9375 0 L 0.4375 0 L 0.4375 -0.140625 L 0.71875 -0.140625 C 0.96875 -0.140625 1.179688 -0.226562 1.359375 -0.40625 C 1.535156 -0.582031 1.625 -0.796875 1.625 -1.046875 L 1.625 -8.75 C 1.625 -9.40625 1.582031 -9.945312 1.5 -10.375 L 1.46875 -10.609375 L 1.59375 -10.609375 L 9.09375 -3.46875 L 9.09375 -9.328125 C 9.082031 -9.585938 8.988281 -9.800781 8.8125 -9.96875 C 8.632812 -10.144531 8.421875 -10.234375 8.171875 -10.234375 L 7.90625 -10.234375 L 7.90625 -10.375 L 12.390625 -10.375 L 12.390625 -10.234375 Z M 12.109375 -10.234375 "/></g></g></g><g fill="#ffffff" fill-opacity="1"><g transform="translate(34.768416, 13.542525)"><g><path d="M 0.8125 -0.140625 C 1.070312 -0.140625 1.289062 -0.234375 1.46875 -0.421875 C 1.65625 -0.609375 1.753906 -0.828125 1.765625 -1.078125 L 1.765625 -9.3125 C 1.753906 -9.570312 1.65625 -9.789062 1.46875 -9.96875 C 1.289062 -10.144531 1.070312 -10.234375 0.8125 -10.234375 L 0.625 -10.234375 L 0.625 -10.375 L 5.125 -10.375 L 5.109375 -10.234375 L 4.9375 -10.234375 C 4.675781 -10.234375 4.453125 -10.144531 4.265625 -9.96875 C 4.078125 -9.789062 3.984375 -9.570312 3.984375 -9.3125 L 3.984375 -1.078125 C 3.984375 -0.828125 4.078125 -0.609375 4.265625 -0.421875 C 4.453125 -0.234375 4.675781 -0.140625 4.9375 -0.140625 L 5.109375 -0.140625 L 5.125 0 L 0.625 0 L 0.625 -0.140625 Z M 0.8125 -0.140625 "/></g></g></g><g fill="#ffffff" fill-opacity="1"><g transform="translate(40.486727, 13.542525)"><g><path d="M 0.734375 -1.375 C 0.734375 -2.09375 0.890625 -2.703125 1.203125 -3.203125 L 1.328125 -3.203125 C 1.316406 -3.117188 1.3125 -3.039062 1.3125 -2.96875 C 1.3125 -2.28125 1.554688 -1.679688 2.046875 -1.171875 C 2.535156 -0.671875 3.207031 -0.421875 4.0625 -0.421875 C 4.726562 -0.421875 5.242188 -0.578125 5.609375 -0.890625 C 5.984375 -1.203125 6.171875 -1.601562 6.171875 -2.09375 C 6.171875 -2.375 6.078125 -2.628906 5.890625 -2.859375 C 5.710938 -3.085938 5.410156 -3.34375 4.984375 -3.625 L 2.40625 -5.328125 C 1.445312 -5.960938 0.96875 -6.753906 0.96875 -7.703125 C 0.96875 -7.796875 0.976562 -7.894531 1 -8 C 1.050781 -8.769531 1.351562 -9.394531 1.90625 -9.875 C 2.457031 -10.351562 3.191406 -10.59375 4.109375 -10.59375 C 4.648438 -10.59375 5.320312 -10.539062 6.125 -10.4375 L 7.0625 -10.4375 L 6.859375 -8.265625 L 6.71875 -8.265625 C 6.71875 -8.773438 6.523438 -9.1875 6.140625 -9.5 C 5.765625 -9.8125 5.257812 -9.96875 4.625 -9.96875 C 3.851562 -9.96875 3.296875 -9.726562 2.953125 -9.25 C 2.773438 -9.019531 2.6875 -8.789062 2.6875 -8.5625 C 2.6875 -8.34375 2.726562 -8.15625 2.8125 -8 C 2.957031 -7.738281 3.257812 -7.457031 3.71875 -7.15625 L 6.546875 -5.328125 C 7.441406 -4.742188 7.890625 -3.984375 7.890625 -3.046875 C 7.890625 -1.992188 7.53125 -1.1875 6.8125 -0.625 C 6.09375 -0.0703125 5.140625 0.203125 3.953125 0.203125 C 3.285156 0.203125 2.664062 0.125 2.09375 -0.03125 C 1.53125 -0.195312 1.113281 -0.421875 0.84375 -0.703125 C 0.769531 -0.890625 0.734375 -1.113281 0.734375 -1.375 Z M 0.734375 -1.375 "/></g></g></g><g fill="#ffffff" fill-opacity="1"><g transform="translate(48.960429, 13.542525)"><g><path d="M 0.8125 -0.140625 C 1.070312 -0.140625 1.289062 -0.234375 1.46875 -0.421875 C 1.65625 -0.609375 1.753906 -0.828125 1.765625 -1.078125 L 1.765625 -9.34375 C 1.742188 -9.601562 1.671875 -9.789062 1.546875 -9.90625 C 1.304688 -10.125 1.0625 -10.234375 0.8125 -10.234375 L 0.625 -10.234375 L 0.625 -10.375 L 6.296875 -10.375 C 6.785156 -10.375 7.1875 -10.410156 7.5 -10.484375 C 7.820312 -10.566406 8.015625 -10.617188 8.078125 -10.640625 L 8.078125 -8.046875 L 7.9375 -8.0625 L 7.9375 -8.234375 C 7.9375 -8.847656 7.707031 -9.28125 7.25 -9.53125 C 7.03125 -9.664062 6.773438 -9.734375 6.484375 -9.734375 L 3.984375 -9.734375 L 3.984375 -5.421875 L 5.953125 -5.421875 C 6.316406 -5.429688 6.613281 -5.554688 6.84375 -5.796875 C 7.082031 -6.046875 7.203125 -6.347656 7.203125 -6.703125 L 7.203125 -6.828125 L 7.359375 -6.828125 L 7.359375 -3.40625 L 7.203125 -3.40625 L 7.203125 -3.53125 C 7.203125 -3.894531 7.085938 -4.195312 6.859375 -4.4375 C 6.628906 -4.675781 6.332031 -4.796875 5.96875 -4.796875 L 3.984375 -4.796875 L 3.984375 -0.640625 L 5.9375 -0.640625 C 6.65625 -0.640625 7.257812 -0.847656 7.75 -1.265625 C 8.238281 -1.679688 8.601562 -2.269531 8.84375 -3.03125 L 8.984375 -3.03125 L 8.296875 0 L 0.625 0 L 0.625 -0.140625 Z M 0.8125 -0.140625 "/></g></g></g><g fill="#ffffff" fill-opacity="1"><g transform="translate(58.316392, 13.542525)"><g/></g></g><g fill="#ffffff" fill-opacity="1"><g transform="translate(62.019964, 13.542525)"><g/></g></g><g fill="#ffffff" fill-opacity="1"><g transform="translate(65.723535, 13.542525)"><g/></g></g><g fill="#ffffff" fill-opacity="1"><g transform="translate(69.427107, 13.542525)"><g/></g></g><g fill="#ffffff" fill-opacity="1"><g transform="translate(73.130678, 13.542525)"><g/></g></g><g fill="#ffffff" fill-opacity="1"><g transform="translate(76.83425, 13.542525)"><g/></g></g><g fill="#ffffff" fill-opacity="1"><g transform="translate(80.537821, 13.542525)"><g/></g></g><g fill="#ffffff" fill-opacity="1"><g transform="translate(84.241393, 13.542525)"><g/></g></g><g fill="#ffffff" fill-opacity="1"><g transform="translate(87.956351, 13.542525)"><g><path d="M 0.8125 -0.140625 C 1.070312 -0.140625 1.289062 -0.234375 1.46875 -0.421875 C 1.65625 -0.609375 1.753906 -0.828125 1.765625 -1.078125 L 1.765625 -9.3125 C 1.753906 -9.664062 1.59375 -9.929688 1.28125 -10.109375 C 1.132812 -10.191406 0.976562 -10.234375 0.8125 -10.234375 L 0.625 -10.234375 L 0.625 -10.375 L 5.125 -10.375 L 5.109375 -10.234375 L 4.9375 -10.234375 C 4.582031 -10.234375 4.3125 -10.078125 4.125 -9.765625 C 4.03125 -9.628906 3.984375 -9.476562 3.984375 -9.3125 L 3.984375 -1.078125 C 3.984375 -0.828125 4.078125 -0.609375 4.265625 -0.421875 C 4.453125 -0.234375 4.675781 -0.140625 4.9375 -0.140625 L 5.109375 -0.140625 L 5.125 0 L 0.625 0 L 0.625 -0.140625 Z M 11.515625 0 L 10.3125 0 C 8.800781 0 7.738281 -0.410156 7.125 -1.234375 C 5.351562 -3.628906 4.46875 -4.847656 4.46875 -4.890625 L 7.984375 -9.546875 C 8.054688 -9.648438 8.09375 -9.738281 8.09375 -9.8125 C 8.09375 -9.894531 8.078125 -9.96875 8.046875 -10.03125 C 7.972656 -10.175781 7.835938 -10.25 7.640625 -10.25 L 7.484375 -10.25 L 7.484375 -10.375 L 10.890625 -10.375 L 10.890625 -10.25 L 10.828125 -10.25 C 10.160156 -10.25 9.617188 -10.007812 9.203125 -9.53125 L 6.3125 -6.109375 L 10.015625 -1.0625 C 10.460938 -0.46875 10.960938 -0.160156 11.515625 -0.140625 Z M 11.515625 0 "/></g></g></g><g fill="#ffffff" fill-opacity="1"><g transform="translate(99.170752, 13.542525)"><g><path d="M 12.109375 -10.234375 C 11.765625 -10.234375 11.503906 -10.082031 11.328125 -9.78125 C 11.242188 -9.65625 11.195312 -9.507812 11.1875 -9.34375 L 11.1875 -1.6875 C 11.1875 -1.03125 11.234375 -0.472656 11.328125 -0.015625 L 11.375 0.203125 L 11.234375 0.203125 L 3.75 -6.921875 L 3.75 -1.03125 C 3.75 -0.789062 3.835938 -0.582031 4.015625 -0.40625 C 4.191406 -0.226562 4.40625 -0.140625 4.65625 -0.140625 L 4.9375 -0.140625 L 4.9375 0 L 0.4375 0 L 0.4375 -0.140625 L 0.71875 -0.140625 C 0.96875 -0.140625 1.179688 -0.226562 1.359375 -0.40625 C 1.535156 -0.582031 1.625 -0.796875 1.625 -1.046875 L 1.625 -8.75 C 1.625 -9.40625 1.582031 -9.945312 1.5 -10.375 L 1.46875 -10.609375 L 1.59375 -10.609375 L 9.09375 -3.46875 L 9.09375 -9.328125 C 9.082031 -9.585938 8.988281 -9.800781 8.8125 -9.96875 C 8.632812 -10.144531 8.421875 -10.234375 8.171875 -10.234375 L 7.90625 -10.234375 L 7.90625 -10.375 L 12.390625 -10.375 L 12.390625 -10.234375 Z M 12.109375 -10.234375 "/></g></g></g><g fill="#ffffff" fill-opacity="1"><g transform="translate(111.747894, 13.542525)"><g><path d="M 0.8125 -0.140625 C 1.070312 -0.140625 1.289062 -0.234375 1.46875 -0.421875 C 1.65625 -0.609375 1.753906 -0.828125 1.765625 -1.078125 L 1.765625 -9.3125 C 1.753906 -9.570312 1.65625 -9.789062 1.46875 -9.96875 C 1.289062 -10.144531 1.070312 -10.234375 0.8125 -10.234375 L 0.625 -10.234375 L 0.625 -10.375 L 5.125 -10.375 L 5.109375 -10.234375 L 4.9375 -10.234375 C 4.675781 -10.234375 4.453125 -10.144531 4.265625 -9.96875 C 4.078125 -9.789062 3.984375 -9.570312 3.984375 -9.3125 L 3.984375 -1.078125 C 3.984375 -0.828125 4.078125 -0.609375 4.265625 -0.421875 C 4.453125 -0.234375 4.675781 -0.140625 4.9375 -0.140625 L 5.109375 -0.140625 L 5.125 0 L 0.625 0 L 0.625 -0.140625 Z M 0.8125 -0.140625 "/></g></g></g><g fill="#ffffff" fill-opacity="1"><g transform="translate(117.466206, 13.542525)"><g><path d="M 6.0625 -9.765625 L 6.0625 -1.0625 C 6.070312 -0.8125 6.164062 -0.59375 6.34375 -0.40625 C 6.53125 -0.226562 6.753906 -0.140625 7.015625 -0.140625 L 7.1875 -0.140625 L 7.203125 0 L 2.703125 0 L 2.703125 -0.140625 L 2.890625 -0.140625 C 3.140625 -0.140625 3.351562 -0.226562 3.53125 -0.40625 C 3.71875 -0.59375 3.820312 -0.804688 3.84375 -1.046875 L 3.84375 -9.765625 L 1.84375 -9.765625 C 1.382812 -9.753906 1.019531 -9.609375 0.75 -9.328125 C 0.488281 -9.054688 0.359375 -8.703125 0.359375 -8.265625 L 0.359375 -8.078125 L 0.203125 -8.078125 L 0.203125 -10.65625 C 0.609375 -10.488281 1.191406 -10.398438 1.953125 -10.390625 L 7.9375 -10.390625 C 8.238281 -10.390625 8.566406 -10.421875 8.921875 -10.484375 C 9.285156 -10.546875 9.539062 -10.601562 9.6875 -10.65625 L 9.6875 -8.078125 L 9.53125 -8.078125 L 9.53125 -8.265625 C 9.53125 -8.867188 9.300781 -9.300781 8.84375 -9.5625 C 8.625 -9.6875 8.359375 -9.753906 8.046875 -9.765625 Z M 6.0625 -9.765625 "/></g></g></g><g fill="#ffffff" fill-opacity="1"><g transform="translate(127.332511, 13.542525)"><g/></g></g><g fill="#ffffff" fill-opacity="1"><g transform="translate(131.036082, 13.542525)"><g><path d="M 10.9375 -0.140625 L 11.078125 -0.140625 L 11.078125 0 L 6.34375 0 L 6.34375 -0.140625 L 6.484375 -0.140625 C 6.703125 -0.140625 6.863281 -0.207031 6.96875 -0.34375 C 7.070312 -0.476562 7.125 -0.601562 7.125 -0.71875 C 7.125 -0.84375 7.097656 -0.960938 7.046875 -1.078125 L 6.3125 -2.90625 L 2.84375 -2.90625 L 2.078125 -1.078125 C 2.023438 -0.953125 2 -0.832031 2 -0.71875 C 2 -0.601562 2.050781 -0.476562 2.15625 -0.34375 C 2.269531 -0.207031 2.4375 -0.140625 2.65625 -0.140625 L 2.78125 -0.140625 L 2.78125 0 L -0.40625 0 L -0.40625 -0.140625 L -0.265625 -0.140625 C -0.0351562 -0.140625 0.1875 -0.207031 0.40625 -0.34375 C 0.632812 -0.488281 0.828125 -0.703125 0.984375 -0.984375 L 4.40625 -8.734375 C 4.875 -9.710938 5.117188 -10.359375 5.140625 -10.671875 L 5.28125 -10.671875 L 9.6875 -1.015625 C 9.832031 -0.722656 10.019531 -0.503906 10.25 -0.359375 C 10.476562 -0.210938 10.707031 -0.140625 10.9375 -0.140625 Z M 3.09375 -3.53125 L 6.0625 -3.53125 L 4.625 -7.171875 Z M 3.09375 -3.53125 "/></g></g></g><g fill="#ffffff" fill-opacity="1"><g transform="translate(141.643095, 13.542525)"><g><path d="M 4.71875 -9.734375 L 4.078125 -9.734375 C 4.054688 -9.734375 4.039062 -9.734375 4.03125 -9.734375 L 4.03125 -1.078125 C 4.039062 -0.828125 4.132812 -0.609375 4.3125 -0.421875 C 4.5 -0.234375 4.722656 -0.140625 4.984375 -0.140625 L 5.171875 -0.140625 L 5.171875 0 L 0.671875 0 L 0.671875 -0.140625 L 0.859375 -0.140625 C 1.210938 -0.140625 1.484375 -0.296875 1.671875 -0.609375 C 1.753906 -0.742188 1.800781 -0.894531 1.8125 -1.0625 L 1.8125 -9.296875 C 1.800781 -9.554688 1.703125 -9.773438 1.515625 -9.953125 C 1.335938 -10.140625 1.117188 -10.234375 0.859375 -10.234375 L 0.671875 -10.234375 L 0.671875 -10.375 L 5.75 -10.375 C 6.707031 -10.375 7.519531 -10.164062 8.1875 -9.75 C 8.519531 -9.550781 8.785156 -9.265625 8.984375 -8.890625 C 9.179688 -8.515625 9.28125 -8.03125 9.28125 -7.4375 C 9.28125 -6.84375 9.070312 -6.265625 8.65625 -5.703125 C 8.238281 -5.148438 7.632812 -4.835938 6.84375 -4.765625 C 7.414062 -4.578125 7.921875 -4.140625 8.359375 -3.453125 C 9.429688 -1.742188 10.222656 -0.726562 10.734375 -0.40625 C 10.992188 -0.238281 11.316406 -0.148438 11.703125 -0.140625 L 11.703125 0 L 10.25 0 C 9.382812 0 8.664062 -0.113281 8.09375 -0.34375 C 7.53125 -0.570312 7.085938 -0.972656 6.765625 -1.546875 C 6.578125 -1.867188 6.164062 -2.710938 5.53125 -4.078125 C 5.25 -4.679688 4.910156 -5.015625 4.515625 -5.078125 L 4.515625 -5.21875 L 4.984375 -5.21875 C 5.429688 -5.21875 5.820312 -5.347656 6.15625 -5.609375 C 6.5 -5.878906 6.726562 -6.316406 6.84375 -6.921875 C 6.882812 -7.128906 6.90625 -7.296875 6.90625 -7.421875 C 6.90625 -8.222656 6.742188 -8.804688 6.421875 -9.171875 C 6.097656 -9.535156 5.675781 -9.722656 5.15625 -9.734375 C 5.0625 -9.734375 4.914062 -9.734375 4.71875 -9.734375 Z M 4.71875 -9.734375 "/></g></g></g><g fill="#ffffff" fill-opacity="1"><g transform="translate(152.160832, 13.542525)"><g><path d="M 6.0625 -9.765625 L 6.0625 -1.0625 C 6.070312 -0.8125 6.164062 -0.59375 6.34375 -0.40625 C 6.53125 -0.226562 6.753906 -0.140625 7.015625 -0.140625 L 7.1875 -0.140625 L 7.203125 0 L 2.703125 0 L 2.703125 -0.140625 L 2.890625 -0.140625 C 3.140625 -0.140625 3.351562 -0.226562 3.53125 -0.40625 C 3.71875 -0.59375 3.820312 -0.804688 3.84375 -1.046875 L 3.84375 -9.765625 L 1.84375 -9.765625 C 1.382812 -9.753906 1.019531 -9.609375 0.75 -9.328125 C 0.488281 -9.054688 0.359375 -8.703125 0.359375 -8.265625 L 0.359375 -8.078125 L 0.203125 -8.078125 L 0.203125 -10.65625 C 0.609375 -10.488281 1.191406 -10.398438 1.953125 -10.390625 L 7.9375 -10.390625 C 8.238281 -10.390625 8.566406 -10.421875 8.921875 -10.484375 C 9.285156 -10.546875 9.539062 -10.601562 9.6875 -10.65625 L 9.6875 -8.078125 L 9.53125 -8.078125 L 9.53125 -8.265625 C 9.53125 -8.867188 9.300781 -9.300781 8.84375 -9.5625 C 8.625 -9.6875 8.359375 -9.753906 8.046875 -9.765625 Z M 6.0625 -9.765625 "/></g></g></g><g fill="#ffffff" fill-opacity="1"><g transform="translate(162.471887, 13.542525)"><g><path d="M 14.84375 -10.234375 L 14.703125 -10.234375 C 14.460938 -10.234375 14.210938 -10.15625 13.953125 -10 C 13.703125 -9.851562 13.523438 -9.644531 13.421875 -9.375 L 10.921875 -1.375 C 10.753906 -0.832031 10.671875 -0.328125 10.671875 0.140625 C 10.671875 0.179688 10.671875 0.222656 10.671875 0.265625 L 10.53125 0.265625 L 7.296875 -6.890625 L 4.953125 -1.375 C 4.722656 -0.800781 4.601562 -0.253906 4.59375 0.265625 L 4.453125 0.265625 L 0.90625 -9.375 C 0.78125 -9.65625 0.597656 -9.867188 0.359375 -10.015625 C 0.117188 -10.160156 -0.125 -10.234375 -0.375 -10.234375 L -0.484375 -10.234375 L -0.484375 -10.375 L 4.03125 -10.375 L 4.03125 -10.234375 L 3.90625 -10.234375 C 3.695312 -10.234375 3.539062 -10.164062 3.4375 -10.03125 C 3.332031 -9.894531 3.28125 -9.765625 3.28125 -9.640625 C 3.28125 -9.523438 3.300781 -9.414062 3.34375 -9.3125 L 5.15625 -4.15625 L 7.84375 -10.609375 L 7.984375 -10.609375 L 10.921875 -4.09375 L 12.40625 -9.3125 C 12.4375 -9.414062 12.453125 -9.523438 12.453125 -9.640625 C 12.453125 -9.765625 12.40625 -9.894531 12.3125 -10.03125 C 12.21875 -10.164062 12.0625 -10.234375 11.84375 -10.234375 L 11.71875 -10.234375 L 11.71875 -10.375 L 14.84375 -10.375 Z M 14.84375 -10.234375 "/></g></g></g><g fill="#ffffff" fill-opacity="1"><g transform="translate(176.560034, 13.542525)"><g><path d="M 2.3125 -9.140625 C 3.363281 -10.109375 4.78125 -10.59375 6.5625 -10.59375 C 8.34375 -10.59375 9.757812 -10.109375 10.8125 -9.140625 C 11.863281 -8.171875 12.390625 -6.851562 12.390625 -5.1875 C 12.390625 -3.53125 11.863281 -2.21875 10.8125 -1.25 C 9.757812 -0.28125 8.34375 0.203125 6.5625 0.203125 C 4.78125 0.203125 3.363281 -0.28125 2.3125 -1.25 C 1.257812 -2.21875 0.734375 -3.53125 0.734375 -5.1875 C 0.734375 -6.851562 1.257812 -8.171875 2.3125 -9.140625 Z M 4.0625 -1.703125 C 4.675781 -0.847656 5.503906 -0.421875 6.546875 -0.421875 C 7.597656 -0.421875 8.429688 -0.847656 9.046875 -1.703125 C 9.660156 -2.554688 9.96875 -3.71875 9.96875 -5.1875 C 9.96875 -6.664062 9.660156 -7.832031 9.046875 -8.6875 C 8.429688 -9.539062 7.597656 -9.96875 6.546875 -9.96875 C 5.503906 -9.96875 4.675781 -9.539062 4.0625 -8.6875 C 3.457031 -7.832031 3.15625 -6.664062 3.15625 -5.1875 C 3.15625 -3.71875 3.457031 -2.554688 4.0625 -1.703125 Z M 4.0625 -1.703125 "/></g></g></g><g fill="#ffffff" fill-opacity="1"><g transform="translate(189.270463, 13.542525)"><g><path d="M 4.71875 -9.734375 L 4.078125 -9.734375 C 4.054688 -9.734375 4.039062 -9.734375 4.03125 -9.734375 L 4.03125 -1.078125 C 4.039062 -0.828125 4.132812 -0.609375 4.3125 -0.421875 C 4.5 -0.234375 4.722656 -0.140625 4.984375 -0.140625 L 5.171875 -0.140625 L 5.171875 0 L 0.671875 0 L 0.671875 -0.140625 L 0.859375 -0.140625 C 1.210938 -0.140625 1.484375 -0.296875 1.671875 -0.609375 C 1.753906 -0.742188 1.800781 -0.894531 1.8125 -1.0625 L 1.8125 -9.296875 C 1.800781 -9.554688 1.703125 -9.773438 1.515625 -9.953125 C 1.335938 -10.140625 1.117188 -10.234375 0.859375 -10.234375 L 0.671875 -10.234375 L 0.671875 -10.375 L 5.75 -10.375 C 6.707031 -10.375 7.519531 -10.164062 8.1875 -9.75 C 8.519531 -9.550781 8.785156 -9.265625 8.984375 -8.890625 C 9.179688 -8.515625 9.28125 -8.03125 9.28125 -7.4375 C 9.28125 -6.84375 9.070312 -6.265625 8.65625 -5.703125 C 8.238281 -5.148438 7.632812 -4.835938 6.84375 -4.765625 C 7.414062 -4.578125 7.921875 -4.140625 8.359375 -3.453125 C 9.429688 -1.742188 10.222656 -0.726562 10.734375 -0.40625 C 10.992188 -0.238281 11.316406 -0.148438 11.703125 -0.140625 L 11.703125 0 L 10.25 0 C 9.382812 0 8.664062 -0.113281 8.09375 -0.34375 C 7.53125 -0.570312 7.085938 -0.972656 6.765625 -1.546875 C 6.578125 -1.867188 6.164062 -2.710938 5.53125 -4.078125 C 5.25 -4.679688 4.910156 -5.015625 4.515625 -5.078125 L 4.515625 -5.21875 L 4.984375 -5.21875 C 5.429688 -5.21875 5.820312 -5.347656 6.15625 -5.609375 C 6.5 -5.878906 6.726562 -6.316406 6.84375 -6.921875 C 6.882812 -7.128906 6.90625 -7.296875 6.90625 -7.421875 C 6.90625 -8.222656 6.742188 -8.804688 6.421875 -9.171875 C 6.097656 -9.535156 5.675781 -9.722656 5.15625 -9.734375 C 5.0625 -9.734375 4.914062 -9.734375 4.71875 -9.734375 Z M 4.71875 -9.734375 "/></g></g></g><g fill="#ffffff" fill-opacity="1"><g transform="translate(200.15882, 13.542525)"><g><path d="M 0.8125 -0.140625 C 1.070312 -0.140625 1.289062 -0.234375 1.46875 -0.421875 C 1.65625 -0.609375 1.753906 -0.828125 1.765625 -1.078125 L 1.765625 -9.3125 C 1.753906 -9.664062 1.59375 -9.929688 1.28125 -10.109375 C 1.132812 -10.191406 0.976562 -10.234375 0.8125 -10.234375 L 0.625 -10.234375 L 0.625 -10.375 L 5.125 -10.375 L 5.109375 -10.234375 L 4.9375 -10.234375 C 4.582031 -10.234375 4.3125 -10.078125 4.125 -9.765625 C 4.03125 -9.628906 3.984375 -9.476562 3.984375 -9.3125 L 3.984375 -1.078125 C 3.984375 -0.828125 4.078125 -0.609375 4.265625 -0.421875 C 4.453125 -0.234375 4.675781 -0.140625 4.9375 -0.140625 L 5.109375 -0.140625 L 5.125 0 L 0.625 0 L 0.625 -0.140625 Z M 11.515625 0 L 10.3125 0 C 8.800781 0 7.738281 -0.410156 7.125 -1.234375 C 5.351562 -3.628906 4.46875 -4.847656 4.46875 -4.890625 L 7.984375 -9.546875 C 8.054688 -9.648438 8.09375 -9.738281 8.09375 -9.8125 C 8.09375 -9.894531 8.078125 -9.96875 8.046875 -10.03125 C 7.972656 -10.175781 7.835938 -10.25 7.640625 -10.25 L 7.484375 -10.25 L 7.484375 -10.375 L 10.890625 -10.375 L 10.890625 -10.25 L 10.828125 -10.25 C 10.160156 -10.25 9.617188 -10.007812 9.203125 -9.53125 L 6.3125 -6.109375 L 10.015625 -1.0625 C 10.460938 -0.46875 10.960938 -0.160156 11.515625 -0.140625 Z M 11.515625 0 "/></g></g></g><g fill="#ffffff" fill-opacity="1"><g transform="translate(211.37322, 13.542525)"><g><path d="M 0.734375 -1.375 C 0.734375 -2.09375 0.890625 -2.703125 1.203125 -3.203125 L 1.328125 -3.203125 C 1.316406 -3.117188 1.3125 -3.039062 1.3125 -2.96875 C 1.3125 -2.28125 1.554688 -1.679688 2.046875 -1.171875 C 2.535156 -0.671875 3.207031 -0.421875 4.0625 -0.421875 C 4.726562 -0.421875 5.242188 -0.578125 5.609375 -0.890625 C 5.984375 -1.203125 6.171875 -1.601562 6.171875 -2.09375 C 6.171875 -2.375 6.078125 -2.628906 5.890625 -2.859375 C 5.710938 -3.085938 5.410156 -3.34375 4.984375 -3.625 L 2.40625 -5.328125 C 1.445312 -5.960938 0.96875 -6.753906 0.96875 -7.703125 C 0.96875 -7.796875 0.976562 -7.894531 1 -8 C 1.050781 -8.769531 1.351562 -9.394531 1.90625 -9.875 C 2.457031 -10.351562 3.191406 -10.59375 4.109375 -10.59375 C 4.648438 -10.59375 5.320312 -10.539062 6.125 -10.4375 L 7.0625 -10.4375 L 6.859375 -8.265625 L 6.71875 -8.265625 C 6.71875 -8.773438 6.523438 -9.1875 6.140625 -9.5 C 5.765625 -9.8125 5.257812 -9.96875 4.625 -9.96875 C 3.851562 -9.96875 3.296875 -9.726562 2.953125 -9.25 C 2.773438 -9.019531 2.6875 -8.789062 2.6875 -8.5625 C 2.6875 -8.34375 2.726562 -8.15625 2.8125 -8 C 2.957031 -7.738281 3.257812 -7.457031 3.71875 -7.15625 L 6.546875 -5.328125 C 7.441406 -4.742188 7.890625 -3.984375 7.890625 -3.046875 C 7.890625 -1.992188 7.53125 -1.1875 6.8125 -0.625 C 6.09375 -0.0703125 5.140625 0.203125 3.953125 0.203125 C 3.285156 0.203125 2.664062 0.125 2.09375 -0.03125 C 1.53125 -0.195312 1.113281 -0.421875 0.84375 -0.703125 C 0.769531 -0.890625 0.734375 -1.113281 0.734375 -1.375 Z M 0.734375 -1.375 "/></g></g></g></g></g></g></g></g></svg>