<svg xmlns="http://www.w3.org/2000/svg" xmlns:xlink="http://www.w3.org/1999/xlink" width="500" zoomAndPan="magnify" viewBox="0 0 375 374.999991" height="500" preserveAspectRatio="xMidYMid meet" version="1.0"><defs><g/><clipPath id="064dd54786"><path d="M 100.394531 167.3125 L 151 167.3125 L 151 231 L 100.394531 231 Z M 100.394531 167.3125 " clip-rule="nonzero"/></clipPath><clipPath id="9a000b9a2a"><path d="M 126.082031 146 L 149 146 L 149 190 L 126.082031 190 Z M 126.082031 146 " clip-rule="nonzero"/></clipPath><clipPath id="35a29e5c28"><path d="M 127 152 L 153 152 L 153 193.921875 L 127 193.921875 Z M 127 152 " clip-rule="nonzero"/></clipPath><clipPath id="56032a56d9"><rect x="0" width="367" y="0" height="36"/></clipPath></defs><g clip-path="url(#064dd54786)"><path fill="#ffffff" d="M 139.710938 199.109375 C 140.128906 202.796875 138.910156 205.929688 136.597656 208.660156 C 136.089844 209.257812 135.925781 209.703125 136.078125 210.460938 C 136.648438 213.246094 136.710938 216.058594 136.34375 218.878906 C 135.363281 226.417969 129.148438 231.3125 121.625 230.324219 C 115.070312 229.464844 109.316406 226.898438 104.984375 221.738281 C 102.105469 218.3125 100.457031 214.378906 100.929688 209.785156 C 101.214844 207.019531 102.371094 204.617188 104.191406 202.527344 C 106.023438 200.429688 108.125 198.660156 110.617188 197.40625 C 111.308594 197.058594 111.699219 196.644531 111.957031 195.8125 C 112.753906 193.277344 114.175781 191.039062 116.007812 189.113281 C 116.675781 188.414062 116.882812 187.8125 116.71875 186.828125 C 116.089844 183.128906 116.230469 179.460938 117.625 175.914062 C 120.226562 169.328125 124.796875 167.3125 130.097656 167.773438 C 133.800781 168.09375 137.144531 169.339844 140.246094 171.386719 C 142.449219 172.835938 144.601562 174.335938 146.488281 176.183594 C 150.925781 180.535156 151.6875 185.839844 148.636719 191.253906 C 146.566406 194.929688 143.671875 197.675781 139.707031 199.105469 Z M 128.523438 194.34375 C 128.5625 194.261719 128.597656 194.183594 128.636719 194.105469 C 127.738281 193.664062 126.832031 193.234375 125.9375 192.78125 C 123.472656 191.542969 120.949219 190.449219 118.335938 189.550781 C 117.484375 189.257812 116.921875 189.425781 116.402344 190.101562 C 115.132812 191.734375 113.988281 193.445312 113.003906 195.269531 C 112.507812 196.195312 112.714844 196.753906 113.503906 197.273438 C 114.542969 197.960938 115.589844 198.664062 116.574219 199.410156 C 120.859375 202.652344 125.675781 204.898438 130.496094 207.148438 C 131.628906 207.675781 132.816406 208.066406 134.023438 208.425781 C 135.074219 208.742188 135.707031 208.421875 136.214844 207.570312 C 137.28125 205.792969 138.320312 203.980469 138.578125 201.886719 C 138.878906 199.457031 139.25 199.78125 136.949219 198.5 C 134.21875 196.976562 131.34375 195.714844 128.527344 194.339844 Z M 119.714844 213.148438 C 119.566406 213.125 119.5 213.09375 119.453125 213.109375 C 114.578125 215.113281 111.523438 218.832031 109.59375 223.601562 C 109.222656 224.519531 109.914062 224.855469 110.539062 225.121094 C 111.0625 225.34375 111.652344 225.191406 112.210938 225.113281 C 116.207031 224.558594 119.460938 222.5 122.484375 219.984375 C 122.855469 219.675781 123.117188 219.332031 122.769531 218.871094 C 121.433594 217.113281 120.644531 215.058594 119.714844 213.148438 Z M 105.351562 216.964844 C 105.230469 217.003906 105.109375 217.050781 104.988281 217.089844 C 104.300781 215.683594 103.929688 214.1875 104.035156 212.617188 C 104.445312 206.558594 106.953125 201.683594 112.226562 198.417969 C 112.46875 198.265625 113.042969 198.261719 112.675781 197.597656 C 110.265625 198.835938 108.066406 200.34375 106.175781 202.28125 C 101.730469 206.847656 100.933594 212.554688 103.976562 218.144531 C 104.160156 218.476562 104.207031 219.023438 104.890625 218.972656 C 105.359375 217.410156 106.328125 216.089844 107.3125 214.808594 C 107.816406 214.148438 107.945312 213.617188 107.804688 212.785156 C 107.292969 209.695312 108.074219 206.84375 109.691406 204.183594 C 110.957031 202.097656 112.757812 200.632812 114.929688 199.554688 C 113.726562 198.324219 113.71875 198.308594 112.558594 198.976562 C 112.019531 199.289062 111.492188 199.640625 111.019531 200.046875 C 106.585938 203.886719 104.699219 208.777344 105.078125 214.582031 C 105.128906 215.382812 105.257812 216.171875 105.351562 216.964844 Z M 132.476562 175.585938 C 132.179688 175.625 131.984375 175.609375 131.824219 175.679688 C 128.910156 176.921875 126.410156 178.757812 124.113281 180.910156 C 123.644531 181.347656 123.527344 181.835938 123.449219 182.394531 C 123.117188 184.820312 123.191406 187.253906 123.398438 189.683594 C 123.433594 190.105469 123.414062 190.585938 123.964844 190.746094 C 124.4375 190.882812 124.625 190.472656 124.859375 190.21875 C 127.375 187.507812 129.691406 184.652344 131.101562 181.179688 C 131.820312 179.410156 132.386719 177.589844 132.472656 175.589844 Z M 114.960938 227.371094 C 116.722656 228.4375 118.203125 228.511719 119.847656 227.777344 C 122.664062 226.519531 125.355469 225.074219 127.777344 223.15625 C 130.613281 220.90625 132.902344 218.234375 134.371094 214.867188 C 135.066406 213.285156 135.101562 211.75 134.726562 210.113281 C 134.570312 209.4375 134.238281 209.148438 133.597656 209.105469 C 132.785156 209.058594 132.972656 209.714844 132.859375 210.152344 C 131.066406 216.894531 126.988281 221.796875 120.84375 225.019531 C 119.070312 225.949219 117.203125 226.660156 114.960938 227.367188 Z M 119.289062 228.78125 C 124.355469 229.984375 128.527344 229.25 131.902344 225.640625 C 134.453125 222.917969 135.328125 219.617188 135.003906 215.972656 C 131.636719 222.34375 126.132812 226.054688 119.289062 228.78125 Z M 146.082031 179.332031 C 146.347656 180.382812 145.914062 180.84375 145.515625 181.3125 C 143.234375 184 140.25 185.519531 136.867188 186.214844 C 135.785156 186.4375 135.40625 186.886719 135.332031 187.902344 C 135.578125 187.957031 135.757812 188.046875 135.921875 188.027344 C 139.644531 187.585938 142.929688 186.171875 145.585938 183.484375 C 148.160156 180.882812 148.058594 179.75 145.183594 177.367188 C 145.140625 177.332031 145.0625 177.335938 144.921875 177.296875 C 143.410156 180.207031 140.820312 181.894531 137.933594 183.222656 C 136.519531 183.871094 136.515625 183.863281 136.441406 185.792969 C 140.292969 184.671875 143.671875 182.960938 146.085938 179.332031 Z M 112.058594 225.9375 C 113.082031 226.804688 113.957031 227.03125 115.03125 226.683594 C 119.265625 225.324219 123.109375 223.308594 126.269531 220.136719 C 129.203125 217.1875 131.140625 213.679688 132.09375 209.605469 C 132.296875 208.71875 131.90625 208.476562 131.253906 208.289062 C 130.328125 208.023438 130.449219 208.710938 130.355469 209.257812 C 129.96875 211.527344 128.976562 213.535156 127.652344 215.386719 C 123.820312 220.75 118.988281 224.683594 112.058594 225.9375 Z M 127.9375 192.574219 C 130.101562 193.976562 130.089844 193.960938 131.566406 192.265625 C 132.816406 190.828125 133.667969 189.164062 134.453125 187.457031 C 136.230469 183.578125 136.851562 179.464844 136.855469 175.234375 C 136.855469 174.8125 136.9375 174.292969 136.214844 174.390625 C 135.742188 174.457031 135.355469 174.59375 135.402344 175.1875 C 135.421875 175.4375 135.421875 175.6875 135.433594 175.9375 C 135.53125 178.675781 134.898438 181.257812 133.777344 183.746094 C 132.324219 186.960938 130.480469 189.910156 127.933594 192.574219 Z M 125.027344 191.175781 C 127.492188 192.734375 127.230469 192.316406 128.554688 190.824219 C 130.871094 188.214844 132.453125 185.15625 133.679688 181.914062 C 134.414062 179.96875 134.761719 177.929688 134.738281 175.847656 C 134.734375 175.457031 134.960938 174.867188 134.28125 174.859375 C 133.800781 174.851562 133.246094 174.980469 133.097656 175.582031 C 132.976562 176.066406 132.941406 176.570312 132.859375 177.0625 C 132.386719 179.867188 131.492188 182.484375 129.925781 184.914062 C 128.5 187.128906 126.875 189.171875 125.027344 191.179688 Z M 106.78125 221.871094 C 108.898438 216.074219 112.5 212 118.121094 209.863281 C 118.589844 209.683594 118.6875 209.429688 118.582031 209.03125 C 118.476562 208.628906 118.570312 208.148438 118.019531 207.742188 C 112.464844 209.9375 108.097656 213.492188 105.59375 219.121094 C 105.046875 220.355469 105.761719 221.097656 106.78125 221.871094 Z M 108.371094 213.285156 C 109.84375 211.996094 110.804688 211.0625 111.097656 209.304688 C 111.65625 205.929688 113.699219 203.429688 116.804688 201.871094 C 117.105469 201.722656 117.59375 201.765625 117.546875 201.214844 C 115.566406 199.855469 115.359375 199.820312 113.4375 201.214844 C 109.457031 204.089844 108.230469 208.164062 108.375 213.289062 Z M 124.933594 169.761719 C 123.082031 170.402344 121.820312 171.160156 121.128906 172.71875 C 118.992188 177.5625 118.761719 182.652344 119.128906 187.824219 C 119.207031 188.9375 119.746094 189.375 120.914062 189.222656 C 120.164062 182.421875 120.902344 175.957031 124.933594 169.761719 Z M 119.398438 212.300781 C 118.886719 210.253906 118.8125 210.140625 117.515625 210.777344 C 112.800781 213.085938 109.566406 216.765625 107.734375 221.667969 C 107.34375 222.71875 107.503906 222.890625 108.867188 223.597656 C 110.828125 218.472656 114.132812 214.578125 119.398438 212.300781 Z M 139.878906 173.289062 C 138.292969 171.3125 136.433594 171.34375 134.425781 171.746094 C 130.65625 172.503906 127.597656 174.429688 125 177.199219 C 124.265625 177.980469 124.0625 178.882812 123.941406 180.210938 C 126.304688 178.105469 128.597656 176.402344 131.238281 175.214844 C 133.949219 173.992188 136.8125 173.449219 139.875 173.289062 Z M 128.421875 169.261719 C 126.679688 168.914062 125.730469 169.476562 124.957031 170.792969 C 121.667969 176.382812 120.90625 182.429688 121.492188 188.753906 C 121.5625 189.554688 121.902344 190.042969 122.882812 190.078125 C 121.886719 182.46875 123.304688 175.480469 128.425781 169.261719 Z M 127.035156 214.925781 C 128.460938 212.847656 129.390625 210.921875 129.796875 208.746094 C 129.898438 208.207031 129.8125 207.738281 129.257812 207.492188 C 127.515625 206.71875 125.855469 205.742188 123.863281 205.070312 C 124.039062 208.6875 125.277344 211.726562 127.035156 214.925781 Z M 119.070312 202.425781 C 118.53125 208.582031 120.308594 213.902344 123.332031 218.972656 C 125.019531 217.652344 125 217.664062 124.105469 216.042969 C 123.496094 214.953125 122.878906 213.859375 122.375 212.71875 C 121.257812 210.179688 120.496094 207.546875 120.683594 204.730469 C 120.789062 203.144531 120.828125 203.144531 119.066406 202.425781 Z M 140.820312 187.886719 C 138.933594 188.234375 137.148438 188.789062 135.261719 188.652344 C 134.820312 188.617188 134.597656 188.964844 134.4375 189.308594 C 133.585938 191.121094 132.289062 192.613281 130.933594 194.074219 C 132.507812 195.054688 132.5 195.042969 133.863281 194.429688 C 136.925781 193.054688 138.96875 190.613281 140.820312 187.886719 Z M 137.703125 198.035156 C 144.308594 197.742188 150.933594 188.132812 148.328125 182.988281 C 146.847656 189.359375 143.476562 194.332031 137.703125 198.035156 Z M 133.730469 195.433594 C 134.414062 196.210938 135.136719 196.226562 135.976562 195.871094 C 136.730469 195.554688 137.476562 195.234375 138.121094 194.734375 C 141.082031 192.425781 143.125 189.445312 144.792969 185.683594 C 143.304688 186.414062 142.265625 186.902344 141.484375 188.109375 C 139.554688 191.109375 137.320312 193.878906 133.730469 195.4375 Z M 137.839844 180.292969 C 139.75 179.375 141.289062 177.964844 142.644531 176.3125 C 143.1875 175.65625 142.957031 175.25 142.410156 174.761719 C 141.398438 173.867188 140.195312 174.066406 139.03125 174.097656 C 137.585938 174.132812 137.605469 174.164062 137.601562 175.550781 C 137.601562 176.792969 137.542969 178.039062 137.519531 179.28125 C 137.511719 179.621094 137.304688 180.015625 137.835938 180.289062 Z M 125.308594 175.746094 C 126.949219 174.703125 128.371094 173.398438 130.089844 172.53125 C 131.773438 171.679688 133.601562 171.210938 135.410156 170.621094 C 133.84375 169.929688 132.304688 169.492188 130.691406 169.246094 C 129.765625 169.105469 129.160156 169.382812 128.601562 170.09375 C 127.246094 171.8125 126 173.589844 125.308594 175.746094 Z M 147.757812 182.746094 C 146.402344 183.96875 145.570312 184.964844 145.269531 185.726562 C 143.425781 190.34375 140.917969 194.429688 136.242188 196.800781 C 137.25 197.347656 137.277344 197.386719 137.933594 196.941406 C 142.914062 193.585938 146.214844 189.050781 147.757812 182.746094 Z M 121.503906 203.960938 C 121.320312 208.691406 122.902344 212.800781 125.296875 216.722656 C 126.542969 215.679688 126.554688 215.675781 125.886719 214.390625 C 124.34375 211.433594 122.878906 208.453125 122.894531 205 C 122.898438 204.140625 122.324219 204.011719 121.503906 203.957031 Z M 118.105469 202.269531 C 115.019531 202.648438 111.609375 206.960938 111.882812 210.179688 C 112.894531 209.53125 113.863281 209.039062 114.179688 207.660156 C 114.476562 206.367188 115.457031 205.234375 116.707031 204.8125 C 118.140625 204.328125 118.246094 203.453125 118.109375 202.269531 Z M 137.09375 182.980469 C 139.207031 181.914062 140.921875 180.777344 142.421875 179.339844 C 143.050781 178.734375 143.644531 178.082031 144.039062 177.277344 C 144.242188 176.863281 144.441406 176.4375 143.914062 176.140625 C 143.4375 175.875 143.265625 176.316406 143.070312 176.621094 C 141.835938 178.515625 140.183594 179.921875 138.109375 180.792969 C 137.171875 181.183594 137.027344 181.859375 137.09375 182.984375 Z M 118.742188 176.640625 C 118.617188 176.847656 118.457031 177.046875 118.382812 177.273438 C 117.1875 180.796875 117.359375 184.398438 117.773438 188.015625 C 117.8125 188.359375 117.996094 188.640625 118.371094 188.546875 C 118.820312 188.4375 118.625 188.039062 118.59375 187.765625 C 118.203125 184.089844 118.363281 180.425781 118.738281 176.640625 Z M 114.539062 208.367188 C 115.839844 207.882812 116.761719 207.527344 117.691406 207.199219 C 118.148438 207.046875 118.246094 206.742188 118.15625 206.328125 C 118.058594 205.863281 118.257812 205.316406 117.726562 204.878906 C 116.234375 205.429688 115.367188 206.574219 114.539062 208.363281 Z M 126.769531 196.304688 C 126.378906 194.664062 125.261719 193.738281 123.886719 193.945312 C 122.496094 194.152344 121.421875 195.597656 121.578125 197.132812 C 121.746094 198.808594 122.949219 199.886719 123.890625 201.136719 C 124.542969 202.003906 125.453125 201.824219 126.269531 201.921875 C 127.792969 202.113281 129.292969 201.953125 130.585938 201.011719 C 131.273438 200.511719 131.789062 199.867188 131.589844 198.941406 C 131.386719 198.003906 130.609375 197.679688 129.796875 197.484375 C 128.921875 197.277344 128.054688 197.511719 127.117188 197.675781 C 126.753906 197.195312 126.871094 196.730469 126.773438 196.308594 Z M 126.769531 196.304688 " fill-opacity="1" fill-rule="nonzero"/></g><g clip-path="url(#9a000b9a2a)"><path fill="#ffffff" d="M 147.871094 146.789062 C 147.871094 146.789062 126.078125 188.933594 126.945312 189.339844 C 127.8125 189.746094 148.980469 147.3125 148.980469 147.3125 Z M 147.871094 146.789062 " fill-opacity="1" fill-rule="nonzero"/></g><path fill="#ffffff" d="M 147.292969 145.5 C 148.226562 143.695312 151.199219 144.957031 150.179688 147.015625 C 149.734375 147.917969 148.945312 148.085938 148.28125 147.835938 C 147.425781 147.519531 146.769531 146.511719 147.292969 145.5 Z M 147.292969 145.5 " fill-opacity="1" fill-rule="nonzero"/><g clip-path="url(#35a29e5c28)"><path fill="#ffffff" d="M 152.773438 153.386719 C 152.773438 153.386719 128.425781 194.242188 127.582031 193.789062 C 126.742188 193.335938 151.695312 152.804688 151.695312 152.804688 Z M 152.773438 153.386719 " fill-opacity="1" fill-rule="nonzero"/></g><path fill="#ffffff" d="M 154.164062 153.085938 C 155.082031 151.273438 152.300781 149.640625 151.226562 151.671875 C 150.753906 152.558594 151.082031 153.289062 151.679688 153.675781 C 152.441406 154.171875 153.648438 154.105469 154.164062 153.085938 Z M 154.164062 153.085938 " fill-opacity="1" fill-rule="nonzero"/><g transform="matrix(1, 0, 0, 1, 4, 181)"><g clip-path="url(#56032a56d9)"><g fill="#ffffff" fill-opacity="1"><g transform="translate(1.371839, 24.738526)"><g><path d="M 10.5625 -18.515625 C 13.375 -18.515625 15.65625 -17.660156 17.40625 -15.953125 C 19.164062 -14.253906 20.046875 -12.019531 20.046875 -9.25 C 20.046875 -6.488281 19.164062 -4.253906 17.40625 -2.546875 C 15.65625 -0.847656 13.375 0 10.5625 0 L 1.59375 0 L 1.59375 -0.265625 L 1.9375 -0.265625 C 2.394531 -0.265625 2.785156 -0.425781 3.109375 -0.75 C 3.429688 -1.082031 3.601562 -1.476562 3.625 -1.9375 L 3.625 -16.75 C 3.625 -17.164062 3.453125 -17.519531 3.109375 -17.8125 C 2.765625 -18.101562 2.375 -18.25 1.9375 -18.25 L 1.609375 -18.25 L 1.59375 -18.515625 Z M 5.34375 -17.71875 L 5.34375 -0.796875 L 10.5625 -0.796875 C 12.039062 -0.796875 13.347656 -1.144531 14.484375 -1.84375 C 15.617188 -2.550781 16.5 -3.546875 17.125 -4.828125 C 17.75 -6.109375 18.0625 -7.585938 18.0625 -9.265625 C 18.0625 -11.796875 17.367188 -13.835938 15.984375 -15.390625 C 14.609375 -16.941406 12.800781 -17.71875 10.5625 -17.71875 Z M 5.34375 -17.71875 "/></g></g></g><g fill="#ffffff" fill-opacity="1"><g transform="translate(22.182311, 24.738526)"><g><path d="M 1.9375 -0.265625 C 2.394531 -0.265625 2.785156 -0.425781 3.109375 -0.75 C 3.429688 -1.082031 3.601562 -1.476562 3.625 -1.9375 L 3.625 -16.75 C 3.570312 -17.164062 3.382812 -17.519531 3.0625 -17.8125 C 2.75 -18.101562 2.375 -18.25 1.9375 -18.25 L 1.609375 -18.25 L 1.59375 -18.515625 L 9.34375 -18.515625 C 9.882812 -18.515625 10.476562 -18.566406 11.125 -18.671875 C 11.769531 -18.773438 12.222656 -18.882812 12.484375 -19 L 12.484375 -15.65625 L 12.21875 -15.65625 L 12.21875 -16.140625 C 12.21875 -16.554688 12.070312 -16.914062 11.78125 -17.21875 C 11.488281 -17.519531 11.140625 -17.679688 10.734375 -17.703125 L 5.34375 -17.703125 L 5.34375 -9.515625 L 9.8125 -9.515625 C 10.164062 -9.535156 10.460938 -9.671875 10.703125 -9.921875 C 10.953125 -10.171875 11.078125 -10.476562 11.078125 -10.84375 L 11.078125 -11.21875 L 11.34375 -11.21875 L 11.34375 -7.03125 L 11.078125 -7.03125 L 11.078125 -7.4375 C 11.078125 -7.789062 10.957031 -8.085938 10.71875 -8.328125 C 10.488281 -8.578125 10.195312 -8.710938 9.84375 -8.734375 L 5.34375 -8.734375 L 5.34375 -0.8125 L 9.125 -0.8125 C 10.425781 -0.8125 11.421875 -1.101562 12.109375 -1.6875 C 12.796875 -2.269531 13.367188 -3.132812 13.828125 -4.28125 L 14.09375 -4.28125 L 12.5625 0 L 1.59375 0 L 1.59375 -0.265625 Z M 1.9375 -0.265625 "/></g></g></g><g fill="#ffffff" fill-opacity="1"><g transform="translate(37.175404, 24.738526)"><g><path d="M 20.578125 -18.25 C 20.140625 -18.25 19.757812 -18.09375 19.4375 -17.78125 C 19.125 -17.476562 18.957031 -17.109375 18.9375 -16.671875 L 18.9375 -3.015625 C 18.9375 -1.992188 19 -1.023438 19.125 -0.109375 L 19.171875 0.375 L 18.9375 0.375 L 4.53125 -15.03125 L 4.53125 -1.859375 C 4.539062 -1.234375 4.8125 -0.769531 5.34375 -0.46875 C 5.59375 -0.332031 5.859375 -0.265625 6.140625 -0.265625 L 6.640625 -0.265625 L 6.640625 0 L 1.1875 0 L 1.1875 -0.265625 L 1.6875 -0.265625 C 2.132812 -0.265625 2.515625 -0.414062 2.828125 -0.71875 C 3.148438 -1.03125 3.3125 -1.414062 3.3125 -1.875 L 3.3125 -15.609375 C 3.3125 -16.679688 3.25 -17.640625 3.125 -18.484375 L 3.0625 -18.90625 L 3.328125 -18.90625 L 17.75 -3.515625 L 17.75 -16.640625 C 17.726562 -17.097656 17.554688 -17.476562 17.234375 -17.78125 C 16.921875 -18.09375 16.546875 -18.25 16.109375 -18.25 L 15.609375 -18.25 L 15.609375 -18.515625 L 21.0625 -18.515625 L 21.0625 -18.25 Z M 20.578125 -18.25 "/></g></g></g><g fill="#ffffff" fill-opacity="1"><g transform="translate(59.149416, 24.738526)"><g><path d="M 1.9375 -0.265625 C 2.394531 -0.265625 2.785156 -0.425781 3.109375 -0.75 C 3.429688 -1.082031 3.601562 -1.476562 3.625 -1.9375 L 3.625 -16.609375 C 3.601562 -17.066406 3.429688 -17.453125 3.109375 -17.765625 C 2.785156 -18.085938 2.394531 -18.25 1.9375 -18.25 L 1.59375 -18.25 L 1.59375 -18.515625 L 7.375 -18.515625 L 7.375 -18.25 L 7.03125 -18.25 C 6.570312 -18.25 6.179688 -18.085938 5.859375 -17.765625 C 5.535156 -17.453125 5.363281 -17.066406 5.34375 -16.609375 L 5.34375 -1.9375 C 5.34375 -1.476562 5.507812 -1.082031 5.84375 -0.75 C 6.175781 -0.425781 6.570312 -0.265625 7.03125 -0.265625 L 7.375 -0.265625 L 7.375 0 L 1.59375 0 L 1.59375 -0.265625 Z M 1.9375 -0.265625 "/></g></g></g><g fill="#ffffff" fill-opacity="1"><g transform="translate(68.087111, 24.738526)"><g><path d="M 1.609375 -1.078125 C 1.554688 -1.328125 1.53125 -1.804688 1.53125 -2.515625 C 1.53125 -3.222656 1.664062 -3.972656 1.9375 -4.765625 L 2.171875 -4.765625 C 2.148438 -4.566406 2.140625 -4.367188 2.140625 -4.171875 C 2.140625 -3.097656 2.460938 -2.203125 3.109375 -1.484375 C 3.765625 -0.773438 4.632812 -0.421875 5.71875 -0.421875 C 6.820312 -0.421875 7.726562 -0.753906 8.4375 -1.421875 C 9.15625 -2.097656 9.515625 -2.941406 9.515625 -3.953125 C 9.515625 -4.960938 9.171875 -5.785156 8.484375 -6.421875 L 3.40625 -11.140625 C 2.457031 -12.015625 1.984375 -13.078125 1.984375 -14.328125 C 1.984375 -15.585938 2.398438 -16.660156 3.234375 -17.546875 C 4.078125 -18.441406 5.210938 -18.890625 6.640625 -18.890625 C 7.304688 -18.890625 8.066406 -18.800781 8.921875 -18.625 L 9.953125 -18.625 L 9.953125 -15.375 L 9.703125 -15.375 C 9.703125 -16.195312 9.414062 -16.851562 8.84375 -17.34375 C 8.269531 -17.84375 7.535156 -18.09375 6.640625 -18.09375 C 5.742188 -18.09375 4.988281 -17.789062 4.375 -17.1875 C 3.769531 -16.59375 3.46875 -15.84375 3.46875 -14.9375 C 3.46875 -14.039062 3.820312 -13.269531 4.53125 -12.625 L 9.734375 -7.796875 C 10.617188 -6.992188 11.0625 -5.882812 11.0625 -4.46875 C 11.0625 -3.0625 10.609375 -1.898438 9.703125 -0.984375 C 8.804688 -0.078125 7.609375 0.375 6.109375 0.375 C 5.335938 0.375 4.515625 0.253906 3.640625 0.015625 C 2.765625 -0.222656 2.085938 -0.585938 1.609375 -1.078125 Z M 1.609375 -1.078125 "/></g></g></g><g fill="#ffffff" fill-opacity="1"><g transform="translate(80.647498, 24.738526)"><g><path d="M 1.9375 -0.265625 C 2.394531 -0.265625 2.785156 -0.425781 3.109375 -0.75 C 3.429688 -1.082031 3.601562 -1.476562 3.625 -1.9375 L 3.625 -16.75 C 3.570312 -17.164062 3.382812 -17.519531 3.0625 -17.8125 C 2.75 -18.101562 2.375 -18.25 1.9375 -18.25 L 1.609375 -18.25 L 1.59375 -18.515625 L 9.34375 -18.515625 C 9.882812 -18.515625 10.476562 -18.566406 11.125 -18.671875 C 11.769531 -18.773438 12.222656 -18.882812 12.484375 -19 L 12.484375 -15.65625 L 12.21875 -15.65625 L 12.21875 -16.140625 C 12.21875 -16.554688 12.070312 -16.914062 11.78125 -17.21875 C 11.488281 -17.519531 11.140625 -17.679688 10.734375 -17.703125 L 5.34375 -17.703125 L 5.34375 -9.515625 L 9.8125 -9.515625 C 10.164062 -9.535156 10.460938 -9.671875 10.703125 -9.921875 C 10.953125 -10.171875 11.078125 -10.476562 11.078125 -10.84375 L 11.078125 -11.21875 L 11.34375 -11.21875 L 11.34375 -7.03125 L 11.078125 -7.03125 L 11.078125 -7.4375 C 11.078125 -7.789062 10.957031 -8.085938 10.71875 -8.328125 C 10.488281 -8.578125 10.195312 -8.710938 9.84375 -8.734375 L 5.34375 -8.734375 L 5.34375 -0.8125 L 9.125 -0.8125 C 10.425781 -0.8125 11.421875 -1.101562 12.109375 -1.6875 C 12.796875 -2.269531 13.367188 -3.132812 13.828125 -4.28125 L 14.09375 -4.28125 L 12.5625 0 L 1.59375 0 L 1.59375 -0.265625 Z M 1.9375 -0.265625 "/></g></g></g><g fill="#ffffff" fill-opacity="1"><g transform="translate(95.909976, 24.738526)"><g/></g></g><g fill="#ffffff" fill-opacity="1"><g transform="translate(102.520697, 24.738526)"><g/></g></g><g fill="#ffffff" fill-opacity="1"><g transform="translate(109.131419, 24.738526)"><g/></g></g><g fill="#ffffff" fill-opacity="1"><g transform="translate(115.74214, 24.738526)"><g/></g></g><g fill="#ffffff" fill-opacity="1"><g transform="translate(122.352862, 24.738526)"><g/></g></g><g fill="#ffffff" fill-opacity="1"><g transform="translate(128.963583, 24.738526)"><g/></g></g><g fill="#ffffff" fill-opacity="1"><g transform="translate(135.574305, 24.738526)"><g/></g></g><g fill="#ffffff" fill-opacity="1"><g transform="translate(142.185026, 24.738526)"><g/></g></g><g fill="#ffffff" fill-opacity="1"><g transform="translate(148.79589, 24.738526)"><g><path d="M 7.03125 -0.265625 L 7.375 -0.265625 L 7.375 0 L 1.59375 0 L 1.59375 -0.265625 L 1.9375 -0.265625 C 2.394531 -0.265625 2.785156 -0.425781 3.109375 -0.75 C 3.429688 -1.082031 3.601562 -1.476562 3.625 -1.9375 L 3.625 -16.609375 C 3.601562 -17.066406 3.429688 -17.453125 3.109375 -17.765625 C 2.785156 -18.085938 2.394531 -18.25 1.9375 -18.25 L 1.59375 -18.25 L 1.59375 -18.515625 L 7.375 -18.515625 L 7.375 -18.25 L 7.03125 -18.25 C 6.570312 -18.25 6.179688 -18.085938 5.859375 -17.765625 C 5.535156 -17.453125 5.363281 -17.066406 5.34375 -16.609375 L 5.34375 -1.9375 C 5.34375 -1.476562 5.507812 -1.082031 5.84375 -0.75 C 6.175781 -0.425781 6.570312 -0.265625 7.03125 -0.265625 Z M 17.671875 0 L 16.53125 0 C 14.726562 0 13.40625 -0.503906 12.5625 -1.515625 L 6.1875 -9.203125 L 12.4375 -17.03125 C 12.570312 -17.207031 12.640625 -17.363281 12.640625 -17.5 C 12.640625 -17.644531 12.613281 -17.769531 12.5625 -17.875 C 12.425781 -18.144531 12.171875 -18.28125 11.796875 -18.28125 L 11.53125 -18.28125 L 11.53125 -18.515625 L 17.109375 -18.515625 L 17.109375 -18.28125 L 17.015625 -18.28125 C 15.847656 -18.28125 14.894531 -17.863281 14.15625 -17.03125 L 7.9375 -9.84375 L 15.15625 -1.34375 C 15.863281 -0.644531 16.703125 -0.285156 17.671875 -0.265625 Z M 17.671875 0 "/></g></g></g><g fill="#ffffff" fill-opacity="1"><g transform="translate(166.168885, 24.738526)"><g><path d="M 20.578125 -18.25 C 20.140625 -18.25 19.757812 -18.09375 19.4375 -17.78125 C 19.125 -17.476562 18.957031 -17.109375 18.9375 -16.671875 L 18.9375 -3.015625 C 18.9375 -1.992188 19 -1.023438 19.125 -0.109375 L 19.171875 0.375 L 18.9375 0.375 L 4.53125 -15.03125 L 4.53125 -1.859375 C 4.539062 -1.234375 4.8125 -0.769531 5.34375 -0.46875 C 5.59375 -0.332031 5.859375 -0.265625 6.140625 -0.265625 L 6.640625 -0.265625 L 6.640625 0 L 1.1875 0 L 1.1875 -0.265625 L 1.6875 -0.265625 C 2.132812 -0.265625 2.515625 -0.414062 2.828125 -0.71875 C 3.148438 -1.03125 3.3125 -1.414062 3.3125 -1.875 L 3.3125 -15.609375 C 3.3125 -16.679688 3.25 -17.640625 3.125 -18.484375 L 3.0625 -18.90625 L 3.328125 -18.90625 L 17.75 -3.515625 L 17.75 -16.640625 C 17.726562 -17.097656 17.554688 -17.476562 17.234375 -17.78125 C 16.921875 -18.09375 16.546875 -18.25 16.109375 -18.25 L 15.609375 -18.25 L 15.609375 -18.515625 L 21.0625 -18.515625 L 21.0625 -18.25 Z M 20.578125 -18.25 "/></g></g></g><g fill="#ffffff" fill-opacity="1"><g transform="translate(188.142897, 24.738526)"><g><path d="M 1.9375 -0.265625 C 2.394531 -0.265625 2.785156 -0.425781 3.109375 -0.75 C 3.429688 -1.082031 3.601562 -1.476562 3.625 -1.9375 L 3.625 -16.609375 C 3.601562 -17.066406 3.429688 -17.453125 3.109375 -17.765625 C 2.785156 -18.085938 2.394531 -18.25 1.9375 -18.25 L 1.59375 -18.25 L 1.59375 -18.515625 L 7.375 -18.515625 L 7.375 -18.25 L 7.03125 -18.25 C 6.570312 -18.25 6.179688 -18.085938 5.859375 -17.765625 C 5.535156 -17.453125 5.363281 -17.066406 5.34375 -16.609375 L 5.34375 -1.9375 C 5.34375 -1.476562 5.507812 -1.082031 5.84375 -0.75 C 6.175781 -0.425781 6.570312 -0.265625 7.03125 -0.265625 L 7.375 -0.265625 L 7.375 0 L 1.59375 0 L 1.59375 -0.265625 Z M 1.9375 -0.265625 "/></g></g></g><g fill="#ffffff" fill-opacity="1"><g transform="translate(197.080592, 24.738526)"><g><path d="M 15.578125 -16.15625 C 15.578125 -16.582031 15.425781 -16.945312 15.125 -17.25 C 14.832031 -17.5625 14.484375 -17.726562 14.078125 -17.75 L 9.046875 -17.75 L 9.046875 -1.90625 C 9.066406 -1.445312 9.238281 -1.054688 9.5625 -0.734375 C 9.882812 -0.421875 10.273438 -0.265625 10.734375 -0.265625 L 11.078125 -0.265625 L 11.078125 0 L 5.296875 0 L 5.296875 -0.265625 L 5.640625 -0.265625 C 6.097656 -0.265625 6.488281 -0.421875 6.8125 -0.734375 C 7.132812 -1.054688 7.304688 -1.4375 7.328125 -1.875 L 7.328125 -17.75 L 2.296875 -17.75 C 1.878906 -17.726562 1.523438 -17.5625 1.234375 -17.25 C 0.941406 -16.945312 0.796875 -16.582031 0.796875 -16.15625 L 0.796875 -15.71875 L 0.53125 -15.6875 L 0.53125 -19.015625 C 0.789062 -18.910156 1.25 -18.804688 1.90625 -18.703125 C 2.5625 -18.597656 3.160156 -18.546875 3.703125 -18.546875 L 12.640625 -18.546875 C 13.503906 -18.546875 14.222656 -18.609375 14.796875 -18.734375 C 15.367188 -18.867188 15.71875 -18.960938 15.84375 -19.015625 L 15.84375 -15.6875 L 15.578125 -15.71875 Z M 15.578125 -16.15625 "/></g></g></g><g fill="#ffffff" fill-opacity="1"><g transform="translate(213.422296, 24.738526)"><g/></g></g><g fill="#ffffff" fill-opacity="1"><g transform="translate(220.033018, 24.738526)"><g><path d="M 18.9375 -0.265625 L 19.15625 -0.265625 L 19.15625 0 L 13.203125 0 L 13.203125 -0.265625 L 13.4375 -0.265625 C 13.8125 -0.265625 14.085938 -0.382812 14.265625 -0.625 C 14.453125 -0.863281 14.546875 -1.085938 14.546875 -1.296875 C 14.546875 -1.503906 14.515625 -1.71875 14.453125 -1.9375 L 12.75 -6.421875 L 5.609375 -6.421875 L 3.84375 -1.90625 C 3.769531 -1.695312 3.734375 -1.488281 3.734375 -1.28125 C 3.734375 -1.082031 3.828125 -0.863281 4.015625 -0.625 C 4.203125 -0.382812 4.476562 -0.265625 4.84375 -0.265625 L 5.078125 -0.265625 L 5.078125 0 L -0.234375 0 L -0.234375 -0.265625 L 0 -0.265625 C 0.445312 -0.265625 0.878906 -0.40625 1.296875 -0.6875 C 1.722656 -0.96875 2.066406 -1.382812 2.328125 -1.9375 L 8.3125 -16.15625 C 8.96875 -17.59375 9.296875 -18.503906 9.296875 -18.890625 L 9.53125 -18.890625 L 16.625 -1.9375 C 16.863281 -1.382812 17.191406 -0.96875 17.609375 -0.6875 C 18.035156 -0.40625 18.476562 -0.265625 18.9375 -0.265625 Z M 5.9375 -7.21875 L 12.4375 -7.21875 L 9.265625 -15.71875 Z M 5.9375 -7.21875 "/></g></g></g><g fill="#ffffff" fill-opacity="1"><g transform="translate(238.860357, 24.738526)"><g><path d="M 7.03125 -17.703125 L 5.34375 -17.703125 L 5.34375 -1.9375 C 5.34375 -1.476562 5.503906 -1.082031 5.828125 -0.75 C 6.160156 -0.425781 6.5625 -0.265625 7.03125 -0.265625 L 7.359375 -0.265625 L 7.375 0 L 1.59375 0 L 1.59375 -0.265625 L 1.9375 -0.265625 C 2.394531 -0.265625 2.785156 -0.421875 3.109375 -0.734375 C 3.429688 -1.054688 3.601562 -1.445312 3.625 -1.90625 L 3.625 -16.59375 C 3.601562 -17.050781 3.429688 -17.441406 3.109375 -17.765625 C 2.785156 -18.085938 2.394531 -18.25 1.9375 -18.25 L 1.59375 -18.25 L 1.59375 -18.515625 L 8.734375 -18.515625 C 10.335938 -18.515625 11.597656 -18.066406 12.515625 -17.171875 C 13.429688 -16.285156 13.890625 -15.132812 13.890625 -13.71875 C 13.890625 -12.300781 13.453125 -11.070312 12.578125 -10.03125 C 11.703125 -9 10.640625 -8.484375 9.390625 -8.484375 C 9.648438 -8.367188 9.960938 -8.128906 10.328125 -7.765625 C 10.691406 -7.398438 11.015625 -7.023438 11.296875 -6.640625 C 12.816406 -4.472656 13.804688 -3.132812 14.265625 -2.625 C 14.722656 -2.125 15.046875 -1.78125 15.234375 -1.59375 C 15.429688 -1.414062 15.644531 -1.238281 15.875 -1.0625 C 16.101562 -0.882812 16.332031 -0.742188 16.5625 -0.640625 C 17.070312 -0.390625 17.617188 -0.265625 18.203125 -0.265625 L 18.203125 0 L 16.75 0 C 15.988281 0 15.28125 -0.132812 14.625 -0.40625 C 13.976562 -0.675781 13.488281 -0.957031 13.15625 -1.25 C 12.832031 -1.539062 12.550781 -1.820312 12.3125 -2.09375 C 12.070312 -2.375 11.414062 -3.289062 10.34375 -4.84375 C 9.269531 -6.394531 8.644531 -7.28125 8.46875 -7.5 C 8.289062 -7.71875 8.101562 -7.929688 7.90625 -8.140625 C 7.34375 -8.742188 6.78125 -9.046875 6.21875 -9.046875 L 6.21875 -9.3125 C 6.351562 -9.289062 6.535156 -9.28125 6.765625 -9.28125 C 6.992188 -9.28125 7.28125 -9.289062 7.625 -9.3125 C 9.8125 -9.363281 11.1875 -10.28125 11.75 -12.0625 C 11.851562 -12.414062 11.90625 -12.742188 11.90625 -13.046875 C 11.90625 -13.359375 11.90625 -13.5625 11.90625 -13.65625 C 11.863281 -14.832031 11.550781 -15.78125 10.96875 -16.5 C 10.394531 -17.226562 9.613281 -17.617188 8.625 -17.671875 C 8.195312 -17.691406 7.664062 -17.703125 7.03125 -17.703125 Z M 7.03125 -17.703125 "/></g></g></g><g fill="#ffffff" fill-opacity="1"><g transform="translate(255.307599, 24.738526)"><g><path d="M 15.578125 -16.15625 C 15.578125 -16.582031 15.425781 -16.945312 15.125 -17.25 C 14.832031 -17.5625 14.484375 -17.726562 14.078125 -17.75 L 9.046875 -17.75 L 9.046875 -1.90625 C 9.066406 -1.445312 9.238281 -1.054688 9.5625 -0.734375 C 9.882812 -0.421875 10.273438 -0.265625 10.734375 -0.265625 L 11.078125 -0.265625 L 11.078125 0 L 5.296875 0 L 5.296875 -0.265625 L 5.640625 -0.265625 C 6.097656 -0.265625 6.488281 -0.421875 6.8125 -0.734375 C 7.132812 -1.054688 7.304688 -1.4375 7.328125 -1.875 L 7.328125 -17.75 L 2.296875 -17.75 C 1.878906 -17.726562 1.523438 -17.5625 1.234375 -17.25 C 0.941406 -16.945312 0.796875 -16.582031 0.796875 -16.15625 L 0.796875 -15.71875 L 0.53125 -15.6875 L 0.53125 -19.015625 C 0.789062 -18.910156 1.25 -18.804688 1.90625 -18.703125 C 2.5625 -18.597656 3.160156 -18.546875 3.703125 -18.546875 L 12.640625 -18.546875 C 13.503906 -18.546875 14.222656 -18.609375 14.796875 -18.734375 C 15.367188 -18.867188 15.71875 -18.960938 15.84375 -19.015625 L 15.84375 -15.6875 L 15.578125 -15.71875 Z M 15.578125 -16.15625 "/></g></g></g><g fill="#ffffff" fill-opacity="1"><g transform="translate(271.649303, 24.738526)"><g><path d="M 26.265625 -18.25 L 26.0625 -18.25 C 25.40625 -18.25 24.832031 -18.007812 24.34375 -17.53125 C 24.0625 -17.289062 23.859375 -16.984375 23.734375 -16.609375 L 19.34375 -2.625 C 18.988281 -1.507812 18.796875 -0.53125 18.765625 0.3125 L 18.515625 0.3125 L 13.125 -14.8125 L 9.109375 -2.625 C 8.773438 -1.53125 8.585938 -0.550781 8.546875 0.3125 L 8.3125 0.3125 L 2.3125 -16.640625 C 2.09375 -17.171875 1.765625 -17.570312 1.328125 -17.84375 C 0.890625 -18.113281 0.441406 -18.25 -0.015625 -18.25 L -0.234375 -18.25 L -0.234375 -18.515625 L 5.640625 -18.515625 L 5.640625 -18.25 L 5.40625 -18.25 C 5.03125 -18.25 4.75 -18.128906 4.5625 -17.890625 C 4.382812 -17.648438 4.296875 -17.425781 4.296875 -17.21875 C 4.296875 -17.007812 4.320312 -16.816406 4.375 -16.640625 L 8.390625 -3.75 L 13.3125 -18.9375 L 13.546875 -18.90625 L 18.765625 -4.28125 L 22.3125 -16.671875 C 22.363281 -16.859375 22.390625 -17.050781 22.390625 -17.25 C 22.390625 -17.457031 22.300781 -17.675781 22.125 -17.90625 C 21.945312 -18.132812 21.671875 -18.25 21.296875 -18.25 L 21.0625 -18.25 L 21.0625 -18.515625 L 26.265625 -18.515625 Z M 26.265625 -18.25 "/></g></g></g><g fill="#ffffff" fill-opacity="1"><g transform="translate(296.95506, 24.738526)"><g><path d="M 4.484375 -16.234375 C 6.234375 -18.003906 8.519531 -18.890625 11.34375 -18.890625 C 14.164062 -18.890625 16.457031 -18.003906 18.21875 -16.234375 C 19.988281 -14.460938 20.875 -12.140625 20.875 -9.265625 C 20.875 -6.390625 19.988281 -4.0625 18.21875 -2.28125 C 16.457031 -0.507812 14.164062 0.375 11.34375 0.375 C 8.519531 0.375 6.234375 -0.507812 4.484375 -2.28125 C 2.734375 -4.0625 1.859375 -6.390625 1.859375 -9.265625 C 1.859375 -12.140625 2.734375 -14.460938 4.484375 -16.234375 Z M 5.9375 -2.859375 C 7.300781 -1.234375 9.109375 -0.421875 11.359375 -0.421875 C 13.609375 -0.421875 15.414062 -1.234375 16.78125 -2.859375 C 18.144531 -4.484375 18.828125 -6.617188 18.828125 -9.265625 C 18.828125 -11.003906 18.519531 -12.539062 17.90625 -13.875 C 17.289062 -15.21875 16.414062 -16.253906 15.28125 -16.984375 C 14.144531 -17.722656 12.832031 -18.09375 11.34375 -18.09375 C 9.101562 -18.09375 7.300781 -17.28125 5.9375 -15.65625 C 4.570312 -14.03125 3.890625 -11.894531 3.890625 -9.25 C 3.890625 -6.613281 4.570312 -4.484375 5.9375 -2.859375 Z M 5.9375 -2.859375 "/></g></g></g><g fill="#ffffff" fill-opacity="1"><g transform="translate(318.585268, 24.738526)"><g><path d="M 7.03125 -17.703125 L 5.34375 -17.703125 L 5.34375 -1.9375 C 5.34375 -1.476562 5.503906 -1.082031 5.828125 -0.75 C 6.160156 -0.425781 6.5625 -0.265625 7.03125 -0.265625 L 7.359375 -0.265625 L 7.375 0 L 1.59375 0 L 1.59375 -0.265625 L 1.9375 -0.265625 C 2.394531 -0.265625 2.785156 -0.421875 3.109375 -0.734375 C 3.429688 -1.054688 3.601562 -1.445312 3.625 -1.90625 L 3.625 -16.59375 C 3.601562 -17.050781 3.429688 -17.441406 3.109375 -17.765625 C 2.785156 -18.085938 2.394531 -18.25 1.9375 -18.25 L 1.59375 -18.25 L 1.59375 -18.515625 L 8.734375 -18.515625 C 10.335938 -18.515625 11.597656 -18.066406 12.515625 -17.171875 C 13.429688 -16.285156 13.890625 -15.132812 13.890625 -13.71875 C 13.890625 -12.300781 13.453125 -11.070312 12.578125 -10.03125 C 11.703125 -9 10.640625 -8.484375 9.390625 -8.484375 C 9.648438 -8.367188 9.960938 -8.128906 10.328125 -7.765625 C 10.691406 -7.398438 11.015625 -7.023438 11.296875 -6.640625 C 12.816406 -4.472656 13.804688 -3.132812 14.265625 -2.625 C 14.722656 -2.125 15.046875 -1.78125 15.234375 -1.59375 C 15.429688 -1.414062 15.644531 -1.238281 15.875 -1.0625 C 16.101562 -0.882812 16.332031 -0.742188 16.5625 -0.640625 C 17.070312 -0.390625 17.617188 -0.265625 18.203125 -0.265625 L 18.203125 0 L 16.75 0 C 15.988281 0 15.28125 -0.132812 14.625 -0.40625 C 13.976562 -0.675781 13.488281 -0.957031 13.15625 -1.25 C 12.832031 -1.539062 12.550781 -1.820312 12.3125 -2.09375 C 12.070312 -2.375 11.414062 -3.289062 10.34375 -4.84375 C 9.269531 -6.394531 8.644531 -7.28125 8.46875 -7.5 C 8.289062 -7.71875 8.101562 -7.929688 7.90625 -8.140625 C 7.34375 -8.742188 6.78125 -9.046875 6.21875 -9.046875 L 6.21875 -9.3125 C 6.351562 -9.289062 6.535156 -9.28125 6.765625 -9.28125 C 6.992188 -9.28125 7.28125 -9.289062 7.625 -9.3125 C 9.8125 -9.363281 11.1875 -10.28125 11.75 -12.0625 C 11.851562 -12.414062 11.90625 -12.742188 11.90625 -13.046875 C 11.90625 -13.359375 11.90625 -13.5625 11.90625 -13.65625 C 11.863281 -14.832031 11.550781 -15.78125 10.96875 -16.5 C 10.394531 -17.226562 9.613281 -17.617188 8.625 -17.671875 C 8.195312 -17.691406 7.664062 -17.703125 7.03125 -17.703125 Z M 7.03125 -17.703125 "/></g></g></g><g fill="#ffffff" fill-opacity="1"><g transform="translate(335.69369, 24.738526)"><g><path d="M 7.03125 -0.265625 L 7.375 -0.265625 L 7.375 0 L 1.59375 0 L 1.59375 -0.265625 L 1.9375 -0.265625 C 2.394531 -0.265625 2.785156 -0.425781 3.109375 -0.75 C 3.429688 -1.082031 3.601562 -1.476562 3.625 -1.9375 L 3.625 -16.609375 C 3.601562 -17.066406 3.429688 -17.453125 3.109375 -17.765625 C 2.785156 -18.085938 2.394531 -18.25 1.9375 -18.25 L 1.59375 -18.25 L 1.59375 -18.515625 L 7.375 -18.515625 L 7.375 -18.25 L 7.03125 -18.25 C 6.570312 -18.25 6.179688 -18.085938 5.859375 -17.765625 C 5.535156 -17.453125 5.363281 -17.066406 5.34375 -16.609375 L 5.34375 -1.9375 C 5.34375 -1.476562 5.507812 -1.082031 5.84375 -0.75 C 6.175781 -0.425781 6.570312 -0.265625 7.03125 -0.265625 Z M 17.671875 0 L 16.53125 0 C 14.726562 0 13.40625 -0.503906 12.5625 -1.515625 L 6.1875 -9.203125 L 12.4375 -17.03125 C 12.570312 -17.207031 12.640625 -17.363281 12.640625 -17.5 C 12.640625 -17.644531 12.613281 -17.769531 12.5625 -17.875 C 12.425781 -18.144531 12.171875 -18.28125 11.796875 -18.28125 L 11.53125 -18.28125 L 11.53125 -18.515625 L 17.109375 -18.515625 L 17.109375 -18.28125 L 17.015625 -18.28125 C 15.847656 -18.28125 14.894531 -17.863281 14.15625 -17.03125 L 7.9375 -9.84375 L 15.15625 -1.34375 C 15.863281 -0.644531 16.703125 -0.285156 17.671875 -0.265625 Z M 17.671875 0 "/></g></g></g><g fill="#ffffff" fill-opacity="1"><g transform="translate(353.066685, 24.738526)"><g><path d="M 1.609375 -1.078125 C 1.554688 -1.328125 1.53125 -1.804688 1.53125 -2.515625 C 1.53125 -3.222656 1.664062 -3.972656 1.9375 -4.765625 L 2.171875 -4.765625 C 2.148438 -4.566406 2.140625 -4.367188 2.140625 -4.171875 C 2.140625 -3.097656 2.460938 -2.203125 3.109375 -1.484375 C 3.765625 -0.773438 4.632812 -0.421875 5.71875 -0.421875 C 6.820312 -0.421875 7.726562 -0.753906 8.4375 -1.421875 C 9.15625 -2.097656 9.515625 -2.941406 9.515625 -3.953125 C 9.515625 -4.960938 9.171875 -5.785156 8.484375 -6.421875 L 3.40625 -11.140625 C 2.457031 -12.015625 1.984375 -13.078125 1.984375 -14.328125 C 1.984375 -15.585938 2.398438 -16.660156 3.234375 -17.546875 C 4.078125 -18.441406 5.210938 -18.890625 6.640625 -18.890625 C 7.304688 -18.890625 8.066406 -18.800781 8.921875 -18.625 L 9.953125 -18.625 L 9.953125 -15.375 L 9.703125 -15.375 C 9.703125 -16.195312 9.414062 -16.851562 8.84375 -17.34375 C 8.269531 -17.84375 7.535156 -18.09375 6.640625 -18.09375 C 5.742188 -18.09375 4.988281 -17.789062 4.375 -17.1875 C 3.769531 -16.59375 3.46875 -15.84375 3.46875 -14.9375 C 3.46875 -14.039062 3.820312 -13.269531 4.53125 -12.625 L 9.734375 -7.796875 C 10.617188 -6.992188 11.0625 -5.882812 11.0625 -4.46875 C 11.0625 -3.0625 10.609375 -1.898438 9.703125 -0.984375 C 8.804688 -0.078125 7.609375 0.375 6.109375 0.375 C 5.335938 0.375 4.515625 0.253906 3.640625 0.015625 C 2.765625 -0.222656 2.085938 -0.585938 1.609375 -1.078125 Z M 1.609375 -1.078125 "/></g></g></g></g></g></svg>