<svg xmlns="http://www.w3.org/2000/svg" xmlns:xlink="http://www.w3.org/1999/xlink" width="300" zoomAndPan="magnify" viewBox="0 0 224.87999 37.5" height="50" preserveAspectRatio="xMidYMid meet" version="1.0"><defs><g/><clipPath id="224c283d39"><path d="M 62.300781 7.695312 L 85 7.695312 L 85 35.996094 L 62.300781 35.996094 Z M 62.300781 7.695312 " clip-rule="nonzero"/></clipPath><clipPath id="ca0235abb5"><path d="M 82 0.238281 L 84 0.238281 L 84 2 L 82 2 Z M 82 0.238281 " clip-rule="nonzero"/></clipPath><clipPath id="9c1c29c0bb"><path d="M 74 3 L 85 3 L 85 20.855469 L 74 20.855469 Z M 74 3 " clip-rule="nonzero"/></clipPath><clipPath id="4399862a51"><path d="M 84 2 L 85.636719 2 L 85.636719 5 L 84 5 Z M 84 2 " clip-rule="nonzero"/></clipPath><clipPath id="c9908ca09f"><path d="M 0.839844 13 L 220.15625 13 L 220.15625 35 L 0.839844 35 Z M 0.839844 13 " clip-rule="nonzero"/></clipPath><clipPath id="e02a00b70e"><rect x="0" width="221" y="0" height="22"/></clipPath><clipPath id="102e9552f5"><rect x="0" width="221" y="0" height="36"/></clipPath></defs><g transform="matrix(1, 0, 0, 1, 2, -0.000000000000001471)"><g clip-path="url(#102e9552f5)"><g clip-path="url(#224c283d39)"><path fill="#ffffff" d="M 79.777344 21.832031 C 79.964844 23.46875 79.421875 24.863281 78.394531 26.074219 C 78.167969 26.34375 78.09375 26.539062 78.164062 26.878906 C 78.417969 28.113281 78.445312 29.363281 78.28125 30.617188 C 77.847656 33.96875 75.082031 36.144531 71.738281 35.707031 C 68.824219 35.324219 66.265625 34.183594 64.339844 31.890625 C 63.058594 30.367188 62.328125 28.617188 62.539062 26.578125 C 62.664062 25.347656 63.179688 24.277344 63.988281 23.347656 C 64.800781 22.417969 65.734375 21.632812 66.84375 21.074219 C 67.152344 20.917969 67.324219 20.734375 67.441406 20.363281 C 67.792969 19.238281 68.425781 18.242188 69.242188 17.386719 C 69.539062 17.074219 69.628906 16.808594 69.558594 16.371094 C 69.277344 14.726562 69.339844 13.09375 69.960938 11.519531 C 71.117188 8.589844 73.148438 7.695312 75.503906 7.898438 C 77.148438 8.042969 78.636719 8.597656 80.015625 9.503906 C 80.996094 10.152344 81.953125 10.816406 82.789062 11.640625 C 84.765625 13.574219 85.101562 15.929688 83.746094 18.335938 C 82.828125 19.972656 81.539062 21.195312 79.777344 21.828125 Z M 74.804688 19.710938 C 74.820312 19.675781 74.839844 19.640625 74.855469 19.605469 C 74.453125 19.410156 74.054688 19.21875 73.65625 19.015625 C 72.558594 18.464844 71.4375 17.980469 70.277344 17.582031 C 69.898438 17.449219 69.648438 17.527344 69.417969 17.824219 C 68.851562 18.550781 68.34375 19.3125 67.90625 20.125 C 67.683594 20.535156 67.777344 20.78125 68.128906 21.015625 C 68.589844 21.320312 69.054688 21.632812 69.492188 21.964844 C 71.398438 23.40625 73.539062 24.402344 75.683594 25.402344 C 76.183594 25.636719 76.714844 25.8125 77.25 25.972656 C 77.71875 26.113281 78 25.96875 78.222656 25.59375 C 78.699219 24.800781 79.160156 23.996094 79.273438 23.066406 C 79.40625 21.984375 79.574219 22.128906 78.550781 21.558594 C 77.335938 20.882812 76.058594 20.320312 74.808594 19.710938 Z M 70.890625 28.070312 C 70.824219 28.058594 70.792969 28.046875 70.773438 28.054688 C 68.605469 28.945312 67.246094 30.597656 66.390625 32.71875 C 66.226562 33.125 66.53125 33.273438 66.808594 33.394531 C 67.042969 33.492188 67.304688 33.425781 67.554688 33.390625 C 69.328125 33.144531 70.777344 32.226562 72.121094 31.109375 C 72.285156 30.972656 72.402344 30.820312 72.246094 30.617188 C 71.652344 29.835938 71.300781 28.921875 70.890625 28.070312 Z M 64.503906 29.769531 C 64.449219 29.785156 64.398438 29.804688 64.34375 29.824219 C 64.035156 29.199219 63.871094 28.535156 63.917969 27.835938 C 64.101562 25.140625 65.214844 22.976562 67.558594 21.523438 C 67.667969 21.457031 67.921875 21.453125 67.761719 21.160156 C 66.6875 21.707031 65.710938 22.378906 64.871094 23.242188 C 62.894531 25.269531 62.539062 27.808594 63.890625 30.292969 C 63.972656 30.441406 63.996094 30.683594 64.300781 30.660156 C 64.507812 29.964844 64.9375 29.378906 65.375 28.808594 C 65.597656 28.515625 65.65625 28.28125 65.59375 27.910156 C 65.367188 26.535156 65.714844 25.269531 66.433594 24.085938 C 66.996094 23.160156 67.796875 22.507812 68.761719 22.027344 C 68.226562 21.480469 68.222656 21.472656 67.707031 21.769531 C 67.46875 21.910156 67.234375 22.066406 67.023438 22.246094 C 65.050781 23.953125 64.214844 26.128906 64.382812 28.707031 C 64.40625 29.0625 64.460938 29.414062 64.503906 29.769531 Z M 76.5625 11.371094 C 76.429688 11.390625 76.34375 11.382812 76.273438 11.414062 C 74.976562 11.964844 73.867188 12.78125 72.84375 13.742188 C 72.636719 13.933594 72.582031 14.152344 72.550781 14.398438 C 72.402344 15.476562 72.433594 16.558594 72.527344 17.640625 C 72.542969 17.828125 72.535156 18.042969 72.777344 18.113281 C 72.988281 18.171875 73.070312 17.988281 73.175781 17.878906 C 74.292969 16.671875 75.324219 15.402344 75.949219 13.859375 C 76.269531 13.074219 76.523438 12.265625 76.5625 11.375 Z M 68.777344 34.394531 C 69.558594 34.867188 70.21875 34.902344 70.949219 34.574219 C 72.199219 34.015625 73.398438 33.371094 74.472656 32.519531 C 75.734375 31.519531 76.753906 30.332031 77.40625 28.835938 C 77.714844 28.132812 77.730469 27.449219 77.5625 26.722656 C 77.492188 26.421875 77.347656 26.292969 77.058594 26.273438 C 76.699219 26.253906 76.785156 26.546875 76.730469 26.738281 C 75.933594 29.738281 74.121094 31.914062 71.390625 33.347656 C 70.601562 33.761719 69.773438 34.078125 68.777344 34.390625 Z M 70.699219 35.023438 C 72.953125 35.554688 74.808594 35.230469 76.308594 33.625 C 77.441406 32.414062 77.828125 30.945312 77.683594 29.328125 C 76.1875 32.160156 73.742188 33.808594 70.699219 35.023438 Z M 82.609375 13.039062 C 82.730469 13.507812 82.535156 13.710938 82.359375 13.917969 C 81.34375 15.113281 80.019531 15.789062 78.511719 16.097656 C 78.03125 16.195312 77.863281 16.398438 77.832031 16.847656 C 77.941406 16.875 78.019531 16.914062 78.09375 16.902344 C 79.75 16.707031 81.207031 16.078125 82.390625 14.882812 C 83.535156 13.726562 83.488281 13.222656 82.210938 12.164062 C 82.191406 12.148438 82.15625 12.152344 82.09375 12.132812 C 81.421875 13.425781 80.269531 14.175781 78.988281 14.765625 C 78.359375 15.054688 78.359375 15.050781 78.324219 15.910156 C 80.035156 15.414062 81.539062 14.652344 82.613281 13.039062 Z M 67.484375 33.753906 C 67.941406 34.140625 68.328125 34.242188 68.808594 34.089844 C 70.6875 33.484375 72.398438 32.585938 73.800781 31.175781 C 75.105469 29.867188 75.96875 28.304688 76.390625 26.496094 C 76.484375 26.101562 76.308594 25.996094 76.019531 25.910156 C 75.605469 25.792969 75.660156 26.097656 75.621094 26.34375 C 75.449219 27.351562 75.007812 28.242188 74.417969 29.066406 C 72.714844 31.449219 70.566406 33.199219 67.484375 33.753906 Z M 74.546875 18.925781 C 75.507812 19.546875 75.5 19.542969 76.15625 18.789062 C 76.710938 18.148438 77.09375 17.410156 77.441406 16.652344 C 78.230469 14.925781 78.507812 13.097656 78.507812 11.214844 C 78.507812 11.027344 78.546875 10.796875 78.222656 10.84375 C 78.015625 10.871094 77.839844 10.933594 77.863281 11.195312 C 77.871094 11.304688 77.871094 11.417969 77.875 11.527344 C 77.921875 12.746094 77.640625 13.894531 77.140625 15 C 76.496094 16.429688 75.675781 17.742188 74.542969 18.925781 Z M 73.25 18.304688 C 74.347656 18.996094 74.230469 18.8125 74.820312 18.144531 C 75.847656 16.988281 76.550781 15.625 77.097656 14.1875 C 77.425781 13.320312 77.578125 12.414062 77.566406 11.488281 C 77.566406 11.316406 77.664062 11.054688 77.367188 11.050781 C 77.148438 11.046875 76.902344 11.105469 76.835938 11.371094 C 76.785156 11.585938 76.769531 11.808594 76.730469 12.03125 C 76.523438 13.277344 76.125 14.441406 75.429688 15.519531 C 74.792969 16.503906 74.070312 17.414062 73.25 18.304688 Z M 65.140625 31.949219 C 66.082031 29.371094 67.683594 27.5625 70.179688 26.609375 C 70.390625 26.53125 70.433594 26.417969 70.386719 26.242188 C 70.339844 26.0625 70.378906 25.847656 70.132812 25.667969 C 67.667969 26.644531 65.722656 28.222656 64.613281 30.726562 C 64.367188 31.273438 64.6875 31.605469 65.140625 31.949219 Z M 65.847656 28.132812 C 66.5 27.558594 66.929688 27.144531 67.058594 26.363281 C 67.308594 24.863281 68.214844 23.75 69.59375 23.058594 C 69.730469 22.992188 69.945312 23.011719 69.925781 22.765625 C 69.042969 22.160156 68.953125 22.148438 68.097656 22.765625 C 66.328125 24.042969 65.78125 25.855469 65.847656 28.132812 Z M 73.207031 8.785156 C 72.386719 9.066406 71.824219 9.40625 71.519531 10.097656 C 70.566406 12.253906 70.464844 14.515625 70.628906 16.8125 C 70.664062 17.308594 70.902344 17.503906 71.421875 17.433594 C 71.089844 14.414062 71.417969 11.539062 73.207031 8.785156 Z M 70.746094 27.695312 C 70.519531 26.785156 70.488281 26.734375 69.910156 27.015625 C 67.816406 28.042969 66.378906 29.679688 65.5625 31.859375 C 65.390625 32.328125 65.460938 32.402344 66.066406 32.71875 C 66.9375 30.4375 68.40625 28.707031 70.746094 27.695312 Z M 79.851562 10.351562 C 79.148438 9.472656 78.320312 9.484375 77.429688 9.664062 C 75.753906 10 74.394531 10.859375 73.238281 12.089844 C 72.914062 12.4375 72.824219 12.839844 72.769531 13.429688 C 73.820312 12.492188 74.839844 11.734375 76.011719 11.207031 C 77.214844 10.664062 78.488281 10.421875 79.851562 10.351562 Z M 74.761719 8.5625 C 73.984375 8.40625 73.5625 8.65625 73.21875 9.242188 C 71.757812 11.726562 71.417969 14.414062 71.679688 17.226562 C 71.710938 17.582031 71.863281 17.800781 72.296875 17.816406 C 71.855469 14.433594 72.484375 11.324219 74.761719 8.5625 Z M 74.144531 28.859375 C 74.777344 27.9375 75.191406 27.082031 75.371094 26.113281 C 75.414062 25.875 75.378906 25.664062 75.132812 25.558594 C 74.355469 25.214844 73.621094 24.777344 72.734375 24.480469 C 72.8125 26.085938 73.363281 27.4375 74.144531 28.859375 Z M 70.601562 23.304688 C 70.363281 26.042969 71.152344 28.40625 72.496094 30.660156 C 73.246094 30.074219 73.238281 30.078125 72.839844 29.359375 C 72.570312 28.875 72.296875 28.386719 72.074219 27.878906 C 71.574219 26.75 71.238281 25.582031 71.320312 24.328125 C 71.367188 23.625 71.382812 23.625 70.601562 23.304688 Z M 80.269531 16.839844 C 79.433594 16.996094 78.636719 17.242188 77.800781 17.179688 C 77.605469 17.167969 77.503906 17.320312 77.433594 17.472656 C 77.054688 18.277344 76.476562 18.941406 75.878906 19.59375 C 76.574219 20.027344 76.574219 20.023438 77.179688 19.75 C 78.539062 19.136719 79.449219 18.054688 80.269531 16.839844 Z M 78.886719 21.351562 C 81.824219 21.222656 84.765625 16.953125 83.609375 14.664062 C 82.949219 17.496094 81.453125 19.707031 78.886719 21.351562 Z M 77.121094 20.195312 C 77.421875 20.542969 77.742188 20.546875 78.117188 20.390625 C 78.453125 20.25 78.785156 20.109375 79.070312 19.886719 C 80.386719 18.859375 81.296875 17.535156 82.039062 15.863281 C 81.375 16.1875 80.914062 16.402344 80.566406 16.941406 C 79.707031 18.273438 78.714844 19.503906 77.121094 20.199219 Z M 78.945312 13.464844 C 79.796875 13.058594 80.480469 12.429688 81.082031 11.695312 C 81.324219 11.40625 81.222656 11.222656 80.980469 11.007812 C 80.527344 10.609375 79.996094 10.699219 79.476562 10.710938 C 78.832031 10.726562 78.84375 10.738281 78.839844 11.359375 C 78.839844 11.910156 78.816406 12.460938 78.804688 13.015625 C 78.800781 13.167969 78.710938 13.34375 78.945312 13.464844 Z M 73.375 11.445312 C 74.105469 10.980469 74.738281 10.402344 75.5 10.015625 C 76.25 9.636719 77.0625 9.429688 77.867188 9.167969 C 77.171875 8.859375 76.484375 8.664062 75.769531 8.554688 C 75.355469 8.492188 75.089844 8.617188 74.839844 8.929688 C 74.238281 9.695312 73.683594 10.484375 73.375 11.445312 Z M 83.355469 14.554688 C 82.753906 15.097656 82.382812 15.542969 82.25 15.882812 C 81.429688 17.933594 80.316406 19.75 78.234375 20.804688 C 78.683594 21.046875 78.695312 21.0625 78.988281 20.867188 C 81.203125 19.375 82.667969 17.359375 83.355469 14.558594 Z M 71.683594 23.988281 C 71.601562 26.089844 72.304688 27.917969 73.371094 29.660156 C 73.925781 29.195312 73.929688 29.195312 73.632812 28.625 C 72.949219 27.308594 72.292969 25.984375 72.300781 24.449219 C 72.304688 24.066406 72.046875 24.007812 71.683594 23.984375 Z M 70.175781 23.234375 C 68.800781 23.402344 67.285156 25.320312 67.40625 26.75 C 67.855469 26.464844 68.289062 26.246094 68.429688 25.632812 C 68.5625 25.054688 68.996094 24.554688 69.550781 24.363281 C 70.1875 24.148438 70.234375 23.761719 70.175781 23.234375 Z M 78.613281 14.660156 C 79.554688 14.1875 80.316406 13.679688 80.984375 13.042969 C 81.261719 12.773438 81.527344 12.480469 81.703125 12.125 C 81.792969 11.941406 81.882812 11.75 81.648438 11.621094 C 81.433594 11.503906 81.359375 11.699219 81.273438 11.832031 C 80.722656 12.675781 79.988281 13.300781 79.066406 13.6875 C 78.648438 13.859375 78.585938 14.160156 78.613281 14.660156 Z M 70.457031 11.839844 C 70.402344 11.933594 70.332031 12.023438 70.296875 12.121094 C 69.765625 13.6875 69.839844 15.289062 70.027344 16.898438 C 70.042969 17.050781 70.125 17.175781 70.292969 17.136719 C 70.492188 17.085938 70.402344 16.910156 70.390625 16.789062 C 70.21875 15.152344 70.289062 13.523438 70.453125 11.839844 Z M 68.585938 25.945312 C 69.167969 25.730469 69.574219 25.570312 69.988281 25.425781 C 70.191406 25.359375 70.234375 25.222656 70.195312 25.039062 C 70.152344 24.832031 70.242188 24.589844 70.003906 24.394531 C 69.339844 24.640625 68.957031 25.148438 68.585938 25.945312 Z M 74.023438 20.582031 C 73.851562 19.855469 73.355469 19.441406 72.746094 19.535156 C 72.125 19.628906 71.648438 20.269531 71.71875 20.953125 C 71.792969 21.695312 72.328125 22.175781 72.746094 22.730469 C 73.035156 23.117188 73.441406 23.035156 73.804688 23.082031 C 74.480469 23.164062 75.148438 23.09375 75.722656 22.675781 C 76.027344 22.453125 76.257812 22.167969 76.167969 21.753906 C 76.078125 21.339844 75.734375 21.195312 75.371094 21.109375 C 74.984375 21.015625 74.597656 21.121094 74.179688 21.195312 C 74.019531 20.980469 74.070312 20.773438 74.027344 20.585938 Z M 74.023438 20.582031 " fill-opacity="1" fill-rule="nonzero"/></g><path fill="#ffffff" d="M 82.835938 1.304688 C 82.835938 1.304688 73.71875 18.941406 74.082031 19.109375 C 74.441406 19.28125 83.300781 1.519531 83.300781 1.519531 Z M 82.835938 1.304688 " fill-opacity="1" fill-rule="nonzero"/><g clip-path="url(#ca0235abb5)"><path fill="#ffffff" d="M 82.597656 0.761719 C 82.984375 0.0078125 84.230469 0.535156 83.804688 1.398438 C 83.617188 1.777344 83.289062 1.84375 83.007812 1.742188 C 82.652344 1.609375 82.375 1.1875 82.597656 0.761719 Z M 82.597656 0.761719 " fill-opacity="1" fill-rule="nonzero"/></g><g clip-path="url(#9c1c29c0bb)"><path fill="#ffffff" d="M 84.890625 4.0625 C 84.890625 4.0625 74.699219 21.160156 74.347656 20.972656 C 73.996094 20.78125 84.4375 3.820312 84.4375 3.820312 Z M 84.890625 4.0625 " fill-opacity="1" fill-rule="nonzero"/></g><g clip-path="url(#4399862a51)"><path fill="#ffffff" d="M 85.472656 3.9375 C 85.855469 3.179688 84.691406 2.496094 84.242188 3.347656 C 84.042969 3.71875 84.183594 4.023438 84.429688 4.183594 C 84.75 4.390625 85.253906 4.363281 85.472656 3.9375 Z M 85.472656 3.9375 " fill-opacity="1" fill-rule="nonzero"/></g><g clip-path="url(#c9908ca09f)"><g transform="matrix(1, 0, 0, 1, 0, 13)"><g clip-path="url(#e02a00b70e)"><g fill="#ffffff" fill-opacity="1"><g transform="translate(1.548317, 15.035435)"><g><path d="M 6.3125 -11.0625 C 8 -11.0625 9.363281 -10.550781 10.40625 -9.53125 C 11.457031 -8.519531 11.984375 -7.1875 11.984375 -5.53125 C 11.984375 -3.875 11.457031 -2.535156 10.40625 -1.515625 C 9.363281 -0.503906 8 0 6.3125 0 L 0.953125 0 L 0.953125 -0.15625 L 1.15625 -0.15625 C 1.425781 -0.15625 1.660156 -0.253906 1.859375 -0.453125 C 2.054688 -0.648438 2.160156 -0.882812 2.171875 -1.15625 L 2.171875 -10.015625 C 2.171875 -10.265625 2.066406 -10.472656 1.859375 -10.640625 C 1.648438 -10.816406 1.414062 -10.90625 1.15625 -10.90625 L 0.96875 -10.90625 L 0.953125 -11.0625 Z M 3.1875 -10.59375 L 3.1875 -0.46875 L 6.3125 -0.46875 C 7.195312 -0.46875 7.976562 -0.675781 8.65625 -1.09375 C 9.332031 -1.519531 9.859375 -2.113281 10.234375 -2.875 C 10.609375 -3.644531 10.796875 -4.53125 10.796875 -5.53125 C 10.796875 -7.050781 10.378906 -8.273438 9.546875 -9.203125 C 8.722656 -10.128906 7.644531 -10.59375 6.3125 -10.59375 Z M 3.1875 -10.59375 "/></g></g></g><g fill="#ffffff" fill-opacity="1"><g transform="translate(13.990585, 15.035435)"><g><path d="M 1.15625 -0.15625 C 1.425781 -0.15625 1.660156 -0.253906 1.859375 -0.453125 C 2.054688 -0.648438 2.160156 -0.882812 2.171875 -1.15625 L 2.171875 -10.015625 C 2.140625 -10.265625 2.023438 -10.472656 1.828125 -10.640625 C 1.640625 -10.816406 1.414062 -10.90625 1.15625 -10.90625 L 0.96875 -10.90625 L 0.953125 -11.0625 L 5.578125 -11.0625 C 5.910156 -11.0625 6.265625 -11.09375 6.640625 -11.15625 C 7.023438 -11.226562 7.300781 -11.296875 7.46875 -11.359375 L 7.46875 -9.359375 L 7.3125 -9.359375 L 7.3125 -9.640625 C 7.3125 -9.898438 7.222656 -10.117188 7.046875 -10.296875 C 6.867188 -10.472656 6.660156 -10.566406 6.421875 -10.578125 L 3.1875 -10.578125 L 3.1875 -5.6875 L 5.859375 -5.6875 C 6.078125 -5.695312 6.257812 -5.773438 6.40625 -5.921875 C 6.550781 -6.078125 6.625 -6.265625 6.625 -6.484375 L 6.625 -6.703125 L 6.78125 -6.703125 L 6.78125 -4.203125 L 6.625 -4.203125 L 6.625 -4.4375 C 6.625 -4.65625 6.550781 -4.835938 6.40625 -4.984375 C 6.269531 -5.128906 6.09375 -5.207031 5.875 -5.21875 L 3.1875 -5.21875 L 3.1875 -0.484375 L 5.453125 -0.484375 C 6.234375 -0.484375 6.828125 -0.65625 7.234375 -1 C 7.648438 -1.351562 7.992188 -1.875 8.265625 -2.5625 L 8.421875 -2.5625 L 7.515625 0 L 0.953125 0 L 0.953125 -0.15625 Z M 1.15625 -0.15625 "/></g></g></g><g fill="#ffffff" fill-opacity="1"><g transform="translate(22.954729, 15.035435)"><g><path d="M 12.296875 -10.90625 C 12.035156 -10.90625 11.8125 -10.8125 11.625 -10.625 C 11.4375 -10.445312 11.335938 -10.226562 11.328125 -9.96875 L 11.328125 -1.796875 C 11.328125 -1.191406 11.363281 -0.613281 11.4375 -0.0625 L 11.46875 0.21875 L 11.328125 0.21875 L 2.703125 -8.984375 L 2.703125 -1.109375 C 2.710938 -0.734375 2.875 -0.457031 3.1875 -0.28125 C 3.34375 -0.195312 3.503906 -0.15625 3.671875 -0.15625 L 3.96875 -0.15625 L 3.96875 0 L 0.71875 0 L 0.71875 -0.15625 L 1.015625 -0.15625 C 1.273438 -0.15625 1.5 -0.25 1.6875 -0.4375 C 1.875 -0.625 1.96875 -0.851562 1.96875 -1.125 L 1.96875 -9.328125 C 1.96875 -9.972656 1.929688 -10.546875 1.859375 -11.046875 L 1.828125 -11.3125 L 2 -11.3125 L 10.609375 -2.109375 L 10.609375 -9.953125 C 10.597656 -10.222656 10.5 -10.445312 10.3125 -10.625 C 10.125 -10.8125 9.894531 -10.90625 9.625 -10.90625 L 9.328125 -10.90625 L 9.328125 -11.0625 L 12.59375 -11.0625 L 12.59375 -10.90625 Z M 12.296875 -10.90625 "/></g></g></g><g fill="#ffffff" fill-opacity="1"><g transform="translate(36.092659, 15.035435)"><g><path d="M 1.15625 -0.15625 C 1.425781 -0.15625 1.660156 -0.253906 1.859375 -0.453125 C 2.054688 -0.648438 2.160156 -0.882812 2.171875 -1.15625 L 2.171875 -9.9375 C 2.160156 -10.207031 2.054688 -10.4375 1.859375 -10.625 C 1.660156 -10.8125 1.425781 -10.90625 1.15625 -10.90625 L 0.953125 -10.90625 L 0.953125 -11.0625 L 4.40625 -11.0625 L 4.40625 -10.90625 L 4.203125 -10.90625 C 3.929688 -10.90625 3.695312 -10.8125 3.5 -10.625 C 3.300781 -10.4375 3.195312 -10.207031 3.1875 -9.9375 L 3.1875 -1.15625 C 3.1875 -0.882812 3.285156 -0.648438 3.484375 -0.453125 C 3.691406 -0.253906 3.929688 -0.15625 4.203125 -0.15625 L 4.40625 -0.15625 L 4.40625 0 L 0.953125 0 L 0.953125 -0.15625 Z M 1.15625 -0.15625 "/></g></g></g><g fill="#ffffff" fill-opacity="1"><g transform="translate(41.436372, 15.035435)"><g><path d="M 0.96875 -0.640625 C 0.9375 -0.796875 0.921875 -1.082031 0.921875 -1.5 C 0.921875 -1.925781 1 -2.375 1.15625 -2.84375 L 1.296875 -2.84375 C 1.285156 -2.726562 1.28125 -2.613281 1.28125 -2.5 C 1.28125 -1.851562 1.472656 -1.316406 1.859375 -0.890625 C 2.253906 -0.460938 2.773438 -0.25 3.421875 -0.25 C 4.078125 -0.25 4.617188 -0.445312 5.046875 -0.84375 C 5.472656 -1.25 5.6875 -1.753906 5.6875 -2.359375 C 5.6875 -2.960938 5.484375 -3.457031 5.078125 -3.84375 L 2.046875 -6.65625 C 1.472656 -7.1875 1.1875 -7.820312 1.1875 -8.5625 C 1.1875 -9.3125 1.4375 -9.953125 1.9375 -10.484375 C 2.4375 -11.023438 3.113281 -11.296875 3.96875 -11.296875 C 4.363281 -11.296875 4.816406 -11.238281 5.328125 -11.125 L 5.953125 -11.125 L 5.953125 -9.1875 L 5.796875 -9.1875 C 5.796875 -9.6875 5.625 -10.082031 5.28125 -10.375 C 4.945312 -10.664062 4.507812 -10.8125 3.96875 -10.8125 C 3.425781 -10.8125 2.972656 -10.628906 2.609375 -10.265625 C 2.253906 -9.910156 2.078125 -9.460938 2.078125 -8.921875 C 2.078125 -8.390625 2.285156 -7.929688 2.703125 -7.546875 L 5.8125 -4.671875 C 6.34375 -4.179688 6.609375 -3.515625 6.609375 -2.671875 C 6.609375 -1.828125 6.335938 -1.132812 5.796875 -0.59375 C 5.265625 -0.0507812 4.550781 0.21875 3.65625 0.21875 C 3.1875 0.21875 2.691406 0.144531 2.171875 0 C 1.648438 -0.132812 1.25 -0.347656 0.96875 -0.640625 Z M 0.96875 -0.640625 "/></g></g></g><g fill="#ffffff" fill-opacity="1"><g transform="translate(48.946038, 15.035435)"><g><path d="M 1.15625 -0.15625 C 1.425781 -0.15625 1.660156 -0.253906 1.859375 -0.453125 C 2.054688 -0.648438 2.160156 -0.882812 2.171875 -1.15625 L 2.171875 -10.015625 C 2.140625 -10.265625 2.023438 -10.472656 1.828125 -10.640625 C 1.640625 -10.816406 1.414062 -10.90625 1.15625 -10.90625 L 0.96875 -10.90625 L 0.953125 -11.0625 L 5.578125 -11.0625 C 5.910156 -11.0625 6.265625 -11.09375 6.640625 -11.15625 C 7.023438 -11.226562 7.300781 -11.296875 7.46875 -11.359375 L 7.46875 -9.359375 L 7.3125 -9.359375 L 7.3125 -9.640625 C 7.3125 -9.898438 7.222656 -10.117188 7.046875 -10.296875 C 6.867188 -10.472656 6.660156 -10.566406 6.421875 -10.578125 L 3.1875 -10.578125 L 3.1875 -5.6875 L 5.859375 -5.6875 C 6.078125 -5.695312 6.257812 -5.773438 6.40625 -5.921875 C 6.550781 -6.078125 6.625 -6.265625 6.625 -6.484375 L 6.625 -6.703125 L 6.78125 -6.703125 L 6.78125 -4.203125 L 6.625 -4.203125 L 6.625 -4.4375 C 6.625 -4.65625 6.550781 -4.835938 6.40625 -4.984375 C 6.269531 -5.128906 6.09375 -5.207031 5.875 -5.21875 L 3.1875 -5.21875 L 3.1875 -0.484375 L 5.453125 -0.484375 C 6.234375 -0.484375 6.828125 -0.65625 7.234375 -1 C 7.648438 -1.351562 7.992188 -1.875 8.265625 -2.5625 L 8.421875 -2.5625 L 7.515625 0 L 0.953125 0 L 0.953125 -0.15625 Z M 1.15625 -0.15625 "/></g></g></g><g fill="#ffffff" fill-opacity="1"><g transform="translate(58.071243, 15.035435)"><g/></g></g><g fill="#ffffff" fill-opacity="1"><g transform="translate(62.023694, 15.035435)"><g/></g></g><g fill="#ffffff" fill-opacity="1"><g transform="translate(65.976145, 15.035435)"><g/></g></g><g fill="#ffffff" fill-opacity="1"><g transform="translate(69.928595, 15.035435)"><g/></g></g><g fill="#ffffff" fill-opacity="1"><g transform="translate(73.881046, 15.035435)"><g/></g></g><g fill="#ffffff" fill-opacity="1"><g transform="translate(77.833496, 15.035435)"><g/></g></g><g fill="#ffffff" fill-opacity="1"><g transform="translate(81.785947, 15.035435)"><g/></g></g><g fill="#ffffff" fill-opacity="1"><g transform="translate(85.738398, 15.035435)"><g/></g></g><g fill="#ffffff" fill-opacity="1"><g transform="translate(89.690934, 15.035435)"><g><path d="M 4.203125 -0.15625 L 4.40625 -0.15625 L 4.40625 0 L 0.953125 0 L 0.953125 -0.15625 L 1.15625 -0.15625 C 1.425781 -0.15625 1.660156 -0.253906 1.859375 -0.453125 C 2.054688 -0.648438 2.160156 -0.882812 2.171875 -1.15625 L 2.171875 -9.9375 C 2.160156 -10.207031 2.054688 -10.4375 1.859375 -10.625 C 1.660156 -10.8125 1.425781 -10.90625 1.15625 -10.90625 L 0.953125 -10.90625 L 0.953125 -11.0625 L 4.40625 -11.0625 L 4.40625 -10.90625 L 4.203125 -10.90625 C 3.929688 -10.90625 3.695312 -10.8125 3.5 -10.625 C 3.300781 -10.4375 3.195312 -10.207031 3.1875 -9.9375 L 3.1875 -1.15625 C 3.1875 -0.882812 3.285156 -0.648438 3.484375 -0.453125 C 3.691406 -0.253906 3.929688 -0.15625 4.203125 -0.15625 Z M 10.5625 0 L 9.875 0 C 8.800781 0 8.015625 -0.300781 7.515625 -0.90625 L 3.703125 -5.5 L 7.4375 -10.1875 C 7.519531 -10.289062 7.5625 -10.382812 7.5625 -10.46875 C 7.5625 -10.550781 7.546875 -10.625 7.515625 -10.6875 C 7.429688 -10.84375 7.273438 -10.921875 7.046875 -10.921875 L 6.890625 -10.921875 L 6.890625 -11.0625 L 10.234375 -11.0625 L 10.234375 -10.921875 L 10.171875 -10.921875 C 9.472656 -10.921875 8.898438 -10.675781 8.453125 -10.1875 L 4.75 -5.875 L 9.0625 -0.8125 C 9.476562 -0.382812 9.976562 -0.164062 10.5625 -0.15625 Z M 10.5625 0 "/></g></g></g><g fill="#ffffff" fill-opacity="1"><g transform="translate(100.077985, 15.035435)"><g><path d="M 12.296875 -10.90625 C 12.035156 -10.90625 11.8125 -10.8125 11.625 -10.625 C 11.4375 -10.445312 11.335938 -10.226562 11.328125 -9.96875 L 11.328125 -1.796875 C 11.328125 -1.191406 11.363281 -0.613281 11.4375 -0.0625 L 11.46875 0.21875 L 11.328125 0.21875 L 2.703125 -8.984375 L 2.703125 -1.109375 C 2.710938 -0.734375 2.875 -0.457031 3.1875 -0.28125 C 3.34375 -0.195312 3.503906 -0.15625 3.671875 -0.15625 L 3.96875 -0.15625 L 3.96875 0 L 0.71875 0 L 0.71875 -0.15625 L 1.015625 -0.15625 C 1.273438 -0.15625 1.5 -0.25 1.6875 -0.4375 C 1.875 -0.625 1.96875 -0.851562 1.96875 -1.125 L 1.96875 -9.328125 C 1.96875 -9.972656 1.929688 -10.546875 1.859375 -11.046875 L 1.828125 -11.3125 L 2 -11.3125 L 10.609375 -2.109375 L 10.609375 -9.953125 C 10.597656 -10.222656 10.5 -10.445312 10.3125 -10.625 C 10.125 -10.8125 9.894531 -10.90625 9.625 -10.90625 L 9.328125 -10.90625 L 9.328125 -11.0625 L 12.59375 -11.0625 L 12.59375 -10.90625 Z M 12.296875 -10.90625 "/></g></g></g><g fill="#ffffff" fill-opacity="1"><g transform="translate(113.215916, 15.035435)"><g><path d="M 1.15625 -0.15625 C 1.425781 -0.15625 1.660156 -0.253906 1.859375 -0.453125 C 2.054688 -0.648438 2.160156 -0.882812 2.171875 -1.15625 L 2.171875 -9.9375 C 2.160156 -10.207031 2.054688 -10.4375 1.859375 -10.625 C 1.660156 -10.8125 1.425781 -10.90625 1.15625 -10.90625 L 0.953125 -10.90625 L 0.953125 -11.0625 L 4.40625 -11.0625 L 4.40625 -10.90625 L 4.203125 -10.90625 C 3.929688 -10.90625 3.695312 -10.8125 3.5 -10.625 C 3.300781 -10.4375 3.195312 -10.207031 3.1875 -9.9375 L 3.1875 -1.15625 C 3.1875 -0.882812 3.285156 -0.648438 3.484375 -0.453125 C 3.691406 -0.253906 3.929688 -0.15625 4.203125 -0.15625 L 4.40625 -0.15625 L 4.40625 0 L 0.953125 0 L 0.953125 -0.15625 Z M 1.15625 -0.15625 "/></g></g></g><g fill="#ffffff" fill-opacity="1"><g transform="translate(118.559628, 15.035435)"><g><path d="M 9.3125 -9.65625 C 9.3125 -9.914062 9.222656 -10.132812 9.046875 -10.3125 C 8.867188 -10.5 8.65625 -10.597656 8.40625 -10.609375 L 5.40625 -10.609375 L 5.40625 -1.140625 C 5.414062 -0.867188 5.519531 -0.632812 5.71875 -0.4375 C 5.914062 -0.25 6.148438 -0.15625 6.421875 -0.15625 L 6.625 -0.15625 L 6.625 0 L 3.15625 0 L 3.15625 -0.15625 L 3.375 -0.15625 C 3.644531 -0.15625 3.875 -0.25 4.0625 -0.4375 C 4.257812 -0.632812 4.363281 -0.863281 4.375 -1.125 L 4.375 -10.609375 L 1.375 -10.609375 C 1.125 -10.597656 0.910156 -10.5 0.734375 -10.3125 C 0.554688 -10.132812 0.46875 -9.914062 0.46875 -9.65625 L 0.46875 -9.390625 L 0.3125 -9.375 L 0.3125 -11.375 C 0.46875 -11.3125 0.738281 -11.242188 1.125 -11.171875 C 1.519531 -11.109375 1.882812 -11.078125 2.21875 -11.078125 L 7.5625 -11.078125 C 8.070312 -11.078125 8.5 -11.117188 8.84375 -11.203125 C 9.1875 -11.285156 9.394531 -11.34375 9.46875 -11.375 L 9.46875 -9.375 L 9.3125 -9.390625 Z M 9.3125 -9.65625 "/></g></g></g><g fill="#ffffff" fill-opacity="1"><g transform="translate(128.330087, 15.035435)"><g/></g></g><g fill="#ffffff" fill-opacity="1"><g transform="translate(132.282538, 15.035435)"><g><path d="M 11.328125 -0.15625 L 11.453125 -0.15625 L 11.453125 0 L 7.890625 0 L 7.890625 -0.15625 L 8.03125 -0.15625 C 8.25 -0.15625 8.414062 -0.222656 8.53125 -0.359375 C 8.644531 -0.503906 8.703125 -0.640625 8.703125 -0.765625 C 8.703125 -0.898438 8.679688 -1.03125 8.640625 -1.15625 L 7.625 -3.84375 L 3.359375 -3.84375 L 2.296875 -1.140625 C 2.253906 -1.015625 2.234375 -0.890625 2.234375 -0.765625 C 2.234375 -0.640625 2.285156 -0.503906 2.390625 -0.359375 C 2.503906 -0.222656 2.671875 -0.15625 2.890625 -0.15625 L 3.03125 -0.15625 L 3.03125 0 L -0.140625 0 L -0.140625 -0.15625 L 0 -0.15625 C 0.257812 -0.15625 0.515625 -0.238281 0.765625 -0.40625 C 1.023438 -0.582031 1.234375 -0.832031 1.390625 -1.15625 L 4.96875 -9.65625 C 5.351562 -10.507812 5.546875 -11.054688 5.546875 -11.296875 L 5.6875 -11.296875 L 9.9375 -1.15625 C 10.082031 -0.832031 10.28125 -0.582031 10.53125 -0.40625 C 10.78125 -0.238281 11.046875 -0.15625 11.328125 -0.15625 Z M 3.546875 -4.3125 L 7.4375 -4.3125 L 5.53125 -9.390625 Z M 3.546875 -4.3125 "/></g></g></g><g fill="#ffffff" fill-opacity="1"><g transform="translate(143.53912, 15.035435)"><g><path d="M 4.203125 -10.578125 L 3.1875 -10.578125 L 3.1875 -1.15625 C 3.1875 -0.882812 3.285156 -0.648438 3.484375 -0.453125 C 3.679688 -0.253906 3.921875 -0.15625 4.203125 -0.15625 L 4.390625 -0.15625 L 4.40625 0 L 0.953125 0 L 0.953125 -0.15625 L 1.15625 -0.15625 C 1.425781 -0.15625 1.660156 -0.25 1.859375 -0.4375 C 2.054688 -0.632812 2.160156 -0.867188 2.171875 -1.140625 L 2.171875 -9.921875 C 2.160156 -10.191406 2.054688 -10.421875 1.859375 -10.609375 C 1.660156 -10.804688 1.425781 -10.90625 1.15625 -10.90625 L 0.953125 -10.90625 L 0.953125 -11.0625 L 5.21875 -11.0625 C 6.175781 -11.0625 6.925781 -10.796875 7.46875 -10.265625 C 8.019531 -9.734375 8.296875 -9.039062 8.296875 -8.1875 C 8.296875 -7.34375 8.035156 -6.613281 7.515625 -6 C 6.992188 -5.382812 6.359375 -5.078125 5.609375 -5.078125 C 5.765625 -5.003906 5.953125 -4.859375 6.171875 -4.640625 C 6.390625 -4.421875 6.582031 -4.195312 6.75 -3.96875 C 7.65625 -2.675781 8.242188 -1.878906 8.515625 -1.578125 C 8.796875 -1.273438 8.992188 -1.066406 9.109375 -0.953125 C 9.222656 -0.847656 9.347656 -0.738281 9.484375 -0.625 C 9.617188 -0.519531 9.757812 -0.4375 9.90625 -0.375 C 10.207031 -0.226562 10.53125 -0.15625 10.875 -0.15625 L 10.875 0 L 10.015625 0 C 9.554688 0 9.128906 -0.078125 8.734375 -0.234375 C 8.347656 -0.398438 8.054688 -0.570312 7.859375 -0.75 C 7.671875 -0.925781 7.503906 -1.09375 7.359375 -1.25 C 7.210938 -1.414062 6.816406 -1.960938 6.171875 -2.890625 C 5.535156 -3.816406 5.164062 -4.347656 5.0625 -4.484375 C 4.957031 -4.617188 4.847656 -4.75 4.734375 -4.875 C 4.390625 -5.226562 4.050781 -5.40625 3.71875 -5.40625 L 3.71875 -5.5625 C 3.800781 -5.550781 3.910156 -5.546875 4.046875 -5.546875 C 4.179688 -5.546875 4.347656 -5.550781 4.546875 -5.5625 C 5.859375 -5.59375 6.679688 -6.140625 7.015625 -7.203125 C 7.078125 -7.421875 7.109375 -7.617188 7.109375 -7.796875 C 7.109375 -7.984375 7.109375 -8.101562 7.109375 -8.15625 C 7.085938 -8.863281 6.90625 -9.429688 6.5625 -9.859375 C 6.21875 -10.296875 5.75 -10.53125 5.15625 -10.5625 C 4.90625 -10.570312 4.585938 -10.578125 4.203125 -10.578125 Z M 4.203125 -10.578125 "/></g></g></g><g fill="#ffffff" fill-opacity="1"><g transform="translate(153.372678, 15.035435)"><g><path d="M 9.3125 -9.65625 C 9.3125 -9.914062 9.222656 -10.132812 9.046875 -10.3125 C 8.867188 -10.5 8.65625 -10.597656 8.40625 -10.609375 L 5.40625 -10.609375 L 5.40625 -1.140625 C 5.414062 -0.867188 5.519531 -0.632812 5.71875 -0.4375 C 5.914062 -0.25 6.148438 -0.15625 6.421875 -0.15625 L 6.625 -0.15625 L 6.625 0 L 3.15625 0 L 3.15625 -0.15625 L 3.375 -0.15625 C 3.644531 -0.15625 3.875 -0.25 4.0625 -0.4375 C 4.257812 -0.632812 4.363281 -0.863281 4.375 -1.125 L 4.375 -10.609375 L 1.375 -10.609375 C 1.125 -10.597656 0.910156 -10.5 0.734375 -10.3125 C 0.554688 -10.132812 0.46875 -9.914062 0.46875 -9.65625 L 0.46875 -9.390625 L 0.3125 -9.375 L 0.3125 -11.375 C 0.46875 -11.3125 0.738281 -11.242188 1.125 -11.171875 C 1.519531 -11.109375 1.882812 -11.078125 2.21875 -11.078125 L 7.5625 -11.078125 C 8.070312 -11.078125 8.5 -11.117188 8.84375 -11.203125 C 9.1875 -11.285156 9.394531 -11.34375 9.46875 -11.375 L 9.46875 -9.375 L 9.3125 -9.390625 Z M 9.3125 -9.65625 "/></g></g></g><g fill="#ffffff" fill-opacity="1"><g transform="translate(163.143136, 15.035435)"><g><path d="M 15.703125 -10.90625 L 15.578125 -10.90625 C 15.179688 -10.90625 14.835938 -10.765625 14.546875 -10.484375 C 14.378906 -10.335938 14.257812 -10.15625 14.1875 -9.9375 L 11.5625 -1.5625 C 11.351562 -0.894531 11.234375 -0.3125 11.203125 0.1875 L 11.0625 0.1875 L 7.84375 -8.859375 L 5.4375 -1.5625 C 5.238281 -0.90625 5.128906 -0.320312 5.109375 0.1875 L 4.96875 0.1875 L 1.375 -9.953125 C 1.25 -10.265625 1.050781 -10.5 0.78125 -10.65625 C 0.519531 -10.820312 0.253906 -10.90625 -0.015625 -10.90625 L -0.140625 -10.90625 L -0.140625 -11.0625 L 3.375 -11.0625 L 3.375 -10.90625 L 3.21875 -10.90625 C 3 -10.90625 2.832031 -10.832031 2.71875 -10.6875 C 2.613281 -10.550781 2.5625 -10.421875 2.5625 -10.296875 C 2.5625 -10.171875 2.578125 -10.054688 2.609375 -9.953125 L 5.015625 -2.25 L 7.953125 -11.328125 L 8.09375 -11.3125 L 11.203125 -2.5625 L 13.328125 -9.96875 C 13.359375 -10.082031 13.375 -10.195312 13.375 -10.3125 C 13.375 -10.4375 13.320312 -10.566406 13.21875 -10.703125 C 13.113281 -10.835938 12.953125 -10.90625 12.734375 -10.90625 L 12.59375 -10.90625 L 12.59375 -11.0625 L 15.703125 -11.0625 Z M 15.703125 -10.90625 "/></g></g></g><g fill="#ffffff" fill-opacity="1"><g transform="translate(178.273067, 15.035435)"><g><path d="M 2.671875 -9.703125 C 3.722656 -10.765625 5.09375 -11.296875 6.78125 -11.296875 C 8.46875 -11.296875 9.835938 -10.765625 10.890625 -9.703125 C 11.941406 -8.640625 12.46875 -7.25 12.46875 -5.53125 C 12.46875 -3.8125 11.941406 -2.421875 10.890625 -1.359375 C 9.835938 -0.304688 8.46875 0.21875 6.78125 0.21875 C 5.09375 0.21875 3.722656 -0.304688 2.671875 -1.359375 C 1.628906 -2.421875 1.109375 -3.8125 1.109375 -5.53125 C 1.109375 -7.25 1.628906 -8.640625 2.671875 -9.703125 Z M 3.546875 -1.703125 C 4.367188 -0.734375 5.453125 -0.25 6.796875 -0.25 C 8.140625 -0.25 9.21875 -0.734375 10.03125 -1.703125 C 10.851562 -2.671875 11.265625 -3.945312 11.265625 -5.53125 C 11.265625 -6.570312 11.078125 -7.492188 10.703125 -8.296875 C 10.335938 -9.097656 9.8125 -9.71875 9.125 -10.15625 C 8.445312 -10.59375 7.664062 -10.8125 6.78125 -10.8125 C 5.445312 -10.8125 4.367188 -10.328125 3.546875 -9.359375 C 2.734375 -8.390625 2.328125 -7.113281 2.328125 -5.53125 C 2.328125 -3.945312 2.734375 -2.671875 3.546875 -1.703125 Z M 3.546875 -1.703125 "/></g></g></g><g fill="#ffffff" fill-opacity="1"><g transform="translate(191.205441, 15.035435)"><g><path d="M 4.203125 -10.578125 L 3.1875 -10.578125 L 3.1875 -1.15625 C 3.1875 -0.882812 3.285156 -0.648438 3.484375 -0.453125 C 3.679688 -0.253906 3.921875 -0.15625 4.203125 -0.15625 L 4.390625 -0.15625 L 4.40625 0 L 0.953125 0 L 0.953125 -0.15625 L 1.15625 -0.15625 C 1.425781 -0.15625 1.660156 -0.25 1.859375 -0.4375 C 2.054688 -0.632812 2.160156 -0.867188 2.171875 -1.140625 L 2.171875 -9.921875 C 2.160156 -10.191406 2.054688 -10.421875 1.859375 -10.609375 C 1.660156 -10.804688 1.425781 -10.90625 1.15625 -10.90625 L 0.953125 -10.90625 L 0.953125 -11.0625 L 5.21875 -11.0625 C 6.175781 -11.0625 6.925781 -10.796875 7.46875 -10.265625 C 8.019531 -9.734375 8.296875 -9.039062 8.296875 -8.1875 C 8.296875 -7.34375 8.035156 -6.613281 7.515625 -6 C 6.992188 -5.382812 6.359375 -5.078125 5.609375 -5.078125 C 5.765625 -5.003906 5.953125 -4.859375 6.171875 -4.640625 C 6.390625 -4.421875 6.582031 -4.195312 6.75 -3.96875 C 7.65625 -2.675781 8.242188 -1.878906 8.515625 -1.578125 C 8.796875 -1.273438 8.992188 -1.066406 9.109375 -0.953125 C 9.222656 -0.847656 9.347656 -0.738281 9.484375 -0.625 C 9.617188 -0.519531 9.757812 -0.4375 9.90625 -0.375 C 10.207031 -0.226562 10.53125 -0.15625 10.875 -0.15625 L 10.875 0 L 10.015625 0 C 9.554688 0 9.128906 -0.078125 8.734375 -0.234375 C 8.347656 -0.398438 8.054688 -0.570312 7.859375 -0.75 C 7.671875 -0.925781 7.503906 -1.09375 7.359375 -1.25 C 7.210938 -1.414062 6.816406 -1.960938 6.171875 -2.890625 C 5.535156 -3.816406 5.164062 -4.347656 5.0625 -4.484375 C 4.957031 -4.617188 4.847656 -4.75 4.734375 -4.875 C 4.390625 -5.226562 4.050781 -5.40625 3.71875 -5.40625 L 3.71875 -5.5625 C 3.800781 -5.550781 3.910156 -5.546875 4.046875 -5.546875 C 4.179688 -5.546875 4.347656 -5.550781 4.546875 -5.5625 C 5.859375 -5.59375 6.679688 -6.140625 7.015625 -7.203125 C 7.078125 -7.421875 7.109375 -7.617188 7.109375 -7.796875 C 7.109375 -7.984375 7.109375 -8.101562 7.109375 -8.15625 C 7.085938 -8.863281 6.90625 -9.429688 6.5625 -9.859375 C 6.21875 -10.296875 5.75 -10.53125 5.15625 -10.5625 C 4.90625 -10.570312 4.585938 -10.578125 4.203125 -10.578125 Z M 4.203125 -10.578125 "/></g></g></g><g fill="#ffffff" fill-opacity="1"><g transform="translate(201.434309, 15.035435)"><g><path d="M 4.203125 -0.15625 L 4.40625 -0.15625 L 4.40625 0 L 0.953125 0 L 0.953125 -0.15625 L 1.15625 -0.15625 C 1.425781 -0.15625 1.660156 -0.253906 1.859375 -0.453125 C 2.054688 -0.648438 2.160156 -0.882812 2.171875 -1.15625 L 2.171875 -9.9375 C 2.160156 -10.207031 2.054688 -10.4375 1.859375 -10.625 C 1.660156 -10.8125 1.425781 -10.90625 1.15625 -10.90625 L 0.953125 -10.90625 L 0.953125 -11.0625 L 4.40625 -11.0625 L 4.40625 -10.90625 L 4.203125 -10.90625 C 3.929688 -10.90625 3.695312 -10.8125 3.5 -10.625 C 3.300781 -10.4375 3.195312 -10.207031 3.1875 -9.9375 L 3.1875 -1.15625 C 3.1875 -0.882812 3.285156 -0.648438 3.484375 -0.453125 C 3.691406 -0.253906 3.929688 -0.15625 4.203125 -0.15625 Z M 10.5625 0 L 9.875 0 C 8.800781 0 8.015625 -0.300781 7.515625 -0.90625 L 3.703125 -5.5 L 7.4375 -10.1875 C 7.519531 -10.289062 7.5625 -10.382812 7.5625 -10.46875 C 7.5625 -10.550781 7.546875 -10.625 7.515625 -10.6875 C 7.429688 -10.84375 7.273438 -10.921875 7.046875 -10.921875 L 6.890625 -10.921875 L 6.890625 -11.0625 L 10.234375 -11.0625 L 10.234375 -10.921875 L 10.171875 -10.921875 C 9.472656 -10.921875 8.898438 -10.675781 8.453125 -10.1875 L 4.75 -5.875 L 9.0625 -0.8125 C 9.476562 -0.382812 9.976562 -0.164062 10.5625 -0.15625 Z M 10.5625 0 "/></g></g></g><g fill="#ffffff" fill-opacity="1"><g transform="translate(211.82136, 15.035435)"><g><path d="M 0.96875 -0.640625 C 0.9375 -0.796875 0.921875 -1.082031 0.921875 -1.5 C 0.921875 -1.925781 1 -2.375 1.15625 -2.84375 L 1.296875 -2.84375 C 1.285156 -2.726562 1.28125 -2.613281 1.28125 -2.5 C 1.28125 -1.851562 1.472656 -1.316406 1.859375 -0.890625 C 2.253906 -0.460938 2.773438 -0.25 3.421875 -0.25 C 4.078125 -0.25 4.617188 -0.445312 5.046875 -0.84375 C 5.472656 -1.25 5.6875 -1.753906 5.6875 -2.359375 C 5.6875 -2.960938 5.484375 -3.457031 5.078125 -3.84375 L 2.046875 -6.65625 C 1.472656 -7.1875 1.1875 -7.820312 1.1875 -8.5625 C 1.1875 -9.3125 1.4375 -9.953125 1.9375 -10.484375 C 2.4375 -11.023438 3.113281 -11.296875 3.96875 -11.296875 C 4.363281 -11.296875 4.816406 -11.238281 5.328125 -11.125 L 5.953125 -11.125 L 5.953125 -9.1875 L 5.796875 -9.1875 C 5.796875 -9.6875 5.625 -10.082031 5.28125 -10.375 C 4.945312 -10.664062 4.507812 -10.8125 3.96875 -10.8125 C 3.425781 -10.8125 2.972656 -10.628906 2.609375 -10.265625 C 2.253906 -9.910156 2.078125 -9.460938 2.078125 -8.921875 C 2.078125 -8.390625 2.285156 -7.929688 2.703125 -7.546875 L 5.8125 -4.671875 C 6.34375 -4.179688 6.609375 -3.515625 6.609375 -2.671875 C 6.609375 -1.828125 6.335938 -1.132812 5.796875 -0.59375 C 5.265625 -0.0507812 4.550781 0.21875 3.65625 0.21875 C 3.1875 0.21875 2.691406 0.144531 2.171875 0 C 1.648438 -0.132812 1.25 -0.347656 0.96875 -0.640625 Z M 0.96875 -0.640625 "/></g></g></g></g></g></g></g></g></svg>